<svg width="83" height="41" viewBox="0 0 83 41" fill="none" xmlns="http://www.w3.org/2000/svg">
<path d="M7.40526 12.3763C7.00381 12.3902 6.63768 12.124 6.53716 11.7238C6.49733 11.5744 6.46972 11.3779 6.46341 11.146C5.91304 8.56634 0.977523 7.97706 0.925371 7.97194C0.450689 7.92258 0.104991 7.49626 0.154352 7.02158C0.203652 6.54517 0.633373 6.19761 1.10471 6.25055C1.32037 6.27425 5.18496 6.70666 7.13489 8.82885C7.18094 8.75795 7.23051 8.68867 7.28181 8.61932C8.60656 6.85472 11.338 5.88675 15.4045 5.74563C15.8821 5.72905 16.2831 6.10321 16.2997 6.5808C16.3163 7.05839 15.9421 7.45945 15.4645 7.47603C11.1281 7.62652 9.39055 8.72805 8.69572 9.6236C8.2911 10.1453 8.19962 10.6543 8.19343 10.9751C8.21989 11.1387 8.23616 11.3079 8.24223 11.4827C8.25754 11.924 7.93822 12.3075 7.50032 12.3695C7.46577 12.3724 7.43468 12.3752 7.40526 12.3763Z" fill="white"/>
<path d="M68.2701 9.10662C67.8687 9.12055 67.5025 8.85432 67.402 8.45414C67.3939 8.4215 67.3214 8.1295 67.3071 7.66569C66.483 3.38906 58.6945 2.51418 58.6128 2.50489C58.1381 2.45553 57.7924 2.02921 57.8418 1.55453C57.8911 1.07812 58.3213 0.744405 58.7921 0.783503C59.119 0.817204 65.3107 1.51015 67.9409 4.9618C68.0791 4.7006 68.2465 4.43318 68.4451 4.16641C70.3477 1.62813 74.3344 0.237188 80.2939 0.0303645C80.7715 0.0137898 81.1725 0.387948 81.1891 0.865539C81.2057 1.34313 80.8315 1.74419 80.3539 1.76077C73.659 1.99311 70.9512 3.74161 69.859 5.16897C69.1812 6.057 69.038 6.92129 69.0327 7.46721C69.0722 7.70838 69.0965 7.95702 69.1054 8.21485C69.1207 8.6561 68.8014 9.03966 68.3635 9.10164C68.3306 9.10278 68.3013 9.10553 68.2701 9.10662Z" fill="white"/>
<path d="M43.4291 39.3321C43.0277 39.346 42.6615 39.0798 42.561 38.6796C42.5491 38.6367 42.4502 38.2313 42.4351 37.5977C41.2323 31.2449 29.8854 29.972 29.7672 29.9588C29.2925 29.9094 28.9468 29.4831 28.9961 29.0084C29.0455 28.5337 29.477 28.1878 29.9465 28.2374C30.4177 28.2869 39.6478 29.3179 43.0371 34.5259C43.2648 33.9965 43.5715 33.4488 43.9837 32.8974C46.6164 29.3844 52.1819 27.4571 60.5293 27.1674C61.0069 27.1508 61.408 27.5249 61.4246 28.0025C61.4411 28.4801 61.067 28.8812 60.5894 28.8978C50.9199 29.2333 46.9914 31.8021 45.3975 33.8983C44.3719 35.2471 44.1629 36.5624 44.1604 37.3906C44.2154 37.7265 44.2517 38.0735 44.2642 38.4351C44.2796 38.8764 43.9602 39.26 43.5223 39.3219C43.4896 39.3283 43.4585 39.3311 43.4291 39.3321Z" fill="white"/>
</svg>
