<svg width="28" height="28" viewBox="0 0 28 28" fill="none" xmlns="http://www.w3.org/2000/svg">
    <mask id="mask0_0_1" style="mask-type:luminance" maskUnits="userSpaceOnUse" x="0" y="0" width="28" height="28">
        <path d="M0 0H27.8679V27.8838H0V0Z" fill="white"/>
    </mask>
    <g mask="url(#mask0_0_1)">
        <mask id="mask1_0_1" style="mask-type:luminance" maskUnits="userSpaceOnUse" x="0" y="0" width="28" height="28">
            <path d="M13.934 0C6.23832 0 0 6.24186 0 13.9419C0 21.6419 6.23832 27.8838 13.934 27.8838C21.6296 27.8838 27.8679 21.6419 27.8679 13.9419C27.8679 6.24186 21.6296 0 13.934 0Z" fill="white"/>
        </mask>
        <g mask="url(#mask1_0_1)">
            <path d="M0 0H27.8679V27.8838H0V0Z" fill="#00223F"/>
        </g>
    </g>
    <mask id="mask2_0_1" style="mask-type:luminance" maskUnits="userSpaceOnUse" x="1" y="1" width="25" height="25">
        <path d="M1.93506 1.93457H25.9585V25.9733H1.93506V1.93457Z" fill="white"/>
    </mask>
    <g mask="url(#mask2_0_1)">
        <path d="M13.9343 1.93457C7.30198 1.93457 1.93506 7.30454 1.93506 13.9423C1.93506 20.5766 7.30198 25.9483 13.9343 25.9483C20.5665 25.9483 25.9335 20.5783 25.9335 13.9423C25.9335 7.30621 20.5665 1.93457 13.9343 1.93457ZM13.9343 24.5352C8.09658 24.5352 3.34565 19.7833 3.34565 13.9423C3.34565 8.0996 8.09658 3.34763 13.9343 3.34763C19.7719 3.34763 24.5229 8.0996 24.5229 13.9423C24.5229 19.7833 19.7719 24.5352 13.9343 24.5352Z" fill="white"/>
    </g>
    <path d="M20.2874 18.1797H13.1059C12.8155 17.3579 12.0309 16.7666 11.1111 16.7666C10.1896 16.7666 9.40502 17.3579 9.11456 18.1797H7.58044C7.19148 18.1797 6.87598 18.4953 6.87598 18.8862C6.87598 19.2754 7.19148 19.5911 7.58044 19.5911H9.11456C9.40502 20.4145 10.1896 21.0041 11.1111 21.0041C12.0309 21.0041 12.8155 20.4145 13.1059 19.5911H20.2874C20.6764 19.5911 20.9919 19.2754 20.9919 18.8862C20.9919 18.4953 20.6764 18.1797 20.2874 18.1797Z" fill="white"/>
    <path d="M20.2874 8.99802H13.1059C12.8155 8.17624 12.0309 7.58496 11.1111 7.58496C10.1896 7.58496 9.40502 8.17624 9.11456 8.99802H7.58044C7.19148 8.99802 6.87598 9.31371 6.87598 9.70456C6.87598 10.0937 7.19148 10.4094 7.58044 10.4094H9.11456C9.40502 11.2329 10.1896 11.8225 11.1111 11.8225C12.0309 11.8225 12.8155 11.2329 13.1059 10.4094H20.2874C20.6764 10.4094 20.9919 10.0937 20.9919 9.70456C20.9919 9.31371 20.6764 8.99802 20.2874 8.99802Z" fill="white"/>
    <path d="M20.2874 13.2353H18.7533C18.4628 12.4135 17.6783 11.8223 16.7568 11.8223C15.837 11.8223 15.0524 12.4135 14.7619 13.2353H7.58044C7.19148 13.2353 6.87598 13.551 6.87598 13.9419C6.87598 14.331 7.19148 14.6467 7.58044 14.6467H14.7619C15.0524 15.4702 15.837 16.0598 16.7568 16.0598C17.6783 16.0598 18.4628 15.4702 18.7533 14.6467H20.2874C20.6764 14.6467 20.9919 14.331 20.9919 13.9419C20.9919 13.551 20.6764 13.2353 20.2874 13.2353Z" fill="white"/>
</svg>
