<svg width="116" height="94" viewBox="0 0 116 94" fill="none" xmlns="http://www.w3.org/2000/svg">
<mask id="mask0_1500_1339" style="mask-type:luminance" maskUnits="userSpaceOnUse" x="0" y="0" width="57" height="65">
<path d="M0 0.414062H56.5188V64.1255H0V0.414062Z" fill="white"/>
</mask>
<g mask="url(#mask0_1500_1339)">
<path d="M27.1932 63.1312C20.4124 64.257 16.3392 63.8094 14.972 61.79C14.4796 61.2839 14.1357 60.7026 13.942 60.0479L13.2342 56.0309L7.56515 53.4887C6.83398 53.031 6.21967 52.4113 5.72221 51.6313C4.37505 49.1476 4.98937 46.5102 7.56515 43.7192C2.56549 41.2471 0.0431187 38.4544 -0.00195312 35.3393C-0.000283894 31.6079 2.35014 29.6219 7.051 29.3831C3.81081 24.6512 3.74237 18.3776 6.84567 10.5623C9.35635 6.55361 13.2693 8.10364 18.5861 15.2107C19.1253 7.14155 21.2187 2.24928 24.8628 0.532227C28.9794 0.590686 31.7071 4.8399 33.0476 13.2782C36.9839 9.1459 41.1255 9.34633 45.4758 13.8828C48.1701 17.0464 48.519 20.5874 46.5242 24.5075C52.3301 27.5925 55.6104 32.0873 56.3649 37.9918C56.6587 43.7392 53.8359 46.5236 47.8947 46.3482C48.5824 52.0489 47.4306 56.7958 44.4408 60.5857C42.5361 62.57 39.8168 62.2276 36.2844 59.5602C36.5365 63.8127 34.0575 64.8884 28.8492 62.7888L27.1932 63.1312Z" fill="#60811F"/>
</g>
<path d="M21.3831 53.8857C19.7137 54.1546 18.218 53.996 16.8942 53.4097C15.6072 52.7349 14.9962 51.833 15.0596 50.6988C14.0897 51.0646 13.2 51.0195 12.3887 50.5635C11.559 50.1309 11.0733 49.4795 10.9297 48.611C11.0415 46.5832 11.8612 45.855 13.392 46.4246C12.6625 46.1423 12.4905 45.3773 12.8761 44.1313C13.2718 43.0773 13.8961 42.5445 14.7475 42.5361C15.7875 42.5545 16.7039 43.5099 17.4969 45.4023C17.5553 45.4174 17.5937 45.4074 17.6154 45.3756C17.7723 45.0031 18.0277 44.6674 18.3766 44.3684C18.637 44.1379 18.9442 43.9776 19.2981 43.8857C19.9474 43.7304 20.5284 43.9408 21.0425 44.5154C21.5801 45.1668 21.8605 45.88 21.8872 46.6584C21.7553 47.8593 21.3948 48.7179 20.8055 49.2306L21.3831 53.8857Z" fill="#87A540"/>
<path d="M21.5729 35.231C19.6198 34.9888 18.4179 33.9683 17.9671 32.1694C17.7 30.003 18.3561 28.5131 19.9353 27.6997C18.9971 25.4532 18.6683 23.6893 18.947 22.4082C19.5013 19.7358 20.9686 18.311 23.3474 18.134C23.486 16.467 23.9233 15.2627 24.6578 14.5178C25.6695 13.397 26.6928 13.1532 27.7278 13.7896C28.5507 14.1804 29.0415 15.6536 29.2035 18.2091C31.4971 18.2843 33.0529 18.914 33.8726 20.0966C34.3784 20.8181 34.6822 21.5581 34.784 22.3197C34.8174 22.7506 34.764 23.1749 34.6221 23.5891L33.6856 25.1542C34.4702 26.5956 34.7824 27.5828 34.6255 28.1123C34.5553 28.8706 34.1146 29.6372 33.3067 30.4122C33.0396 30.738 32.1615 31.1221 30.6758 31.5614C30.6374 33.1799 30.1333 34.2238 29.1634 34.6899C28.0416 35.2945 26.641 35.1692 24.9633 34.3157C24.5226 34.902 24.1654 35.1475 23.8933 35.054C23.2022 34.9187 22.8349 34.5479 22.7932 33.9416L21.5729 35.231Z" fill="#87A540"/>
<path d="M29.7864 46.8596C28.5044 46.5322 27.7348 45.8925 27.4777 44.9354C27.3626 44.4844 27.4828 43.9516 27.8383 43.3369C27.4544 42.7657 27.3075 42.1861 27.3943 41.5982C27.5579 40.8482 27.8483 40.2987 28.2673 39.9496C28.7715 39.6122 29.4342 39.6723 30.2572 40.1283C30.8198 38.919 31.5142 38.3611 32.3422 38.458C32.6427 38.4898 32.9315 38.6384 33.2119 38.904L34.6008 40.6177C34.6759 40.6595 34.7928 40.6862 34.948 40.6945C35.8511 40.6411 36.3887 40.6511 36.5589 40.7246C36.8661 40.7897 37.215 40.9568 37.6073 41.2223C39.1681 42.5502 39.9477 44.3692 39.946 46.6808C39.8525 49.2447 38.9978 51.0887 37.3836 52.2128C34.5991 54.0351 31.6377 52.5552 28.4977 47.7782L29.7864 46.8596Z" fill="#87A540"/>
<path d="M32.2674 91.0575C28.4162 91.2429 25.9105 90.3476 24.752 88.3716C24.2095 87.0922 23.9724 85.7159 24.0409 84.2427C24.6936 77.792 25.1093 71.8993 25.2912 66.5594C25.2762 64.2527 25.0108 62.2767 24.495 60.6332C23.9891 58.6071 22.9024 56.541 21.2347 54.4331C21.0611 53.8251 18.6022 51.9577 13.8579 48.8293C13.06 48.1762 12.6143 47.4914 12.5225 46.7731C15.4922 45.5805 18.0012 45.9547 20.0495 47.8972C20.173 47.6868 20.1096 47.2692 19.8575 46.6445C18.6723 44.3546 17.9178 42.6559 17.5972 41.5468C17.4086 40.9522 17.4019 40.6532 17.5789 40.6465C18.3134 40.8536 19.0863 41.3046 19.9009 42.0011C20.6688 43.0467 21.3983 44.3245 22.0928 45.8294C22.2747 46.0917 22.4216 46.0983 22.5335 45.8511C22.7038 45.2983 22.7121 44.2059 22.5585 42.5724C22.5902 42.0796 22.0811 39.479 21.0311 34.7721C20.8842 33.8819 20.8324 32.8596 20.8792 31.7055C21.208 28.1411 22.0794 25.4736 23.4917 23.7031C23.9124 23.8301 24.1861 24.4197 24.3113 25.4703C24.3781 25.9931 24.4232 26.7213 24.4482 27.6567C24.318 32.2466 24.323 34.7287 24.4666 35.1045C24.9958 39.3871 25.4782 41.9209 25.9139 42.7043C26.3679 44.241 27.5799 44.6753 29.5464 44.0055C30.2074 48.243 31.7466 50.1254 34.1654 49.6544L32.2674 91.0575Z" fill="#955F26"/>
<mask id="mask1_1500_1339" style="mask-type:luminance" maskUnits="userSpaceOnUse" x="30" y="8" width="78" height="86">
<path d="M30.8779 8.53906H107.374V93.5901H30.8779V8.53906Z" fill="white"/>
</mask>
<g mask="url(#mask1_1500_1339)">
<path d="M31.1953 41.3555V93.5736H107.265V41.3555L68.1444 8.71973L31.1953 41.3555Z" fill="#F8D48A"/>
</g>
<mask id="mask2_1500_1339" style="mask-type:luminance" maskUnits="userSpaceOnUse" x="22" y="0" width="94" height="42">
<path d="M22.3311 0H115.959V41.4632H22.3311V0Z" fill="white"/>
</mask>
<g mask="url(#mask2_1500_1339)">
<path d="M33.3684 41.3545H22.501L68.144 0.0166016L115.959 41.3545H105.093L68.144 10.8952L33.3684 41.3545Z" fill="#D15904"/>
</g>
<path d="M54.8827 18.8682L54.8794 18.8765C54.8644 18.8949 54.8193 18.9082 54.7442 18.9183C54.6691 18.93 54.5806 18.9333 54.4787 18.9316C54.3803 18.9283 54.3035 18.9216 54.245 18.9082C54.225 18.9032 54.21 18.8982 54.1983 18.8932L54.1833 18.8849C54.1749 18.8799 54.1699 18.8748 54.1699 18.8682C54.1733 18.8498 54.2083 18.8348 54.2751 18.8231C54.3419 18.8114 54.4253 18.8047 54.5255 18.8047C54.6273 18.8047 54.7108 18.8114 54.7776 18.8231C54.8443 18.8348 54.8794 18.8498 54.8827 18.8682Z" fill="#C95C10"/>
<path d="M76.8379 52.2334V69.6395C82.6338 69.6395 88.4298 69.6395 94.2257 69.6395C94.2257 63.8386 94.2257 58.036 94.2257 52.2334H76.8379Z" fill="#B2D8FF"/>
<path d="M77.5643 69.6395H76.1104V52.2334C76.1104 52.0413 76.1871 51.8559 76.324 51.719C76.4609 51.5837 76.6445 51.5068 76.8382 51.5068H94.226C94.6266 51.5068 94.9522 51.8325 94.9522 52.2334V69.6395C94.9522 70.042 94.6266 70.3677 94.226 70.3677C93.8237 70.3677 93.4982 70.042 93.4982 69.6395V52.2334L94.226 52.9617H76.8382L77.5643 52.2334V69.6395C77.5643 70.042 77.2388 70.3677 76.8382 70.3677C76.4359 70.3677 76.1104 70.042 76.1104 69.6395C76.1104 69.2386 76.4359 68.9129 76.8382 68.9129C77.2388 68.9129 77.5643 69.2386 77.5643 69.6395Z" fill="#D15904"/>
<path d="M74.665 69.6396H96.3998C96.3998 70.3662 96.3998 71.0911 96.3998 71.816C89.1549 71.816 81.91 71.816 74.665 71.816V69.6396Z" fill="#86491E"/>
<path d="M87.7989 20.4561L87.4183 13.3123L86.4351 13.3557L86.3232 8.27637L97.4727 8.29307L97.5979 13.1035L96.0421 13.1686L96.3025 25.9263L87.7989 20.4561Z" fill="#C95C10"/>
<path d="M81.7274 63.7884L81.729 63.7868H81.7274C83.1313 62.1733 83.9359 61.2646 84.1379 61.0592L84.1362 61.0609L88.8404 56.2037C88.9456 56.0951 89.1175 56.0918 89.226 56.197C89.3346 56.3022 89.3379 56.4759 89.2327 56.5828L84.5285 61.4417L84.5269 61.4434C84.3315 61.6405 83.5353 62.5407 82.1397 64.1459L82.138 64.1476C82.0395 64.2611 81.8676 64.2728 81.7524 64.1743C81.6389 64.0757 81.6272 63.902 81.7274 63.7884Z" fill="white" fill-opacity="0.702"/>
<path d="M83.7045 65.3618C85.1151 63.7333 86.3053 62.4004 87.2735 61.3614C87.3754 61.2512 87.549 61.2445 87.6592 61.3481C87.7693 61.45 87.776 61.6237 87.6725 61.7339C86.7093 62.7678 85.5241 64.0957 84.1168 65.7209C84.0183 65.8345 83.8464 65.8462 83.7312 65.7476C83.6177 65.6491 83.606 65.477 83.7045 65.3618Z" fill="white" fill-opacity="0.702"/>
<mask id="mask3_1500_1339" style="mask-type:luminance" maskUnits="userSpaceOnUse" x="43" y="49" width="24" height="45">
<path d="M43.2715 49.5879H66.7758V93.5899H43.2715V49.5879Z" fill="white"/>
</mask>
<g mask="url(#mask3_1500_1339)">
<path d="M55.0741 49.748C48.8741 49.748 43.776 54.7055 43.6291 60.944C43.6274 61.0008 43.6274 61.0592 43.6257 61.116L43.3486 93.573H66.257L66.5324 61.3131C66.5892 55.0596 61.6162 49.9 55.3512 49.7514C55.2577 49.7497 55.1659 49.748 55.0741 49.748Z" fill="#87491F"/>
</g>
<path d="M64.1734 74.148L64.1567 74.4102C64.0749 74.9414 63.8212 75.3673 63.3988 75.688C62.9731 76.0087 62.4707 76.1423 61.8897 76.0889C61.3355 76.0104 60.8898 75.7682 60.5543 75.3656C60.2187 74.9598 60.0785 74.4787 60.1369 73.9225C60.2187 73.3914 60.4725 72.9654 60.8948 72.6447C61.3188 72.324 61.823 72.1904 62.4039 72.2439C62.9581 72.3224 63.4038 72.5646 63.7394 72.9671C63.8479 73.0974 63.9363 73.241 64.0064 73.3947L64.0949 73.6336C64.145 73.7972 64.17 73.9676 64.1734 74.148Z" fill="#D05903"/>
</svg>
