<svg width="135" height="228" viewBox="0 0 135 228" fill="none" xmlns="http://www.w3.org/2000/svg">
<path d="M50.7652 213.829C57.9702 215.695 65.3052 214.715 72.4275 216.024C66.7062 217.079 60.8502 216.957 55.1816 218.434C61.1192 219.044 67.0565 219.654 73.454 220.311C69.4767 221.91 41.9117 221.922 36.2405 220.307C40.7337 218.959 45.6069 219.324 50.0366 217.452C42.457 214.72 34.5028 215.374 26.7014 214.533C33.5608 213.21 40.6131 213.184 47.439 211.486C42.1089 210.06 36.6721 209.552 31.2119 209.418C25.7772 209.284 20.3367 209.388 14.886 209.01C26.3414 207.432 37.9712 207.438 49.1961 204.237C41.0615 202.627 32.6882 203.186 24.5751 201.067C29.4448 200.704 34.3143 200.342 39.184 199.98C26.3595 199.462 13.5992 197.996 0.762406 197.515C7.92724 195.781 15.3758 195.853 22.554 194.127C18.3554 193.165 14.1267 192.854 9.89858 192.568C7.06049 192.376 4.21636 192.217 1.37329 192.182C-0.20608 192.162 -0.237277 191.58 0.353151 190.399C1.45273 188.2 3.06565 187.444 5.85026 187.985C6.72961 188.155 7.43303 188.511 7.54708 187.04C7.88765 182.642 10.8154 179.872 15.4971 179.542C17.0547 179.432 18.6611 179.024 20.2138 179.771C20.5111 178.741 19.0819 178.532 19.5767 177.466C20.9507 177.639 21.5981 179.186 23.4551 179.761C22.4286 178.343 21.6819 177.312 20.8813 176.206C21.6591 175.91 21.8626 176.791 22.4161 176.741C22.6046 175.999 21.8052 175.633 21.8018 174.989C22.1924 174.718 23.3497 176.02 25.2982 178.921C27.129 177.588 24.9159 176.687 24.9463 175.124C26.0989 176.608 27.059 177.844 27.9444 178.984C29.2427 178.747 27.2698 177.55 28.5796 177.468C30.1713 177.367 28.217 176.317 29.1202 176.005C29.686 176.96 30.5827 176.914 30.589 175.829C30.601 173.75 33.4858 173.994 33.3615 171.995C36.6466 172.833 33.5487 170.644 34.374 170.202C34.7723 170.551 35.2605 170.979 35.5536 171.236C36.7379 171.637 34.6423 169.091 36.7074 170.394C36.9856 170.57 37.1303 170.328 36.4398 168.504C36.1553 167.754 35.9259 166.982 35.7717 166.146C36.3076 167.263 37.4436 167.641 38.3781 168.534C38.4945 166.686 37.516 165.305 37.0289 163.634C38.3157 164.236 38.0152 165.779 39.0382 166.414C39.459 165.374 38.3524 164.737 38.4433 163.376C39.1719 164.618 39.718 165.549 40.2642 166.481C40.3748 164.142 38.8177 162.24 39.1659 159.892C39.9637 160.486 40.4522 161.341 40.9731 162.187C41.5213 163.077 42.1508 163.917 42.9945 164.699C41.8802 162.532 42.3553 160.181 42.1563 157.854C42.8632 159.58 43.57 161.306 44.2771 163.032C44.1366 161.343 44.3138 159.774 44.8064 158.016C46.1325 160.032 46.0922 162.378 47.15 164.37C47.3173 162.055 46.492 159.76 47.0761 157.28C47.656 159.87 47.8307 162.396 49.2307 164.631C49.2307 162.784 49.2307 160.937 49.2307 159.09C50.0403 160.857 49.8636 162.858 50.9608 164.698C51.9621 163.105 51.0628 161.4 51.7731 159.642C52.0531 161.285 52.2846 162.643 52.5161 164.001C52.7067 163.998 52.897 163.995 53.0876 163.992C53.204 162.318 53.3207 160.644 53.4534 158.735C54.3867 160.604 53.7444 162.483 54.7278 164.203C54.9229 162.466 55.1926 160.734 55.3012 158.992C56.1942 144.647 57.0502 130.299 57.9311 115.953C59.0171 98.2692 60.12 80.5865 61.2036 62.9031C61.3211 60.986 61.3353 59.0624 61.4448 57.1448C61.5086 56.0311 61.1176 55.2891 60.3799 54.3641C57.9788 51.3538 57.1383 47.9633 58.2554 44.0411C58.8015 42.1241 58.5556 39.9522 58.4909 37.9011C58.45 36.6057 58.801 36.0507 60.1413 36.1946C60.8434 36.2701 61.5636 36.1566 62.2739 36.1789C63.1928 36.2077 63.5003 35.789 63.4927 34.889C63.4552 30.406 63.4641 25.9224 63.4526 21.4392C63.4518 21.1555 63.5292 20.7247 63.38 20.6101C61.1124 18.8685 63.349 17.7791 64.123 16.84C66.7736 13.6239 70.2672 11.6287 74.3144 10.5781C75.0443 10.3886 76.1133 10.5912 76.2839 9.35505C76.4349 8.26098 75.5561 8.15742 74.9282 7.74658C73.239 6.64124 73.0111 5.01783 73.5132 3.22898C74.0473 1.32582 75.8836 -0.0611106 77.8093 0.00207462C79.7832 0.0668329 81.2528 1.01644 81.8261 2.93219C82.3563 4.704 82.2511 6.38797 80.7554 7.84543C79.4626 9.1052 79.9046 10.3149 81.6557 10.6075C86.6662 11.4446 90.3404 14.3194 93.3101 18.2429C93.8549 18.9626 94.5565 19.8954 92.7553 20.0881C91.9947 20.1694 92.1814 20.962 92.1801 21.4974C92.1707 25.8383 92.2239 30.1799 92.1594 34.5198C92.1376 35.9801 92.7267 36.4148 94.0691 36.2261C95.9358 35.9636 96.7811 36.6954 96.5632 38.6735C96.1516 42.414 97.5734 46.0384 97.3139 49.7996C97.1838 51.6862 96.1689 53.1141 95.1134 54.3356C94.2815 55.2983 93.8832 56.1027 93.8927 57.2924C93.9674 66.7621 94.7099 76.2003 95.2421 85.6471C96.1387 101.56 97.1371 117.466 98.1111 133.375C98.8153 144.879 99.5413 156.383 100.28 167.886C100.37 169.297 100.659 170.695 100.747 172.106C100.855 173.828 101.514 172.848 102.421 172.136C101.319 174.154 102.021 174.609 103.744 175.095C108.779 176.514 113.722 178.264 118.696 179.901C121.769 180.912 124.614 182.331 126.962 184.622C128.619 186.238 130.667 186.929 132.924 187.184C133.496 187.249 134.464 187.146 134.422 188C134.387 188.724 133.523 188.446 132.994 188.503C132.119 188.598 131.15 188.324 130.775 189.622C130.593 190.251 129.766 189.885 129.227 189.935C121.549 190.648 114.026 192.051 106.836 194.944C106.51 195.075 106.202 195.259 105.906 195.451C105.811 195.513 105.784 195.679 105.705 195.839C106.865 196.53 108.23 196.059 109.748 196.612C106.861 197.24 104.251 197.108 101.641 196.96C93.4656 196.494 85.403 194.961 77.2267 194.461C63.967 193.649 50.7713 194.157 37.6198 195.982C37.506 195.997 37.4064 196.113 37.23 196.227C59.494 197.954 81.8151 195.604 104.002 198.338C98.383 199.642 92.6174 199.593 86.9541 200.465C94.255 201.035 101.577 201.209 108.861 202.154C100.055 203.662 91.0834 203.416 82.2199 204.805C92.3144 208.531 103.017 208.088 113.502 209.322C92.629 210.759 71.5049 208.411 50.7652 213.829ZM41.2969 190.499C31.1781 189.017 21.0698 189.99 10.9596 190.52C21.0721 191.508 31.1841 192.555 41.2969 190.499ZM46.9395 207.982C50.2663 209.39 70.2559 209.516 74.0496 208.134C64.8526 207.04 56.0649 206.388 46.9395 207.982ZM72.8308 23.0938C72.8302 26.7194 72.6643 26.0213 75.4903 26.0467C76.8169 26.0585 78.5969 26.7635 78.4304 24.1186C78.1635 19.8753 78.9972 20.2132 75.7782 20.1658C72.1153 20.1115 72.9288 20.0826 72.8308 23.0938ZM72.8142 33.6397C72.9723 34.6792 72.0972 36.6629 74.6264 36.1621C76.0579 35.8787 78.771 37.5781 78.3732 34.0791C78.2138 32.6772 79.4154 30.4269 76.291 30.5992C72.4225 30.8123 72.846 30.1598 72.8142 33.6397ZM79.0305 23.3056C79.4822 24.0591 78.1163 25.5347 79.8283 26.0339C82.7901 26.8972 83.9275 26.0134 83.9288 22.9716C83.9291 22.4053 83.9188 21.8385 83.944 21.2732C83.9686 20.7213 83.8305 20.3771 83.2222 20.1836C80.446 19.3011 79.0732 20.2507 79.0305 23.3056ZM78.9799 33.4894C78.557 35.4466 79.1291 36.4206 81.4601 36.2531C83.0877 36.1359 84.079 36.1275 83.9527 34.0096C83.7518 30.6432 83.8832 30.8037 81.2577 30.5848C78.8347 30.3826 78.7324 31.6796 78.9799 33.4894ZM83.47 92.3927C83.1779 91.6154 84.0213 90.2969 82.7107 89.7303C80.8076 88.9076 79.3659 89.9531 79.3711 92.0364C79.3729 92.743 79.3816 93.4496 79.3834 94.1561C79.385 94.7148 79.5876 95.0192 80.2024 95.1627C82.6727 95.7389 83.5413 95.0701 83.47 92.3927ZM72.1504 23.1874C71.7986 22.2443 72.7434 20.9531 71.6171 20.2995C69.8736 19.2877 68.1595 20.4502 68.1537 22.4989C68.1524 22.921 68.2135 23.3533 68.1443 23.7636C67.8326 25.6138 68.5515 26.1154 70.425 26.1219C73.0827 26.1314 71.7792 24.293 72.1504 23.1874ZM83.9962 149.816C83.9962 149.45 83.9807 149.236 83.9988 149.026C84.1137 147.69 83.9904 146.782 82.173 146.777C80.4563 146.773 79.87 147.331 80.0853 148.953C80.1406 149.37 80.1411 149.81 80.0719 150.223C79.7523 152.129 80.5661 152.607 82.4124 152.554C84.8963 152.483 83.632 150.7 83.9962 149.816ZM72.04 33.5518C71.7873 32.6811 72.7183 31.392 71.4711 30.7678C69.6411 29.8522 68.1705 30.891 68.1703 32.9729C68.1703 33.6064 68.2185 34.2443 68.1574 34.8719C68.0578 35.8968 68.5111 36.0819 69.4772 36.2012C71.5815 36.4607 72.5862 35.8737 72.04 33.5518ZM88.1061 23.3452C88.1061 22.9165 88.1135 22.6329 88.1048 22.35C88.0749 21.3862 88.6625 20.2048 86.7905 20.1566C85.1251 20.1136 84.4484 20.6712 84.5502 22.2962C84.5856 22.8594 84.5948 23.4398 84.4998 23.9928C84.2091 25.6883 84.8692 26.1665 86.5666 26.1246C89.1113 26.0616 87.6433 24.1897 88.1061 23.3452ZM80.0892 143.476C80.1839 144.852 79.574 146.458 81.904 146.246C83.1268 146.134 84.0279 146.254 83.9689 144.496C83.8562 141.13 83.9679 141.187 81.4093 141.086C78.9988 140.991 80.7255 142.887 80.0892 143.476ZM88.0393 33.5925C88.0393 33.2254 88.022 33.0115 88.0422 32.8012C88.158 31.5928 88.2309 30.623 86.4292 30.6141C84.7421 30.6057 84.3077 31.2693 84.4794 32.749C84.5279 33.1672 84.5473 33.6114 84.4618 34.019C84.0264 36.1015 85.1411 36.3587 86.8301 36.2033C89.0326 36.0001 87.5477 34.3166 88.0393 33.5925ZM83.2778 86.5574C83.4973 84.854 83.4168 83.6933 81.0967 83.8103C78.1881 83.9571 79.6516 85.9578 79.3939 87.1858C78.9783 89.1663 80.36 89.0337 81.7123 89.1113C84.0151 89.2434 83.1507 87.5933 83.2778 86.5574ZM75.3888 30.2368C75.7449 30.2368 75.9562 30.229 76.1665 30.2382C77.341 30.2901 78.3811 30.3763 78.385 28.6037C78.3887 26.9038 77.6056 26.5535 76.1793 26.7215C75.763 26.7706 75.322 26.8109 74.918 26.7289C72.6897 26.2774 72.6651 27.7128 72.8486 29.196C73.0859 31.1102 74.6673 29.7961 75.3888 30.2368ZM87.6934 149.612C87.701 149.612 87.7089 149.612 87.7165 149.612C87.7165 149.328 87.6871 149.04 87.7215 148.759C87.883 147.447 87.4714 146.826 85.994 146.835C84.4217 146.845 84.5289 147.785 84.5515 148.811C84.5701 149.664 84.5955 150.518 84.5727 151.37C84.5415 152.539 85.3165 152.538 86.1466 152.535C86.9968 152.533 87.7406 152.452 87.6971 151.318C87.6753 150.75 87.6934 150.18 87.6934 149.612ZM67.4307 23.4537C67.4307 22.9283 67.4259 22.5731 67.4314 22.2181C67.4485 21.162 67.7065 20.1026 65.9459 20.1186C64.2593 20.1338 64.1275 21.027 64.1925 22.2852C64.2253 22.9226 64.2769 23.5757 64.1788 24.1996C63.902 25.962 64.8338 26.2252 66.2789 26.0824C68.4891 25.864 66.916 24.1585 67.4307 23.4537ZM80.742 30.2856C82.5943 30.2022 84.0227 30.6781 83.9542 28.3961C83.8824 26.0024 82.2991 26.8705 81.151 26.7719C79.9539 26.6691 78.8588 26.4722 78.8882 28.4648C78.918 30.5085 80.0221 30.3464 80.742 30.2856ZM84.4283 143.68C84.7793 144.653 83.6792 146.342 86.0192 146.337C88.5429 146.331 87.5749 144.54 87.7359 143.352C87.9116 142.053 87.7868 141.07 85.94 141.118C83.7843 141.174 84.6855 142.663 84.4283 143.68ZM88.7333 22.9907C88.7333 23.5046 88.7442 23.8588 88.7311 24.2125C88.6931 25.2368 88.5835 26.1862 90.1595 26.1555C91.6917 26.1256 91.6225 25.2132 91.5858 24.1753C91.5533 23.2558 91.554 22.3348 91.5553 21.4142C91.5564 20.6366 91.2116 20.3178 90.408 20.2415C87.6378 19.9783 89.1918 22.1279 88.7333 22.9907ZM67.4091 33.6134C67.4091 33.1769 67.3848 32.8909 67.4133 32.6101C67.5366 31.3946 67.3544 30.6335 65.781 30.6105C64.0727 30.5853 64.199 31.57 64.2318 32.6672C64.2465 33.1633 64.3084 33.6727 64.2242 34.1541C63.8608 36.2292 65.1098 36.4198 66.5885 36.0937C68.2437 35.7287 67.0376 34.3177 67.4091 33.6134ZM91.6591 33.7833C91.6591 33.3104 91.6649 33.027 91.6581 32.7438C91.6337 31.7286 91.9806 30.6401 90.1781 30.6686C88.3856 30.697 88.7534 31.7884 88.7317 32.797C88.7194 33.3633 88.7238 33.9299 88.7275 34.4965C88.7377 36.0168 89.8019 36.7473 91.1178 36.0706C92.2286 35.4993 91.4363 34.4115 91.6591 33.7833ZM86.838 92.5448C86.838 92.1009 86.8348 91.8172 86.8385 91.5338C86.8511 90.5992 86.9811 89.6965 85.5299 89.6558C83.9915 89.6128 84.0062 90.5375 84.0305 91.5857C84.0486 92.3652 84.1 93.1467 84.0638 93.9238C84.0198 94.8732 84.4747 95.1031 85.3503 95.1286C87.743 95.1978 86.3886 93.3187 86.838 92.5448ZM83.9736 86.3154C83.9875 86.3154 84.0017 86.3154 84.0156 86.3154C84.0156 86.667 83.9873 87.0215 84.0214 87.3696C84.0948 88.12 83.6425 89.1661 85.1309 89.0866C86.2913 89.0248 87.0304 88.7636 86.838 87.3791C86.732 86.6177 86.7391 85.8322 86.7766 85.0617C86.828 84.0059 86.2837 83.7505 85.3496 83.7613C84.4427 83.7718 83.8245 83.9482 83.965 85.0509C84.018 85.4659 83.9736 85.8935 83.9736 86.3154ZM61.2516 40.6498C61.2144 41.4969 61.207 42.3466 61.1305 43.1903C61.0702 43.8547 61.1808 44.3014 61.9744 44.3091C62.6435 44.3153 63.2707 44.3439 63.2678 43.3906C63.2623 41.4825 63.3006 39.5744 63.2856 37.6665C63.2809 37.0357 63.0045 36.6054 62.2542 36.6201C61.5222 36.6343 61.2553 37.0131 61.2553 37.6799C61.2558 38.6696 61.2558 39.659 61.2516 40.6498ZM70.1382 30.1726C71.2925 30.3061 72.1834 30.3658 72.1884 28.6879C72.1931 27.0582 71.6145 26.6694 70.1028 26.6972C68.7678 26.7218 68.1186 26.8796 68.1118 28.4886C68.1045 30.1742 68.8635 30.3747 70.1382 30.1726ZM95.9345 40.4401C95.9235 40.4401 95.9125 40.4401 95.9015 40.4401C95.9015 39.4456 95.9151 38.4509 95.8955 37.457C95.8863 36.999 95.7025 36.6146 95.17 36.5908C94.5799 36.564 94.2065 36.8587 94.2015 37.4628C94.1855 39.4517 94.1889 41.4411 94.2018 43.4302C94.2049 43.9077 94.4343 44.232 94.9631 44.2637C95.5643 44.2996 95.9222 44.0456 95.9311 43.4237C95.9447 42.4292 95.9345 41.4345 95.9345 40.4401ZM86.1964 26.7834C84.595 26.3941 84.5992 27.3856 84.541 28.5725C84.4791 29.8362 84.7992 30.3753 86.1502 30.2869C87.2863 30.2125 88.2071 30.2583 88.1308 28.6381C88.0663 27.2677 87.8046 26.42 86.1964 26.7834ZM91.5781 28.5662C91.6072 27.5846 91.6704 26.6405 90.1149 26.6646C88.7335 26.6861 88.6897 27.4163 88.7259 28.431C88.7592 29.3675 88.5856 30.2856 90.0704 30.2156C91.2211 30.1613 91.8477 29.8695 91.5781 28.5662ZM67.4021 28.5998C67.5174 27.4963 67.4619 26.6552 65.9499 26.7095C64.7373 26.753 64.1445 27.0194 64.2342 28.3762C64.3036 29.4272 64.1757 30.3276 65.7202 30.235C66.8874 30.1647 67.6918 29.9964 67.4021 28.5998ZM92.064 40.3735C92.049 40.3735 92.0338 40.3735 92.0189 40.3735C92.0189 41.3601 92.0055 42.3472 92.0249 43.3332C92.0335 43.7705 92.1529 44.1869 92.6958 44.2346C93.2336 44.2818 93.4929 43.9268 93.4989 43.4719C93.5264 41.4309 93.5227 39.389 93.5036 37.3477C93.5002 36.9735 93.2726 36.6938 92.8523 36.6581C92.3052 36.6117 92.0813 36.9397 92.0705 37.4145C92.0482 38.4006 92.064 39.3874 92.064 40.3735ZM60.571 40.4681C60.5818 40.4681 60.5925 40.4681 60.6032 40.4681C60.6032 39.5502 60.6148 38.6321 60.5988 37.7142C60.5896 37.1985 60.5028 36.6681 59.8243 36.687C59.1482 36.7056 59.0939 37.2601 59.0931 37.7577C59.0905 39.6643 59.107 41.5711 59.133 43.4777C59.1392 43.9425 59.3309 44.314 59.8752 44.3015C60.4286 44.2886 60.5603 43.8843 60.5668 43.4339C60.5807 42.4452 60.571 41.4565 60.571 40.4681ZM64.0328 40.4194C64.0171 40.4194 64.0014 40.4194 63.9856 40.4194C63.9856 41.4099 63.9767 42.4004 63.9896 43.3906C63.9958 43.8762 64.2271 44.2105 64.7541 44.1774C65.2498 44.1462 65.2215 43.711 65.2236 43.3857C65.2354 41.4759 65.2333 39.5657 65.2074 37.6563C65.2016 37.2263 65.0346 36.7601 64.5029 36.8191C64.0971 36.8642 64.0381 37.2971 64.0352 37.6602C64.0281 38.5799 64.0328 39.4996 64.0328 40.4194ZM90.4691 44.0935C90.7389 44.0841 91.0084 44.0747 91.2782 44.0655C91.2782 41.8894 91.2816 39.7131 91.2748 37.537C91.2738 37.1754 91.2189 36.7979 90.7318 36.8113C90.4476 36.8191 90.1283 36.9169 90.1438 37.28C90.241 39.5518 90.3585 41.8225 90.4691 44.0935ZM66.3007 36.8983C66.1607 36.9022 66.0207 36.9062 65.8809 36.9101C65.8809 39.2865 65.8809 41.6626 65.8809 44.039C66.0209 44.0325 66.1609 44.0259 66.3007 44.0196C66.3007 41.6456 66.3007 39.2721 66.3007 36.8983Z" fill="white"/>
<path d="M31.0527 225.396C32.8476 224.109 34.8965 223.961 36.893 223.692C45.1926 222.576 53.4816 223.407 61.7799 223.816C65.9928 224.023 70.2241 223.852 74.4494 224.361C60.0531 228.321 45.5688 227.31 31.0527 225.396Z" fill="white"/>
</svg>
