<svg width="374" height="262" viewBox="0 0 374 262" fill="none" xmlns="http://www.w3.org/2000/svg">
    <mask id="mask0_24_43460" style="mask-type:luminance" maskUnits="userSpaceOnUse" x="0" y="0" width="374" height="262">
        <path d="M0 0H373.504V261.218H0V0Z" fill="white"/>
    </mask>
    <g mask="url(#mask0_24_43460)">
        <path d="M824.63 13.0697C742.846 40.3989 684.656 57.1135 620.37 71.6116C546.108 88.4046 493.3 95.2963 431.151 96.3268C364.015 97.3557 311.366 91.8905 229.661 75.176C196.727 68.4414 158.488 59.8077 77.1791 40.7163C-3.4966 21.7836 -53.3731 11.7234 -84.2508 8.31773C-139.115 2.13934 -194.851 7.04998 -247.105 22.6555L-256.842 25.5067L-257.001 143.38L-257.239 261.333H863.424V130.626C863.424 58.6986 863.344 -0.000299945 863.265 0.0782037C863.107 0.158377 845.769 6.01941 824.63 13.0697Z" fill="#009EE0"/>
    </g>
</svg>
