<svg width="483" height="262" viewBox="0 0 483 262" fill="none" xmlns="http://www.w3.org/2000/svg">
    <mask id="mask0_10_738" style="mask-type:luminance" maskUnits="userSpaceOnUse" x="0" y="0" width="483" height="262">
        <path d="M0 0H482.496V261.218H0V0Z" fill="white"/>
    </mask>
    <g mask="url(#mask0_10_738)">
        <path d="M432.277 13.0697C326.628 40.3989 251.458 57.1135 168.412 71.6116C72.4799 88.4046 4.26227 95.2963 -76.0228 96.3268C-162.749 97.3557 -230.762 91.8905 -336.308 75.176C-378.853 68.4414 -428.251 59.8077 -533.286 40.7163C-637.503 21.7836 -701.934 11.7234 -741.822 8.31773C-812.697 2.13934 -884.697 7.04998 -952.198 22.6555L-964.777 25.5067L-964.982 143.38L-965.29 261.333H482.391V130.626C482.391 58.6986 482.288 -0.000299945 482.186 0.0782037C481.981 0.158377 459.584 6.01941 432.277 13.0697Z" fill="#009EE0"/>
    </g>
</svg>
