<svg width="10" height="10" viewBox="0 0 10 10" fill="none" xmlns="http://www.w3.org/2000/svg">
<path d="M9.88732 4.94366C9.88732 5.101 9.82482 5.25189 9.71357 5.36314C9.60231 5.4744 9.45142 5.5369 9.29408 5.5369H5.5369V9.29408C5.5369 9.45142 5.4744 9.60231 5.36314 9.71357C5.25189 9.82482 5.101 9.88732 4.94366 9.88732C4.78632 9.88732 4.63543 9.82482 4.52418 9.71357C4.41292 9.60231 4.35042 9.45142 4.35042 9.29408V5.5369H0.593239C0.435903 5.5369 0.28501 5.4744 0.173756 5.36314C0.0625018 5.25189 0 5.101 0 4.94366C0 4.78632 0.0625018 4.63543 0.173756 4.52418C0.28501 4.41292 0.435903 4.35042 0.593239 4.35042H4.35042V0.593239C4.35042 0.435903 4.41292 0.28501 4.52418 0.173756C4.63543 0.0625018 4.78632 0 4.94366 0C5.101 0 5.25189 0.0625018 5.36314 0.173756C5.4744 0.28501 5.5369 0.435903 5.5369 0.593239V4.35042H9.29408C9.45142 4.35042 9.60231 4.41292 9.71357 4.52418C9.82482 4.63543 9.88732 4.78632 9.88732 4.94366Z" fill="#F8F8F9"/>
</svg>
