<svg width="24" height="24" viewBox="0 0 24 24" fill="none" xmlns="http://www.w3.org/2000/svg">
<path d="M22.3071 11.0773V22.1539C22.3071 22.6435 22.1126 23.1131 21.7664 23.4593C21.4202 23.8055 20.9506 24 20.461 24H3.8461C3.35648 24 2.88692 23.8055 2.54071 23.4593C2.1945 23.1131 2 22.6435 2 22.1539V11.0773C2 10.5877 2.1945 10.1181 2.54071 9.77193C2.88692 9.42572 3.35648 9.23122 3.8461 9.23122H6.61525C6.86005 9.23122 7.09483 9.32847 7.26794 9.50157C7.44105 9.67468 7.53829 9.90946 7.53829 10.1543C7.53829 10.3991 7.44105 10.6339 7.26794 10.807C7.09483 10.9801 6.86005 11.0773 6.61525 11.0773H3.8461V22.1539H20.461V11.0773H17.6918C17.447 11.0773 17.2122 10.9801 17.0391 10.807C16.866 10.6339 16.7688 10.3991 16.7688 10.1543C16.7688 9.90946 16.866 9.67468 17.0391 9.50157C17.2122 9.32847 17.447 9.23122 17.6918 9.23122H20.461C20.9506 9.23122 21.4202 9.42572 21.7664 9.77193C22.1126 10.1181 22.3071 10.5877 22.3071 11.0773ZM8.19135 6.19208L11.2305 3.15179V13.8465C11.2305 14.0913 11.3277 14.3261 11.5008 14.4992C11.674 14.6723 11.9087 14.7695 12.1535 14.7695C12.3983 14.7695 12.6331 14.6723 12.8062 14.4992C12.9793 14.3261 13.0766 14.0913 13.0766 13.8465V3.15179L16.1157 6.19208C16.2889 6.36528 16.5238 6.46258 16.7688 6.46258C17.0137 6.46258 17.2486 6.36528 17.4218 6.19208C17.595 6.01888 17.6923 5.78397 17.6923 5.53902C17.6923 5.29408 17.595 5.05917 17.4218 4.88596L12.8066 0.270718C12.7209 0.184896 12.6191 0.116813 12.507 0.0703611C12.395 0.0239093 12.2748 0 12.1535 0C12.0322 0 11.9121 0.0239093 11.8001 0.0703611C11.688 0.116813 11.5862 0.184896 11.5005 0.270718L6.88524 4.88596C6.71204 5.05917 6.61473 5.29408 6.61473 5.53902C6.61473 5.78397 6.71204 6.01888 6.88524 6.19208C7.05844 6.36528 7.29335 6.46258 7.53829 6.46258C7.78324 6.46258 8.01815 6.36528 8.19135 6.19208Z" fill="#151B23"/>
</svg>
