<svg width="15" height="16" viewBox="0 0 15 16" fill="none" xmlns="http://www.w3.org/2000/svg">
<path d="M13.3269 1.21154H11.5096V0.605769C11.5096 0.445109 11.4458 0.291029 11.3322 0.177426C11.2186 0.0638219 11.0645 0 10.9038 0C10.7432 0 10.5891 0.0638219 10.4755 0.177426C10.3619 0.291029 10.2981 0.445109 10.2981 0.605769V1.21154H4.24039V0.605769C4.24039 0.445109 4.17656 0.291029 4.06296 0.177426C3.94936 0.0638219 3.79528 0 3.63462 0C3.47396 0 3.31988 0.0638219 3.20627 0.177426C3.09267 0.291029 3.02885 0.445109 3.02885 0.605769V1.21154H1.21154C0.890218 1.21154 0.582059 1.33918 0.354851 1.56639C0.127644 1.7936 0 2.10176 0 2.42308V14.5385C0 14.8598 0.127644 15.1679 0.354851 15.3951C0.582059 15.6224 0.890218 15.75 1.21154 15.75H13.3269C13.6482 15.75 13.9564 15.6224 14.1836 15.3951C14.4108 15.1679 14.5385 14.8598 14.5385 14.5385V2.42308C14.5385 2.10176 14.4108 1.7936 14.1836 1.56639C13.9564 1.33918 13.6482 1.21154 13.3269 1.21154ZM3.02885 2.42308V3.02885C3.02885 3.18951 3.09267 3.34359 3.20627 3.45719C3.31988 3.57079 3.47396 3.63462 3.63462 3.63462C3.79528 3.63462 3.94936 3.57079 4.06296 3.45719C4.17656 3.34359 4.24039 3.18951 4.24039 3.02885V2.42308H10.2981V3.02885C10.2981 3.18951 10.3619 3.34359 10.4755 3.45719C10.5891 3.57079 10.7432 3.63462 10.9038 3.63462C11.0645 3.63462 11.2186 3.57079 11.3322 3.45719C11.4458 3.34359 11.5096 3.18951 11.5096 3.02885V2.42308H13.3269V4.84615H1.21154V2.42308H3.02885ZM13.3269 14.5385H1.21154V6.05769H13.3269V14.5385ZM10.4238 8.05219C10.4801 8.10845 10.5248 8.17526 10.5553 8.2488C10.5857 8.32234 10.6014 8.40116 10.6014 8.48077C10.6014 8.56038 10.5857 8.6392 10.5553 8.71274C10.5248 8.78628 10.4801 8.85309 10.4238 8.90935L6.78916 12.544C6.7329 12.6003 6.66609 12.645 6.59255 12.6755C6.51901 12.7059 6.44018 12.7216 6.36058 12.7216C6.28097 12.7216 6.20214 12.7059 6.1286 12.6755C6.05506 12.645 5.98825 12.6003 5.93199 12.544L4.11469 10.7267C4.00102 10.613 3.93716 10.4588 3.93716 10.2981C3.93716 10.1373 4.00102 9.98316 4.11469 9.8695C4.22835 9.75583 4.38252 9.69197 4.54327 9.69197C4.70402 9.69197 4.85818 9.75583 4.97185 9.8695L6.36058 11.259L9.56661 8.05219C9.62287 7.99587 9.68968 7.95118 9.76322 7.9207C9.83676 7.89021 9.91559 7.87452 9.99519 7.87452C10.0748 7.87452 10.1536 7.89021 10.2272 7.9207C10.3007 7.95118 10.3675 7.99587 10.4238 8.05219Z" fill="#151B23"/>
</svg>
