<svg width="72" height="73" viewBox="0 0 72 73" fill="none" xmlns="http://www.w3.org/2000/svg">
<g clip-path="url(#clip0_1077_6095)">
<path d="M33.3928 8.56768C35.5108 10.105 38.3375 10.2423 40.5958 8.92336C44.2323 6.80304 48.8952 8.57889 50.2048 12.584C51.0214 15.0692 53.2225 16.8441 55.8244 17.1105C60.0094 17.5357 62.7461 21.7172 61.4534 25.7286C60.6511 28.2194 61.3932 30.9539 63.3446 32.6976C66.4819 35.5068 66.2402 40.4965 62.8442 42.9789C60.7338 44.5241 59.7319 47.1682 60.2836 49.7252C61.1783 53.8429 58.0528 57.7323 53.8432 57.7411C51.228 57.7447 48.8658 59.2962 47.8081 61.6892C46.114 65.5431 41.2981 66.85 37.8882 64.3811C35.7701 62.8437 32.9435 62.7065 30.6852 64.0254C27.0486 66.1457 22.3857 64.3699 21.0762 60.3647C20.2596 57.8796 18.0585 56.1047 15.4566 55.8383C11.2715 55.4131 8.53489 51.2316 9.82754 47.2202C10.6298 44.7294 9.88775 41.9948 7.93639 40.2512C4.79906 37.442 5.04073 32.4523 8.43677 29.9698C10.5471 28.4247 11.549 25.7806 10.9974 23.2236C10.1026 19.1059 13.2282 15.2165 17.4377 15.2077C20.053 15.2041 22.4152 13.6525 23.4728 11.2596C25.1669 7.40564 29.9829 6.09876 33.3928 8.56768Z" fill="#FFD0E8"/>
<path d="M47.125 25.3101C46.8571 25.126 46.5482 25.0104 46.2253 24.9731C45.9024 24.9358 45.5753 24.9781 45.2725 25.0963C43.5187 25.7788 39.9775 26.9238 36 26.9238C32.0225 26.9238 28.48 25.7788 26.7238 25.0963C26.4207 24.9787 26.0936 24.9367 25.7707 24.974C25.4478 25.0112 25.1388 25.1266 24.8706 25.3102C24.6023 25.4937 24.3828 25.7399 24.2311 26.0274C24.0795 26.3149 24.0001 26.635 24 26.9601V33.9313C24 38.4113 25.2062 42.6376 27.3975 45.8288C29.6675 49.1363 32.7225 50.9538 36 50.9538C39.2775 50.9538 42.3325 49.1326 44.6025 45.8288C46.7938 42.6401 48 38.4138 48 33.9338V26.9601C47.9994 26.6346 47.9194 26.3142 47.7669 26.0267C47.6144 25.7391 47.3941 25.4931 47.125 25.3101ZM46 33.9351C46 38.0151 44.9175 41.8388 42.9538 44.7013C41.0675 47.4476 38.5988 48.9601 36 48.9601C33.4012 48.9601 30.9325 47.4476 29.0463 44.7001C27.0825 41.8351 26 38.0138 26 33.9338V26.9601C27.8888 27.6938 31.6975 28.9238 36 28.9238C40.3025 28.9238 44.1125 27.6938 46 26.9601V33.9363V33.9351ZM43.75 36.2938C43.9267 36.4927 44.0171 36.7537 44.0014 37.0193C43.9857 37.2849 43.8652 37.5334 43.6663 37.7101C43.4673 37.8868 43.2064 37.9772 42.9408 37.9615C42.6752 37.9458 42.4267 37.8252 42.25 37.6263C41.915 37.2513 41.1437 36.9601 40.5 36.9601C39.8562 36.9601 39.08 37.2526 38.75 37.6263C38.5731 37.8252 38.3245 37.9457 38.0588 37.9613C37.7931 37.9769 37.532 37.8863 37.3331 37.7094C37.1342 37.5326 37.0137 37.2839 36.9981 37.0182C36.9825 36.7525 37.0731 36.4915 37.25 36.2926C37.9637 35.4951 39.2675 34.9601 40.5 34.9601C41.7325 34.9601 43.0312 35.4951 43.75 36.2926V36.2938ZM31.5 36.9601C30.8513 36.9601 30.08 37.2526 29.75 37.6263C29.5731 37.8252 29.3245 37.9457 29.0588 37.9613C28.7931 37.9769 28.532 37.8863 28.3331 37.7094C28.1342 37.5326 28.0137 37.2839 27.9981 37.0182C27.9825 36.7525 28.0731 36.4915 28.25 36.2926C28.9688 35.4951 30.2725 34.9601 31.5 34.9601C32.7275 34.9601 34.0312 35.4951 34.75 36.2926C34.9269 36.4915 35.0175 36.7525 35.0019 37.0182C34.9863 37.2839 34.8658 37.5326 34.6669 37.7094C34.5684 37.797 34.4536 37.8643 34.3291 37.9076C34.2046 37.9508 34.0728 37.969 33.9412 37.9613C33.6755 37.9457 33.4269 37.8252 33.25 37.6263C32.92 37.2526 32.1488 36.9601 31.5 36.9601ZM41.0562 42.6088C40.4355 43.3453 39.6614 43.9373 38.7881 44.3434C37.9147 44.7495 36.9632 44.9599 36 44.9599C35.0368 44.9599 34.0853 44.7495 33.2119 44.3434C32.3386 43.9373 31.5645 43.3453 30.9438 42.6088C30.8585 42.5089 30.7937 42.3932 30.7531 42.2683C30.7126 42.1434 30.697 42.0117 30.7074 41.8808C30.7177 41.7498 30.7537 41.6222 30.8134 41.5052C30.873 41.3882 30.9551 41.2841 31.055 41.1988C31.1549 41.1135 31.2706 41.0488 31.3955 41.0082C31.5204 40.9676 31.6521 40.9521 31.783 40.9624C31.914 40.9727 32.0416 41.0088 32.1586 41.0684C32.2756 41.1281 32.3797 41.2102 32.465 41.3101C32.8978 41.8268 33.4386 42.2423 34.0494 42.5274C34.6601 42.8126 35.326 42.9603 36 42.9603C36.674 42.9603 37.3399 42.8126 37.9506 42.5274C38.5614 42.2423 39.1022 41.8268 39.535 41.3101C39.6203 41.2102 39.7244 41.1281 39.8414 41.0684C39.9584 41.0088 40.086 40.9727 40.217 40.9624C40.3479 40.9521 40.4796 40.9676 40.6045 41.0082C40.7294 41.0488 40.8451 41.1135 40.945 41.1988C41.0449 41.2841 41.127 41.3882 41.1866 41.5052C41.2463 41.6222 41.2823 41.7498 41.2926 41.8808C41.303 42.0117 41.2874 42.1434 41.2469 42.2683C41.2063 42.3932 41.1415 42.5089 41.0562 42.6088Z" fill="#151B23"/>
</g>
<defs>
<clipPath id="clip0_1077_6095">
<rect width="57.5954" height="59.9623" fill="white" transform="translate(0 15.084) rotate(-15.1825)"/>
</clipPath>
</defs>
</svg>
