<svg width="17" height="19" viewBox="0 0 17 19" fill="none" xmlns="http://www.w3.org/2000/svg">
<path d="M2.01399 17.5987C2.06172 18.243 2.61059 18.7501 3.25831 18.7501H12.9486C13.5972 18.7501 14.1452 18.243 14.1938 17.5987L15.3111 2.97461H0.896729L2.01399 17.5987Z" fill="#CD0003"/>
<path d="M16.0434 1.86478H11.6141C11.2536 1.66109 10.986 1.31337 10.8888 0.896596C10.7661 0.368182 10.3016 0 9.76039 0H6.44664C5.90544 0 5.44095 0.368182 5.31823 0.895745C5.22107 1.31252 4.95345 1.66108 4.59295 1.86393L0.163636 1.86478C0.073296 1.86478 0 1.94148 0 2.03694C0 2.13239 0.073296 2.2091 0.163636 2.2091H16.0431C16.1335 2.2091 16.2068 2.13239 16.2068 2.03694C16.2068 1.94148 16.1335 1.86478 16.0431 1.86478L16.0434 1.86478Z" fill="#CD0003"/>
</svg>
