<svg width="24" height="24" viewBox="0 0 24 24" fill="none" xmlns="http://www.w3.org/2000/svg">
<g clip-path="url(#clip0_697_4144)">
<path d="M21.1744 1.84615H18.4052V0.923077C18.4052 0.678262 18.3079 0.443473 18.1348 0.270363C17.9617 0.0972524 17.7269 0 17.4821 0C17.2373 0 17.0025 0.0972524 16.8294 0.270363C16.6563 0.443473 16.559 0.678262 16.559 0.923077V1.84615H7.32824V0.923077C7.32824 0.678262 7.23099 0.443473 7.05787 0.270363C6.88476 0.0972524 6.64998 0 6.40516 0C6.16035 0 5.92556 0.0972524 5.75245 0.270363C5.57934 0.443473 5.48208 0.678262 5.48208 0.923077V1.84615H2.71285C2.22322 1.84615 1.75365 2.04066 1.40743 2.38688C1.0612 2.7331 0.866699 3.20268 0.866699 3.69231V22.1538C0.866699 22.6435 1.0612 23.1131 1.40743 23.4593C1.75365 23.8055 2.22322 24 2.71285 24H21.1744C21.664 24 22.1336 23.8055 22.4798 23.4593C22.826 23.1131 23.0205 22.6435 23.0205 22.1538V3.69231C23.0205 3.20268 22.826 2.7331 22.4798 2.38688C22.1336 2.04066 21.664 1.84615 21.1744 1.84615ZM5.48208 3.69231V4.61539C5.48208 4.8602 5.57934 5.09499 5.75245 5.2681C5.92556 5.44121 6.16035 5.53846 6.40516 5.53846C6.64998 5.53846 6.88476 5.44121 7.05787 5.2681C7.23099 5.09499 7.32824 4.8602 7.32824 4.61539V3.69231H16.559V4.61539C16.559 4.8602 16.6563 5.09499 16.8294 5.2681C17.0025 5.44121 17.2373 5.53846 17.4821 5.53846C17.7269 5.53846 17.9617 5.44121 18.1348 5.2681C18.3079 5.09499 18.4052 4.8602 18.4052 4.61539V3.69231H21.1744V7.38462H2.71285V3.69231H5.48208ZM21.1744 22.1538H2.71285V9.23077H21.1744V22.1538ZM16.7505 12.27C16.8364 12.3557 16.9045 12.4575 16.9509 12.5696C16.9974 12.6817 17.0213 12.8018 17.0213 12.9231C17.0213 13.0444 16.9974 13.1645 16.9509 13.2766C16.9045 13.3886 16.8364 13.4904 16.7505 13.5762L11.2121 19.1146C11.1264 19.2004 11.0246 19.2685 10.9125 19.315C10.8004 19.3614 10.6803 19.3853 10.559 19.3853C10.4377 19.3853 10.3176 19.3614 10.2055 19.315C10.0935 19.2685 9.99166 19.2004 9.90593 19.1146L7.1367 16.3454C6.96349 16.1722 6.86619 15.9373 6.86619 15.6923C6.86619 15.4474 6.96349 15.2124 7.1367 15.0392C7.30991 14.866 7.54483 14.7687 7.78978 14.7687C8.03473 14.7687 8.26965 14.866 8.44285 15.0392L10.559 17.1565L15.4444 12.27C15.5301 12.1842 15.6319 12.1161 15.744 12.0696C15.856 12.0232 15.9762 11.9993 16.0975 11.9993C16.2188 11.9993 16.3389 12.0232 16.451 12.0696C16.563 12.1161 16.6648 12.1842 16.7505 12.27Z" fill="#151B23"/>
</g>
<defs>
<clipPath id="clip0_697_4144">
<rect width="24" height="24" fill="white"/>
</clipPath>
</defs>
</svg>
