<svg width="24" height="21" viewBox="0 0 24 21" fill="none" xmlns="http://www.w3.org/2000/svg">
<path d="M17.3571 0C15.1446 0 13.2075 0.951429 12 2.55964C10.7925 0.951429 8.85536 0 6.64286 0C4.88167 0.00198508 3.19319 0.702493 1.94784 1.94784C0.702493 3.19319 0.00198508 4.88167 0 6.64286C0 14.1429 11.1204 20.2136 11.5939 20.4643C11.7187 20.5314 11.8583 20.5666 12 20.5666C12.1417 20.5666 12.2813 20.5314 12.4061 20.4643C12.8796 20.2136 24 14.1429 24 6.64286C23.998 4.88167 23.2975 3.19319 22.0522 1.94784C20.8068 0.702493 19.1183 0.00198508 17.3571 0ZM12 18.7286C10.0436 17.5886 1.71429 12.3954 1.71429 6.64286C1.71599 5.33624 2.23579 4.08363 3.15971 3.15971C4.08363 2.23579 5.33624 1.71599 6.64286 1.71429C8.72679 1.71429 10.4764 2.82429 11.2071 4.60714C11.2717 4.76435 11.3816 4.89882 11.5228 4.99345C11.6639 5.08808 11.83 5.1386 12 5.1386C12.17 5.1386 12.3361 5.08808 12.4772 4.99345C12.6184 4.89882 12.7283 4.76435 12.7929 4.60714C13.5236 2.82107 15.2732 1.71429 17.3571 1.71429C18.6638 1.71599 19.9164 2.23579 20.8403 3.15971C21.7642 4.08363 22.284 5.33624 22.2857 6.64286C22.2857 12.3868 13.9543 17.5875 12 18.7286Z" fill="#6C6E7A"/>
</svg>
