<svg width="72" height="73" viewBox="0 0 72 73" fill="none" xmlns="http://www.w3.org/2000/svg">
<path d="M41.3571 27.6268C39.1446 27.6268 37.2075 28.5782 36 30.1864C34.7925 28.5782 32.8554 27.6268 30.6429 27.6268C28.8817 27.6288 27.1932 28.3293 25.9478 29.5746C24.7025 30.82 24.002 32.5085 24 34.2696C24 41.7696 35.1204 47.8404 35.5939 48.0911C35.7187 48.1582 35.8583 48.1934 36 48.1934C36.1417 48.1934 36.2813 48.1582 36.4061 48.0911C36.8796 47.8404 48 41.7696 48 34.2696C47.998 32.5085 47.2975 30.82 46.0522 29.5746C44.8068 28.3293 43.1183 27.6288 41.3571 27.6268ZM36 46.3554C34.0436 45.2154 25.7143 40.0221 25.7143 34.2696C25.716 32.963 26.2358 31.7104 27.1597 30.7865C28.0836 29.8626 29.3362 29.3428 30.6429 29.3411C32.7268 29.3411 34.4764 30.4511 35.2071 32.2339C35.2717 32.3911 35.3816 32.5256 35.5228 32.6202C35.6639 32.7149 35.83 32.7654 36 32.7654C36.17 32.7654 36.3361 32.7149 36.4773 32.6202C36.6184 32.5256 36.7283 32.3911 36.7929 32.2339C37.5236 30.4479 39.2732 29.3411 41.3571 29.3411C42.6638 29.3428 43.9164 29.8626 44.8403 30.7865C45.7642 31.7104 46.284 32.963 46.2857 34.2696C46.2857 40.0136 37.9543 45.2143 36 46.3554Z" fill="#151B23"/>
</svg>
