<svg width="72" height="73" viewBox="0 0 72 73" fill="none" xmlns="http://www.w3.org/2000/svg">
<g clip-path="url(#clip0_697_6347)">
<path d="M40.6102 28.655C40.6102 28.41 40.7075 28.175 40.8808 28.0017C41.054 27.8285 41.289 27.7312 41.534 27.7312H43.3815V25.8836C43.3815 25.6386 43.4789 25.4036 43.6521 25.2304C43.8254 25.0571 44.0603 24.9598 44.3053 24.9598C44.5503 24.9598 44.7853 25.0571 44.9585 25.2304C45.1318 25.4036 45.2291 25.6386 45.2291 25.8836V27.7312H47.0767C47.3217 27.7312 47.5567 27.8285 47.7299 28.0017C47.9031 28.175 48.0005 28.41 48.0005 28.655C48.0005 28.9 47.9031 29.1349 47.7299 29.3082C47.5567 29.4814 47.3217 29.5787 47.0767 29.5787H45.2291V31.4263C45.2291 31.6713 45.1318 31.9063 44.9585 32.0795C44.7853 32.2528 44.5503 32.3501 44.3053 32.3501C44.0603 32.3501 43.8254 32.2528 43.6521 32.0795C43.4789 31.9063 43.3815 31.6713 43.3815 31.4263V29.5787H41.534C41.289 29.5787 41.054 29.4814 40.8808 29.3082C40.7075 29.1349 40.6102 28.9 40.6102 28.655ZM47.8342 34.969C48.2562 37.4778 47.8701 40.0557 46.7315 42.3306C45.5928 44.6056 43.7607 46.4598 41.4996 47.6256C39.2384 48.7914 36.6653 49.2084 34.1517 48.8165C31.6381 48.4246 29.3141 47.2439 27.5152 45.4451C25.7164 43.6462 24.5357 41.3222 24.1438 38.8086C23.7518 36.295 24.1689 33.7219 25.3347 31.4607C26.5005 29.1996 28.3547 27.3674 30.6296 26.2288C32.9046 25.0902 35.4825 24.7041 37.9912 25.1261C38.231 25.1685 38.4444 25.3039 38.5849 25.5028C38.7254 25.7017 38.7817 25.948 38.7415 26.1882C38.7013 26.4284 38.5679 26.643 38.3703 26.7853C38.1727 26.9277 37.9269 26.9862 37.6864 26.9483C36.2293 26.7031 34.7362 26.7785 33.3112 27.169C31.8862 27.5596 30.5633 28.256 29.4348 29.2098C28.3063 30.1636 27.3991 31.3518 26.7765 32.6918C26.1539 34.0318 25.8308 35.4914 25.8296 36.969C25.8274 39.4566 26.7417 41.8577 28.3977 43.7138C29.428 42.2208 30.8767 41.0658 32.5617 40.394C31.6566 39.6811 30.9961 38.7039 30.6722 37.5982C30.3482 36.4926 30.3768 35.3135 30.7541 34.2249C31.1313 33.1362 31.8384 32.1922 32.777 31.5241C33.7156 30.856 34.8391 30.497 35.9913 30.497C37.1434 30.497 38.2669 30.856 39.2055 31.5241C40.1441 32.1922 40.8512 33.1362 41.2284 34.2249C41.6057 35.3135 41.6343 36.4926 41.3103 37.5982C40.9864 38.7039 40.3259 39.6811 39.4208 40.394C41.1058 41.0658 42.5545 42.2208 43.5848 43.7138C45.2408 41.8577 46.1551 39.4566 46.1529 36.969C46.1529 36.4011 46.1058 35.8341 46.012 35.2739C45.9908 35.1537 45.9935 35.0305 46.0202 34.9114C46.0468 34.7923 46.0968 34.6797 46.1672 34.58C46.2376 34.4804 46.327 34.3956 46.4304 34.3307C46.5337 34.2658 46.6489 34.222 46.7693 34.2019C46.8896 34.1818 47.0128 34.1857 47.1316 34.2134C47.2505 34.2411 47.3626 34.2921 47.4617 34.3635C47.5607 34.4348 47.6446 34.525 47.7085 34.629C47.7725 34.7329 47.8152 34.8485 47.8342 34.969ZM35.9913 39.7404C36.7221 39.7404 37.4365 39.5237 38.0442 39.1176C38.6518 38.7116 39.1254 38.1345 39.4051 37.4593C39.6848 36.7841 39.758 36.0411 39.6154 35.3244C39.4728 34.6076 39.1209 33.9492 38.6041 33.4324C38.0873 32.9156 37.4289 32.5637 36.7121 32.4211C35.9953 32.2785 35.2524 32.3517 34.5772 32.6314C33.902 32.9111 33.3249 33.3847 32.9188 33.9923C32.5128 34.6 32.2961 35.3144 32.2961 36.0452C32.2961 37.0253 32.6854 37.9651 33.3784 38.6581C34.0714 39.3511 35.0112 39.7404 35.9913 39.7404ZM35.9913 47.1307C38.2469 47.133 40.4385 46.381 42.2176 44.9944C41.5493 43.9493 40.6287 43.0891 39.5405 42.4933C38.4524 41.8975 37.2318 41.5853 35.9913 41.5853C34.7507 41.5853 33.5301 41.8975 32.442 42.4933C31.3538 43.0891 30.4332 43.9493 29.7649 44.9944C31.544 46.381 33.7356 47.133 35.9913 47.1307Z" fill="#151B23"/>
</g>
<defs>
<clipPath id="clip0_697_6347">
<rect width="24" height="24" fill="white" transform="translate(24 24.9598)"/>
</clipPath>
</defs>
</svg>
