<svg width="24" height="20" viewBox="0 0 24 20" fill="none" xmlns="http://www.w3.org/2000/svg">
<path d="M10.9996 8.99971C10.9996 9.26491 10.8943 9.51926 10.7068 9.70679C10.5192 9.89432 10.2649 9.99967 9.99967 9.99967H0.999967C0.73476 9.99967 0.480414 9.89432 0.292884 9.70679C0.105354 9.51926 0 9.26491 0 8.99971C0 8.7345 0.105354 8.48015 0.292884 8.29262C0.480414 8.10509 0.73476 7.99974 0.999967 7.99974H9.99967C10.2649 7.99974 10.5192 8.10509 10.7068 8.29262C10.8943 8.48015 10.9996 8.7345 10.9996 8.99971ZM0.999967 1.99993H17.9994C18.2646 1.99993 18.519 1.89458 18.7065 1.70705C18.894 1.51952 18.9994 1.26518 18.9994 0.999967C18.9994 0.73476 18.894 0.480414 18.7065 0.292884C18.519 0.105354 18.2646 0 17.9994 0H0.999967C0.73476 0 0.480414 0.105354 0.292884 0.292884C0.105354 0.480414 0 0.73476 0 0.999967C0 1.26518 0.105354 1.51952 0.292884 1.70705C0.480414 1.89458 0.73476 1.99993 0.999967 1.99993ZM7.99974 15.9995H0.999967C0.73476 15.9995 0.480414 16.1048 0.292884 16.2924C0.105354 16.4799 0 16.7342 0 16.9994C0 17.2647 0.105354 17.519 0.292884 17.7065C0.480414 17.8941 0.73476 17.9994 0.999967 17.9994H7.99974C8.26495 17.9994 8.51929 17.8941 8.70682 17.7065C8.89435 17.519 8.99971 17.2647 8.99971 16.9994C8.99971 16.7342 8.89435 16.4799 8.70682 16.2924C8.51929 16.1048 8.26495 15.9995 7.99974 15.9995ZM23.7067 13.2921C23.6139 13.1991 23.5036 13.1253 23.3822 13.075C23.2608 13.0247 23.1307 12.9988 22.9993 12.9988C22.8678 12.9988 22.7377 13.0247 22.6163 13.075C22.4949 13.1253 22.3846 13.1991 22.2918 13.2921L18.9994 16.5857V6.99977C18.9994 6.73456 18.894 6.48022 18.7065 6.29269C18.519 6.10516 18.2646 5.9998 17.9994 5.9998C17.7342 5.9998 17.4799 6.10516 17.2923 6.29269C17.1048 6.48022 16.9994 6.73456 16.9994 6.99977V16.5857L13.7071 13.2921C13.5194 13.1044 13.2649 12.999 12.9996 12.999C12.7342 12.999 12.4797 13.1044 12.2921 13.2921C12.1045 13.4797 11.9991 13.7342 11.9991 13.9995C11.9991 14.2649 12.1045 14.5194 12.2921 14.707L17.2919 19.7069C17.3848 19.7998 17.4951 19.8736 17.6165 19.9239C17.7379 19.9742 17.868 20.0001 17.9994 20.0001C18.1308 20.0001 18.2609 19.9742 18.3823 19.9239C18.5037 19.8736 18.614 19.7998 18.7069 19.7069L23.7067 14.707C23.7997 14.6142 23.8735 14.5039 23.9238 14.3825C23.9741 14.2611 24 14.131 24 13.9995C24 13.8681 23.9741 13.738 23.9238 13.6166C23.8735 13.4952 23.7997 13.3849 23.7067 13.2921Z" fill="#151B23"/>
</svg>
