<svg width="16" height="16" viewBox="0 0 16 16" fill="none" xmlns="http://www.w3.org/2000/svg">
<g clip-path="url(#clip0_600_2318)">
<path d="M0.65625 4.59401H3.36328C3.50785 5.15866 3.83624 5.65913 4.29667 6.01653C4.7571 6.37392 5.32339 6.56791 5.90625 6.56791C6.48911 6.56791 7.0554 6.37392 7.51583 6.01653C7.97626 5.65913 8.30465 5.15866 8.44922 4.59401H15.0938C15.2678 4.59401 15.4347 4.52487 15.5578 4.4018C15.6809 4.27873 15.75 4.11181 15.75 3.93776C15.75 3.76372 15.6809 3.5968 15.5578 3.47373C15.4347 3.35066 15.2678 3.28151 15.0938 3.28151H8.44922C8.30465 2.71687 7.97626 2.2164 7.51583 1.859C7.0554 1.50161 6.48911 1.30762 5.90625 1.30762C5.32339 1.30762 4.7571 1.50161 4.29667 1.859C3.83624 2.2164 3.50785 2.71687 3.36328 3.28151H0.65625C0.482202 3.28151 0.315282 3.35066 0.192211 3.47373C0.0691406 3.5968 0 3.76372 0 3.93776C0 4.11181 0.0691406 4.27873 0.192211 4.4018C0.315282 4.52487 0.482202 4.59401 0.65625 4.59401ZM5.90625 2.62526C6.16584 2.62526 6.4196 2.70224 6.63544 2.84646C6.85128 2.99068 7.0195 3.19566 7.11884 3.43549C7.21818 3.67532 7.24417 3.93922 7.19353 4.19382C7.14289 4.44842 7.01788 4.68229 6.83433 4.86584C6.65077 5.0494 6.41691 5.1744 6.16231 5.22505C5.90771 5.27569 5.64381 5.2497 5.40398 5.15036C5.16415 5.05102 4.95917 4.88279 4.81495 4.66695C4.67073 4.45111 4.59375 4.19735 4.59375 3.93776C4.59375 3.58967 4.73203 3.25583 4.97817 3.00969C5.22431 2.76355 5.55815 2.62526 5.90625 2.62526ZM15.0938 11.1565H13.6992C13.5546 10.5919 13.2263 10.0914 12.7658 9.734C12.3054 9.37661 11.7391 9.18262 11.1562 9.18262C10.5734 9.18262 10.0071 9.37661 9.54667 9.734C9.08624 10.0914 8.75785 10.5919 8.61328 11.1565H0.65625C0.482202 11.1565 0.315282 11.2257 0.192211 11.3487C0.0691406 11.4718 0 11.6387 0 11.8128C0 11.9868 0.0691406 12.1537 0.192211 12.2768C0.315282 12.3999 0.482202 12.469 0.65625 12.469H8.61328C8.75785 13.0337 9.08624 13.5341 9.54667 13.8915C10.0071 14.2489 10.5734 14.4429 11.1562 14.4429C11.7391 14.4429 12.3054 14.2489 12.7658 13.8915C13.2263 13.5341 13.5546 13.0337 13.6992 12.469H15.0938C15.2678 12.469 15.4347 12.3999 15.5578 12.2768C15.6809 12.1537 15.75 11.9868 15.75 11.8128C15.75 11.6387 15.6809 11.4718 15.5578 11.3487C15.4347 11.2257 15.2678 11.1565 15.0938 11.1565ZM11.1562 13.1253C10.8967 13.1253 10.6429 13.0483 10.4271 12.9041C10.2112 12.7598 10.043 12.5549 9.94366 12.315C9.84432 12.0752 9.81833 11.8113 9.86897 11.5567C9.91961 11.3021 10.0446 11.0682 10.2282 10.8847C10.4117 10.7011 10.6456 10.5761 10.9002 10.5255C11.1548 10.4748 11.4187 10.5008 11.6585 10.6002C11.8984 10.6995 12.1033 10.8677 12.2476 11.0836C12.3918 11.2994 12.4688 11.5532 12.4688 11.8128C12.4688 12.1609 12.3305 12.4947 12.0843 12.7408C11.8382 12.987 11.5043 13.1253 11.1562 13.1253Z" fill="#151B23"/>
</g>
<defs>
<clipPath id="clip0_600_2318">
<rect width="15.75" height="15.75" fill="white"/>
</clipPath>
</defs>
</svg>
