<svg width="24" height="24" viewBox="0 0 24 24" fill="none" xmlns="http://www.w3.org/2000/svg">
<g clip-path="url(#clip0_3010_368)">
<path d="M22.9437 10.1618L13.3438 0.561903C12.9838 0.20211 12.4957 0 11.9867 0C11.4777 0 10.9895 0.20211 10.6295 0.561903L1.0296 10.1618C0.850449 10.3396 0.708436 10.5513 0.611819 10.7845C0.515203 11.0177 0.46591 11.2677 0.466809 11.5202V23.04C0.466809 23.2946 0.56795 23.5388 0.747983 23.7188C0.928016 23.8989 1.17219 24 1.4268 24H9.1067C9.3613 24 9.60548 23.8989 9.78551 23.7188C9.96554 23.5388 10.0667 23.2946 10.0667 23.04V16.3201H13.9066V23.04C13.9066 23.2946 14.0078 23.5388 14.1878 23.7188C14.3678 23.8989 14.612 24 14.8666 24H22.5465C22.8011 24 23.0453 23.8989 23.2253 23.7188C23.4054 23.5388 23.5065 23.2946 23.5065 23.04V11.5202C23.5074 11.2677 23.4581 11.0177 23.3615 10.7845C23.2649 10.5513 23.1229 10.3396 22.9437 10.1618ZM21.5865 22.08H15.8266V15.3601C15.8266 15.1055 15.7255 14.8613 15.5454 14.6813C15.3654 14.5013 15.1212 14.4001 14.8666 14.4001H9.1067C8.85209 14.4001 8.60792 14.5013 8.42788 14.6813C8.24785 14.8613 8.14671 15.1055 8.14671 15.3601V22.08H2.38678V11.5202L11.9867 1.92029L21.5865 11.5202V22.08Z" fill="#6C6E7A"/>
</g>
<defs>
<clipPath id="clip0_3010_368">
<rect width="24" height="24" fill="white"/>
</clipPath>
</defs>
</svg>
