<svg width="48" height="48" viewBox="0 0 48 48" fill="none" xmlns="http://www.w3.org/2000/svg">
<g clip-path="url(#clip0_1020_6783)">
<path d="M23.4735 18.1209C22.4263 18.1209 21.4026 18.4314 20.5319 19.0132C19.6612 19.595 18.9825 20.4219 18.5818 21.3894C18.181 22.3569 18.0762 23.4214 18.2805 24.4485C18.4848 25.4756 18.9891 26.419 19.7295 27.1595C20.47 27.9 21.4134 28.4043 22.4405 28.6086C23.4676 28.8129 24.5322 28.708 25.4997 28.3073C26.4671 27.9065 27.2941 27.2279 27.8759 26.3572C28.4576 25.4864 28.7682 24.4628 28.7682 23.4156C28.7667 22.0118 28.2084 20.6659 27.2158 19.6733C26.2231 18.6806 24.8773 18.1223 23.4735 18.1209ZM23.4735 26.9454C22.7753 26.9454 22.0929 26.7384 21.5124 26.3505C20.9319 25.9626 20.4795 25.4114 20.2123 24.7664C19.9452 24.1214 19.8753 23.4117 20.0115 22.7269C20.1477 22.0422 20.4839 21.4133 20.9775 20.9196C21.4712 20.426 22.1001 20.0898 22.7848 19.9536C23.4695 19.8174 24.1793 19.8873 24.8243 20.1545C25.4692 20.4216 26.0205 20.874 26.4084 21.4545C26.7963 22.035 27.0033 22.7174 27.0033 23.4156C27.0033 24.3517 26.6314 25.2496 25.9694 25.9115C25.3074 26.5735 24.4096 26.9454 23.4735 26.9454ZM35.6006 21.1223C35.576 20.998 35.5249 20.8805 35.4509 20.7777C35.3769 20.6749 35.2816 20.5893 35.1715 20.5266L31.881 18.6514L31.8678 14.9429C31.8674 14.8152 31.8393 14.6891 31.7854 14.5733C31.7315 14.4575 31.6531 14.3548 31.5556 14.2723C30.362 13.2626 28.9875 12.4889 27.5052 11.9922C27.3884 11.9527 27.2647 11.9381 27.142 11.9493C27.0193 11.9605 26.9002 11.9973 26.7926 12.0573L23.4735 13.9127L20.151 12.054C20.0433 11.9936 19.9241 11.9566 19.8012 11.9452C19.6783 11.9338 19.5543 11.9483 19.4373 11.9878C17.9561 12.4881 16.5831 13.2648 15.3913 14.2767C15.294 14.3591 15.2157 14.4616 15.1618 14.5772C15.1079 14.6928 15.0797 14.8187 15.0791 14.9462L15.0626 18.658L11.7721 20.5333C11.6621 20.5959 11.5668 20.6816 11.4927 20.7843C11.4187 20.8871 11.3676 21.0046 11.343 21.1289C11.0419 22.6422 11.0419 24.2 11.343 25.7133C11.3676 25.8375 11.4187 25.955 11.4927 26.0578C11.5668 26.1606 11.6621 26.2462 11.7721 26.3089L15.0626 28.1841L15.0758 31.8926C15.0762 32.0204 15.1043 32.1465 15.1582 32.2623C15.2121 32.378 15.2905 32.4808 15.388 32.5633C16.5816 33.5729 17.9561 34.3467 19.4384 34.8433C19.5552 34.8828 19.6789 34.8975 19.8016 34.8863C19.9244 34.8751 20.0434 34.8383 20.151 34.7783L23.4735 32.9185L26.7959 34.7772C26.9274 34.8504 27.0756 34.8884 27.2261 34.8875C27.3225 34.8874 27.4182 34.8718 27.5096 34.8411C28.9907 34.3415 30.3636 33.5656 31.5556 32.5545C31.653 32.4721 31.7313 32.3695 31.7851 32.2539C31.839 32.1383 31.8672 32.0124 31.8678 31.8849L31.8843 28.1731L35.1748 26.2979C35.2849 26.2352 35.3802 26.1496 35.4542 26.0468C35.5283 25.944 35.5793 25.8265 35.6039 25.7022C35.9033 24.1902 35.9022 22.6339 35.6006 21.1223ZM33.946 24.9731L30.7945 26.7656C30.6564 26.8441 30.5421 26.9584 30.4636 27.0965C30.3996 27.2068 30.3323 27.3237 30.2639 27.434C30.1764 27.5731 30.1298 27.7341 30.1294 27.8984L30.1128 31.4558C29.2657 32.121 28.322 32.653 27.3143 33.0332L24.1353 31.2617C24.0033 31.1887 23.8548 31.1507 23.704 31.1514H23.683C23.5496 31.1514 23.415 31.1514 23.2815 31.1514C23.1237 31.1474 22.9676 31.1855 22.8293 31.2617L19.648 33.0376C18.6382 32.6603 17.6919 32.131 16.8418 31.468L16.8297 27.9161C16.8291 27.7514 16.7825 27.5902 16.6951 27.4506C16.6267 27.3403 16.5594 27.23 16.4966 27.113C16.4186 26.9728 16.3043 26.8562 16.1656 26.7755L13.0109 24.9786C12.8476 23.9459 12.8476 22.894 13.0109 21.8614L16.1568 20.0656C16.2949 19.987 16.4092 19.8727 16.4877 19.7346C16.5517 19.6243 16.619 19.5074 16.6874 19.3971C16.7749 19.258 16.8216 19.0971 16.822 18.9327L16.8385 15.3753C17.6856 14.7101 18.6293 14.1782 19.637 13.7979L22.8116 15.5695C22.9498 15.646 23.106 15.6841 23.2639 15.6798C23.3973 15.6798 23.5319 15.6798 23.6654 15.6798C23.8233 15.6837 23.9793 15.6456 24.1177 15.5695L27.2989 13.7935C28.3087 14.1709 29.255 14.7002 30.1051 15.3632L30.1172 18.9151C30.1178 19.0797 30.1644 19.241 30.2518 19.3806C30.3202 19.4909 30.3875 19.6012 30.4504 19.7181C30.5283 19.8583 30.6426 19.9749 30.7813 20.0556L33.936 21.8525C34.1015 22.886 34.1033 23.9391 33.9416 24.9731H33.946Z" fill="#000000"/>
</g>
<defs>
<clipPath id="clip0_1020_6783">
<rect width="24.7105" height="24.7105" fill="white" transform="translate(11.4727 11.4727)"/>
</clipPath>
</defs>
</svg>
