<svg width="72" height="73" viewBox="0 0 72 73" fill="none" xmlns="http://www.w3.org/2000/svg">
<g clip-path="url(#clip0_600_3666)">
<path d="M33.3928 8.56768C35.5108 10.105 38.3375 10.2423 40.5958 8.92336C44.2323 6.80304 48.8952 8.57889 50.2048 12.584C51.0214 15.0692 53.2225 16.8441 55.8244 17.1105C60.0094 17.5357 62.7461 21.7172 61.4534 25.7286C60.6511 28.2194 61.3932 30.9539 63.3446 32.6976C66.4819 35.5068 66.2402 40.4965 62.8442 42.9789C60.7338 44.5241 59.7319 47.1682 60.2836 49.7252C61.1783 53.8429 58.0528 57.7323 53.8432 57.7411C51.228 57.7447 48.8658 59.2962 47.8081 61.6892C46.114 65.5431 41.2981 66.85 37.8882 64.3811C35.7701 62.8437 32.9435 62.7065 30.6852 64.0254C27.0486 66.1457 22.3857 64.3699 21.0762 60.3647C20.2596 57.8796 18.0585 56.1047 15.4566 55.8383C11.2715 55.4131 8.53489 51.2316 9.82754 47.2202C10.6298 44.7294 9.88775 41.9948 7.93639 40.2512C4.79906 37.442 5.04073 32.4523 8.43677 29.9698C10.5471 28.4247 11.549 25.7806 10.9974 23.2236C10.1026 19.1059 13.2282 15.2165 17.4377 15.2077C20.053 15.2041 22.4152 13.6525 23.4728 11.2596C25.1669 7.40564 29.9829 6.09876 33.3928 8.56768Z" fill="#FFD0E8"/>
<path d="M50 46.96H49V31.96C49 31.6947 48.8946 31.4404 48.7071 31.2529C48.5196 31.0653 48.2652 30.96 48 30.96H40C39.7348 30.96 39.4804 31.0653 39.2929 31.2529C39.1054 31.4404 39 31.6947 39 31.96V36.96H33V25.96C33 25.6947 32.8946 25.4404 32.7071 25.2529C32.5196 25.0653 32.2652 24.96 32 24.96H24C23.7348 24.96 23.4804 25.0653 23.2929 25.2529C23.1054 25.4404 23 25.6947 23 25.96V46.96H22C21.7348 46.96 21.4804 47.0653 21.2929 47.2529C21.1054 47.4404 21 47.6947 21 47.96C21 48.2252 21.1054 48.4795 21.2929 48.6671C21.4804 48.8546 21.7348 48.96 22 48.96H50C50.2652 48.96 50.5196 48.8546 50.7071 48.6671C50.8946 48.4795 51 48.2252 51 47.96C51 47.6947 50.8946 47.4404 50.7071 47.2529C50.5196 47.0653 50.2652 46.96 50 46.96ZM41 32.96H47V46.96H41V32.96ZM39 38.96V46.96H33V38.96H39ZM25 26.96H31V46.96H25V26.96ZM29 29.96V31.96C29 32.2252 28.8946 32.4795 28.7071 32.6671C28.5196 32.8546 28.2652 32.96 28 32.96C27.7348 32.96 27.4804 32.8546 27.2929 32.6671C27.1054 32.4795 27 32.2252 27 31.96V29.96C27 29.6947 27.1054 29.4404 27.2929 29.2529C27.4804 29.0653 27.7348 28.96 28 28.96C28.2652 28.96 28.5196 29.0653 28.7071 29.2529C28.8946 29.4404 29 29.6947 29 29.96ZM29 35.96V37.96C29 38.2252 28.8946 38.4795 28.7071 38.6671C28.5196 38.8546 28.2652 38.96 28 38.96C27.7348 38.96 27.4804 38.8546 27.2929 38.6671C27.1054 38.4795 27 38.2252 27 37.96V35.96C27 35.6947 27.1054 35.4404 27.2929 35.2529C27.4804 35.0653 27.7348 34.96 28 34.96C28.2652 34.96 28.5196 35.0653 28.7071 35.2529C28.8946 35.4404 29 35.6947 29 35.96ZM29 41.96V43.96C29 44.2252 28.8946 44.4795 28.7071 44.6671C28.5196 44.8546 28.2652 44.96 28 44.96C27.7348 44.96 27.4804 44.8546 27.2929 44.6671C27.1054 44.4795 27 44.2252 27 43.96V41.96C27 41.6947 27.1054 41.4404 27.2929 41.2529C27.4804 41.0653 27.7348 40.96 28 40.96C28.2652 40.96 28.5196 41.0653 28.7071 41.2529C28.8946 41.4404 29 41.6947 29 41.96ZM35 43.96V41.96C35 41.6947 35.1054 41.4404 35.2929 41.2529C35.4804 41.0653 35.7348 40.96 36 40.96C36.2652 40.96 36.5196 41.0653 36.7071 41.2529C36.8946 41.4404 37 41.6947 37 41.96V43.96C37 44.2252 36.8946 44.4795 36.7071 44.6671C36.5196 44.8546 36.2652 44.96 36 44.96C35.7348 44.96 35.4804 44.8546 35.2929 44.6671C35.1054 44.4795 35 44.2252 35 43.96ZM43 43.96V41.96C43 41.6947 43.1054 41.4404 43.2929 41.2529C43.4804 41.0653 43.7348 40.96 44 40.96C44.2652 40.96 44.5196 41.0653 44.7071 41.2529C44.8946 41.4404 45 41.6947 45 41.96V43.96C45 44.2252 44.8946 44.4795 44.7071 44.6671C44.5196 44.8546 44.2652 44.96 44 44.96C43.7348 44.96 43.4804 44.8546 43.2929 44.6671C43.1054 44.4795 43 44.2252 43 43.96ZM43 37.96V35.96C43 35.6947 43.1054 35.4404 43.2929 35.2529C43.4804 35.0653 43.7348 34.96 44 34.96C44.2652 34.96 44.5196 35.0653 44.7071 35.2529C44.8946 35.4404 45 35.6947 45 35.96V37.96C45 38.2252 44.8946 38.4795 44.7071 38.6671C44.5196 38.8546 44.2652 38.96 44 38.96C43.7348 38.96 43.4804 38.8546 43.2929 38.6671C43.1054 38.4795 43 38.2252 43 37.96Z" fill="#151B23"/>
</g>
<defs>
<clipPath id="clip0_600_3666">
<rect width="57.5954" height="59.9623" fill="white" transform="translate(0 15.084) rotate(-15.1825)"/>
</clipPath>
</defs>
</svg>
