<svg width="24" height="24" viewBox="0 0 24 24" fill="none" xmlns="http://www.w3.org/2000/svg">
<path d="M21.8377 6.73154L15.3762 0.27C15.2904 0.184307 15.1886 0.116356 15.0765 0.0700282C14.9645 0.0237008 14.8444 -9.50639e-05 14.7231 2.85414e-07H3.6462C3.15657 2.85414e-07 2.687 0.194505 2.34077 0.540726C1.99455 0.886947 1.80005 1.35652 1.80005 1.84615V22.1538C1.80005 22.6435 1.99455 23.1131 2.34077 23.4593C2.687 23.8055 3.15657 24 3.6462 24H20.2616C20.7512 24 21.2208 23.8055 21.567 23.4593C21.9132 23.1131 22.1077 22.6435 22.1077 22.1538V7.38462C22.1078 7.26336 22.084 7.14327 22.0377 7.03122C21.9914 6.91916 21.9234 6.81733 21.8377 6.73154ZM15.6462 3.15115L18.9566 6.46154H15.6462V3.15115ZM20.2616 22.1538H3.6462V1.84615H13.8001V7.38462C13.8001 7.62943 13.8973 7.86422 14.0704 8.03733C14.2435 8.21044 14.4783 8.30769 14.7231 8.30769H20.2616V22.1538ZM16.5693 12.9231C16.5693 13.1679 16.472 13.4027 16.2989 13.5758C16.1258 13.7489 15.891 13.8462 15.6462 13.8462H8.26159C8.01677 13.8462 7.78198 13.7489 7.60887 13.5758C7.43576 13.4027 7.33851 13.1679 7.33851 12.9231C7.33851 12.6783 7.43576 12.4435 7.60887 12.2704C7.78198 12.0973 8.01677 12 8.26159 12H15.6462C15.891 12 16.1258 12.0973 16.2989 12.2704C16.472 12.4435 16.5693 12.6783 16.5693 12.9231ZM16.5693 16.6154C16.5693 16.8602 16.472 17.095 16.2989 17.2681C16.1258 17.4412 15.891 17.5385 15.6462 17.5385H8.26159C8.01677 17.5385 7.78198 17.4412 7.60887 17.2681C7.43576 17.095 7.33851 16.8602 7.33851 16.6154C7.33851 16.3706 7.43576 16.1358 7.60887 15.9627C7.78198 15.7896 8.01677 15.6923 8.26159 15.6923H15.6462C15.891 15.6923 16.1258 15.7896 16.2989 15.9627C16.472 16.1358 16.5693 16.3706 16.5693 16.6154Z" fill="#151B23"/>
</svg>
