<svg width="15" height="15" viewBox="0 0 15 15" fill="none" xmlns="http://www.w3.org/2000/svg">
<g clip-path="url(#clip0_1205_10882)">
<path d="M14.3991 4.64281C14.3733 5.53798 14.0052 6.38918 13.3706 7.0211L11.1369 9.25606C10.8116 9.58316 10.4247 9.84249 9.99844 10.019C9.57222 10.1956 9.11521 10.2858 8.65388 10.2845H8.65067C8.18146 10.2842 7.71707 10.1898 7.28494 10.007C6.85282 9.82418 6.46171 9.55662 6.13473 9.22011C5.80774 8.8836 5.55152 8.48497 5.38118 8.04777C5.21085 7.61057 5.12986 7.14367 5.143 6.67464C5.14683 6.53826 5.20469 6.40899 5.30384 6.31527C5.40299 6.22154 5.53531 6.17104 5.67169 6.17488C5.80807 6.17872 5.93734 6.23657 6.03106 6.33572C6.12479 6.43487 6.17529 6.56719 6.17145 6.70357C6.16209 7.0352 6.21929 7.36534 6.33968 7.67449C6.46008 7.98363 6.64122 8.26551 6.8724 8.50346C7.10358 8.74141 7.38011 8.93061 7.68565 9.05987C7.99119 9.18914 8.31955 9.25585 8.65131 9.25606C8.97743 9.2569 9.30049 9.19308 9.6018 9.06829C9.90311 8.94351 10.1767 8.76024 10.4067 8.52907L12.6404 6.2954C13.1013 5.82875 13.3588 5.19871 13.3567 4.54286C13.3547 3.887 13.0932 3.2586 12.6295 2.79483C12.1657 2.33107 11.5373 2.06962 10.8814 2.06757C10.2256 2.06552 9.59555 2.32303 9.12889 2.78388L8.42183 3.49094C8.32461 3.5833 8.19516 3.63404 8.06107 3.63232C7.92698 3.6306 7.79886 3.57657 7.70404 3.48175C7.60921 3.38693 7.55518 3.25881 7.55347 3.12472C7.55175 2.99063 7.60248 2.86117 7.69485 2.76395L8.40191 2.05689C8.72812 1.73057 9.11542 1.47171 9.54169 1.2951C9.96796 1.11849 10.4249 1.02759 10.8863 1.02759C11.3477 1.02759 11.8046 1.11849 12.2308 1.2951C12.6571 1.47171 13.0444 1.73057 13.3706 2.05689C13.7085 2.39561 13.9739 2.79954 14.1507 3.2441C14.3275 3.68866 14.412 4.16455 14.3991 4.64281ZM5.97862 10.9054L5.27155 11.6125C5.04094 11.8447 4.76648 12.0286 4.46412 12.1538C4.16177 12.2789 3.83755 12.3427 3.51033 12.3414C3.01944 12.341 2.53968 12.1951 2.13166 11.9222C1.72365 11.6492 1.4057 11.2615 1.21798 10.8079C1.03026 10.3543 0.981197 9.85526 1.07699 9.37381C1.17278 8.89235 1.40913 8.45009 1.75617 8.10291L3.98599 5.86924C4.3372 5.51618 4.78645 5.27688 5.2754 5.18242C5.76436 5.08795 6.27042 5.1427 6.72786 5.33954C7.18531 5.53638 7.57299 5.86621 7.84057 6.28621C8.10815 6.70621 8.24326 7.19697 8.22836 7.69474C8.22452 7.83112 8.27502 7.96344 8.36874 8.06259C8.46247 8.16174 8.59174 8.21959 8.72812 8.22343C8.8645 8.22726 8.99682 8.17677 9.09597 8.08304C9.19512 7.98932 9.25297 7.86005 9.25681 7.72367C9.26916 7.24616 9.18436 6.77113 9.00757 6.32738C8.83078 5.88364 8.56568 5.48044 8.22836 5.14225C7.56962 4.4838 6.67635 4.11391 5.74496 4.11391C4.81357 4.11391 3.92031 4.4838 3.26157 5.14225L1.02919 7.37592C0.538248 7.86666 0.203798 8.49191 0.0681034 9.17267C-0.0675917 9.85343 0.00155799 10.5591 0.266814 11.2006C0.532069 11.8421 0.981525 12.3905 1.55838 12.7766C2.13524 13.1627 2.81361 13.3692 3.50776 13.3699C3.96919 13.3712 4.42631 13.281 4.85264 13.1045C5.27897 12.9279 5.66605 12.6686 5.99147 12.3414L6.69853 11.6344C6.78175 11.5363 6.82523 11.4107 6.82039 11.2822C6.81555 11.1537 6.76274 11.0317 6.67239 10.9402C6.58203 10.8487 6.46068 10.7944 6.33226 10.788C6.20384 10.7815 6.07766 10.8234 5.97862 10.9054Z" fill="#F1F2F3"/>
</g>
<defs>
<clipPath id="clip0_1205_10882">
<rect width="14.4" height="14.4" fill="white"/>
</clipPath>
</defs>
</svg>
