<svg width="32" height="32" viewBox="0 0 32 32" fill="none" xmlns="http://www.w3.org/2000/svg">
<rect width="32" height="32" rx="16" fill="#1B262D"/>
<g clip-path="url(#clip0_9326_2819)">
<path d="M22.8714 15.3849V22.7693C22.8714 23.0957 22.7417 23.4087 22.5109 23.6395C22.2801 23.8703 21.9671 24 21.6406 24H10.5641C10.2376 24 9.92461 23.8703 9.6938 23.6395C9.46299 23.4087 9.33333 23.0957 9.33333 22.7693V15.3849C9.33333 15.0585 9.46299 14.7454 9.6938 14.5146C9.92461 14.2838 10.2376 14.1541 10.5641 14.1541H12.4102C12.5734 14.1541 12.7299 14.219 12.8453 14.3344C12.9607 14.4498 13.0255 14.6063 13.0255 14.7695C13.0255 14.9327 12.9607 15.0892 12.8453 15.2046C12.7299 15.32 12.5734 15.3849 12.4102 15.3849H10.5641V22.7693H21.6406V15.3849H19.7945C19.6313 15.3849 19.4748 15.32 19.3594 15.2046C19.244 15.0892 19.1792 14.9327 19.1792 14.7695C19.1792 14.6063 19.244 14.4498 19.3594 14.3344C19.4748 14.219 19.6313 14.1541 19.7945 14.1541H21.6406C21.9671 14.1541 22.2801 14.2838 22.5109 14.5146C22.7417 14.7454 22.8714 15.0585 22.8714 15.3849ZM13.4609 12.1281L15.487 10.1012V17.231C15.487 17.3942 15.5518 17.5507 15.6672 17.6661C15.7826 17.7815 15.9391 17.8463 16.1024 17.8463C16.2656 17.8463 16.4221 17.7815 16.5375 17.6661C16.6529 17.5507 16.7177 17.3942 16.7177 17.231V10.1012L18.7438 12.1281C18.8593 12.2435 19.0159 12.3084 19.1792 12.3084C19.3425 12.3084 19.4991 12.2435 19.6146 12.1281C19.73 12.0126 19.7949 11.856 19.7949 11.6927C19.7949 11.5294 19.73 11.3728 19.6146 11.2573L16.5377 8.18048C16.4806 8.12326 16.4127 8.07788 16.338 8.04691C16.2633 8.01594 16.1832 8 16.1024 8C16.0215 8 15.9414 8.01594 15.8667 8.04691C15.792 8.07788 15.7241 8.12326 15.667 8.18048L12.5902 11.2573C12.4747 11.3728 12.4098 11.5294 12.4098 11.6927C12.4098 11.856 12.4747 12.0126 12.5902 12.1281C12.7056 12.2435 12.8622 12.3084 13.0255 12.3084C13.1888 12.3084 13.3454 12.2435 13.4609 12.1281Z" fill="white"/>
</g>
<defs>
<clipPath id="clip0_9326_2819">
<rect width="16" height="16" fill="white" transform="translate(8 8)"/>
</clipPath>
</defs>
</svg>
