<svg width="14" height="14" viewBox="0 0 14 14" fill="none" xmlns="http://www.w3.org/2000/svg">
    <path d="M6.75 9.81349C6.82556 9.85668 6.91109 9.8794 6.99813 9.8794C7.08516 9.8794 7.17069 9.85668 7.24625 9.81349C7.39938 9.72536 10.9963 7.62599 10.9963 3.87911C10.9648 2.83992 10.53 1.8538 9.784 1.1297C9.03796 0.405591 8.0393 0.000406615 6.99964 3.05871e-07C5.95998 -0.000406003 4.96101 0.403998 4.2144 1.12752C3.4678 1.85104 3.03223 2.83682 3 3.87599C3 7.62599 6.59875 9.72224 6.75 9.81349ZM7 2.37599C7.29667 2.37599 7.58668 2.46396 7.83336 2.62878C8.08003 2.79361 8.27229 3.02787 8.38582 3.30196C8.49935 3.57605 8.52906 3.87765 8.47118 4.16862C8.4133 4.4596 8.27044 4.72687 8.06066 4.93665C7.85088 5.14643 7.58361 5.28929 7.29264 5.34717C7.00167 5.40504 6.70006 5.37534 6.42598 5.26181C6.15189 5.14828 5.91762 4.95602 5.7528 4.70934C5.58797 4.46267 5.5 4.17266 5.5 3.87599C5.5 3.47816 5.65804 3.09663 5.93934 2.81533C6.22064 2.53402 6.60218 2.37599 7 2.37599ZM14 10.376C14 12.3247 10.3931 13.376 7 13.376C3.60688 13.376 0 12.3247 0 10.376C0 9.46411 0.82625 8.65661 2.32688 8.10286C2.44994 8.06221 2.58398 8.07092 2.70074 8.12718C2.8175 8.18343 2.90785 8.28282 2.95275 8.4044C2.99766 8.52597 2.9936 8.66023 2.94143 8.77888C2.88927 8.89752 2.79307 8.99127 2.67313 9.04036C1.64125 9.42224 1 9.93349 1 10.376C1 11.211 3.2825 12.376 7 12.376C10.7175 12.376 13 11.211 13 10.376C13 9.93349 12.3588 9.42224 11.3269 9.04099C11.2069 8.99189 11.1107 8.89814 11.0586 8.7795C11.0064 8.66086 11.0023 8.5266 11.0472 8.40502C11.0922 8.28344 11.1825 8.18405 11.2993 8.1278C11.416 8.07155 11.5501 8.06283 11.6731 8.10349C13.1738 8.65661 14 9.46411 14 10.376Z" fill="#0280FF"/>
</svg>
