<svg width="24" height="24" viewBox="0 0 24 24" fill="none" xmlns="http://www.w3.org/2000/svg">
<g clip-path="url(#clip0_1356_5892)">
<path d="M22.605 6.12143C22.3958 6.22976 22.1521 6.2506 21.9276 6.17936C21.703 6.10811 21.5159 5.95063 21.4074 5.74151C20.5592 4.06573 19.2752 2.64936 17.6904 1.64124C17.5917 1.57894 17.5061 1.49781 17.4387 1.40246C17.3713 1.30712 17.3233 1.19943 17.2976 1.08555C17.2718 0.971662 17.2687 0.853815 17.2884 0.738731C17.3082 0.623648 17.3504 0.513583 17.4127 0.41482C17.475 0.316057 17.5561 0.23053 17.6515 0.163123C17.7468 0.0957161 17.8545 0.0477488 17.9684 0.0219601C18.0823 -0.0038287 18.2001 -0.006934 18.3152 0.0128215C18.4303 0.032577 18.5404 0.0748064 18.6391 0.137099C20.4861 1.31967 21.9858 2.97159 22.9849 4.9239C23.0932 5.1331 23.1141 5.37675 23.0428 5.60131C22.9716 5.82586 22.8141 6.01294 22.605 6.12143ZM1.68814 6.22141C1.85095 6.22134 2.01062 6.17655 2.14971 6.09192C2.2888 6.00729 2.40197 5.88607 2.47687 5.74151C3.32514 4.06573 4.60912 2.64936 6.19388 1.64124C6.39334 1.51543 6.53466 1.31554 6.58674 1.08555C6.63883 0.855548 6.59741 0.614281 6.4716 0.41482C6.3458 0.215359 6.14591 0.0740429 5.91592 0.0219601C5.68592 -0.0301227 5.44465 0.0112939 5.24519 0.137099C3.39824 1.31967 1.89852 2.97159 0.899412 4.9239C0.829246 5.05934 0.795121 5.21055 0.800321 5.363C0.805521 5.51544 0.849872 5.66399 0.929104 5.79433C1.00834 5.92467 1.11978 6.03243 1.25272 6.10722C1.38565 6.18202 1.53561 6.22135 1.68814 6.22141ZM22.3617 17.7679C22.5191 18.0379 22.6026 18.3447 22.6037 18.6572C22.6047 18.9697 22.5234 19.2771 22.3678 19.5481C22.2122 19.8192 21.9879 20.0444 21.7175 20.2011C21.4471 20.3579 21.1401 20.4405 20.8276 20.4407H16.2951C16.0912 21.4452 15.5462 22.3483 14.7526 22.997C13.959 23.6456 12.9655 24 11.9405 24C10.9155 24 9.92201 23.6456 9.12839 22.997C8.33476 22.3483 7.78979 21.4452 7.58582 20.4407H3.05342C2.74106 20.4401 2.43438 20.3572 2.16427 20.2003C1.89416 20.0434 1.67017 19.8182 1.51484 19.5472C1.35952 19.2762 1.27835 18.969 1.27952 18.6567C1.28069 18.3443 1.36416 18.0378 1.52151 17.7679C2.52241 16.0405 3.05342 13.5843 3.05342 10.6649C3.05342 8.30795 3.98973 6.04749 5.65638 4.38084C7.32303 2.71419 9.58349 1.77787 11.9405 1.77787C14.2975 1.77787 16.5579 2.71419 18.2246 4.38084C19.8912 6.04749 20.8276 8.30795 20.8276 10.6649C20.8276 13.5832 21.3586 16.0394 22.3617 17.7679ZM14.4533 20.4407H9.42767C9.61179 20.96 9.95224 21.4094 10.4022 21.7273C10.8522 22.0451 11.3896 22.2158 11.9405 22.2158C12.4914 22.2158 13.0288 22.0451 13.4788 21.7273C13.9287 21.4094 14.2692 20.96 14.4533 20.4407ZM20.8276 18.6633C19.6456 16.6337 19.0501 13.9432 19.0501 10.6649C19.0501 8.77935 18.3011 6.97098 16.9678 5.63766C15.6345 4.30434 13.8261 3.55529 11.9405 3.55529C10.0549 3.55529 8.24652 4.30434 6.9132 5.63766C5.57988 6.97098 4.83083 8.77935 4.83083 10.6649C4.83083 13.9443 4.23317 16.6348 3.05342 18.6633H20.8276Z" fill="#151B23"/>
</g>
<defs>
<clipPath id="clip0_1356_5892">
<rect width="24" height="24" fill="white"/>
</clipPath>
</defs>
</svg>
