<svg width="24" height="24" viewBox="0 0 24 24" fill="none" xmlns="http://www.w3.org/2000/svg">
<g clip-path="url(#clip0_697_4149)">
<path d="M16.6102 3.69516C16.6102 3.45016 16.7075 3.21519 16.8808 3.04194C17.054 2.8687 17.289 2.77137 17.534 2.77137H19.3815V0.9238C19.3815 0.678796 19.4789 0.443827 19.6521 0.270584C19.8254 0.0973403 20.0603 1.31266e-05 20.3053 1.31266e-05C20.5503 1.31266e-05 20.7853 0.0973403 20.9585 0.270584C21.1318 0.443827 21.2291 0.678796 21.2291 0.9238V2.77137H23.0767C23.3217 2.77137 23.5567 2.8687 23.7299 3.04194C23.9031 3.21519 24.0005 3.45016 24.0005 3.69516C24.0005 3.94016 23.9031 4.17513 23.7299 4.34837C23.5567 4.52162 23.3217 4.61895 23.0767 4.61895H21.2291V6.46652C21.2291 6.71152 21.1318 6.94649 20.9585 7.11973C20.7853 7.29298 20.5503 7.39031 20.3053 7.39031C20.0603 7.39031 19.8254 7.29298 19.6521 7.11973C19.4789 6.94649 19.3815 6.71152 19.3815 6.46652V4.61895H17.534C17.289 4.61895 17.054 4.52162 16.8808 4.34837C16.7075 4.17513 16.6102 3.94016 16.6102 3.69516ZM23.8342 10.0092C24.2562 12.518 23.8701 15.0959 22.7315 17.3709C21.5928 19.6458 19.7607 21.5 17.4996 22.6658C15.2384 23.8316 12.6653 24.2487 10.1517 23.8567C7.63809 23.4648 5.31408 22.2841 3.51522 20.4853C1.71635 18.6864 0.535718 16.3624 0.143776 13.8488C-0.248166 11.3352 0.168867 8.76206 1.33466 6.50093C2.50046 4.23979 4.35469 2.40765 6.62963 1.26904C8.90458 0.130423 11.4825 -0.255743 13.9912 0.166295C14.231 0.208702 14.4444 0.34408 14.5849 0.542981C14.7254 0.741882 14.7817 0.988216 14.7415 1.2284C14.7013 1.46858 14.5679 1.68318 14.3703 1.82552C14.1727 1.96786 13.9269 2.02642 13.6864 1.98846C12.2293 1.74334 10.7362 1.81869 9.3112 2.20926C7.88616 2.59982 6.56335 3.29623 5.43481 4.25001C4.30628 5.20379 3.39914 6.39203 2.77652 7.73204C2.15391 9.07205 1.83077 10.5316 1.8296 12.0092C1.82741 14.4968 2.74166 16.8979 4.39772 18.754C5.42801 17.2611 6.87673 16.106 8.56169 15.4342C7.6566 14.7213 6.99614 13.7441 6.67217 12.6384C6.3482 11.5328 6.37682 10.3537 6.75406 9.26507C7.13129 8.17645 7.83839 7.23244 8.77701 6.56431C9.71563 5.89619 10.8391 5.53716 11.9913 5.53716C13.1434 5.53716 14.2669 5.89619 15.2055 6.56431C16.1441 7.23244 16.8512 8.17645 17.2284 9.26507C17.6057 10.3537 17.6343 11.5328 17.3103 12.6384C16.9864 13.7441 16.3259 14.7213 15.4208 15.4342C17.1058 16.106 18.5545 17.2611 19.5848 18.754C21.2408 16.8979 22.1551 14.4968 22.1529 12.0092C22.1529 11.4413 22.1058 10.8743 22.012 10.3141C21.9908 10.1939 21.9935 10.0707 22.0202 9.95164C22.0468 9.83255 22.0968 9.71991 22.1672 9.62023C22.2376 9.52056 22.327 9.43582 22.4304 9.37092C22.5337 9.30602 22.6489 9.26223 22.7693 9.24209C22.8896 9.22196 23.0128 9.22587 23.1316 9.2536C23.2505 9.28133 23.3626 9.33234 23.4617 9.40367C23.5607 9.475 23.6446 9.56524 23.7085 9.66918C23.7725 9.77312 23.8152 9.8887 23.8342 10.0092ZM11.9913 14.7806C12.7221 14.7806 13.4365 14.5639 14.0442 14.1579C14.6518 13.7518 15.1254 13.1747 15.4051 12.4995C15.6848 11.8243 15.758 11.0814 15.6154 10.3646C15.4728 9.64778 15.1209 8.98936 14.6041 8.47259C14.0873 7.95581 13.4289 7.60388 12.7121 7.46131C11.9953 7.31873 11.2524 7.3919 10.5772 7.67158C9.90198 7.95126 9.32488 8.42488 8.91885 9.03254C8.51282 9.6402 8.2961 10.3546 8.2961 11.0855C8.2961 12.0655 8.68541 13.0053 9.37839 13.6983C10.0714 14.3913 11.0112 14.7806 11.9913 14.7806ZM11.9913 22.1709C14.2469 22.1732 16.4385 21.4212 18.2176 20.0346C17.5493 18.9895 16.6287 18.1293 15.5405 17.5335C14.4524 16.9378 13.2318 16.6255 11.9913 16.6255C10.7507 16.6255 9.5301 16.9378 8.44197 17.5335C7.35385 18.1293 6.43321 18.9895 5.76493 20.0346C7.54402 21.4212 9.73564 22.1732 11.9913 22.1709Z" fill="#151B23"/>
</g>
<defs>
<clipPath id="clip0_697_4149">
<rect width="24" height="24" fill="white"/>
</clipPath>
</defs>
</svg>
