<svg width="24" height="24" viewBox="0 0 24 24" fill="none" xmlns="http://www.w3.org/2000/svg">
<path d="M21.5198 0H2.3199C1.81068 0 1.32232 0.202285 0.962256 0.562353C0.602187 0.922422 0.399902 1.41078 0.399902 1.92V8.63998C0.399902 14.9664 3.46229 18.8004 6.03149 20.9027C8.79868 23.1659 11.5515 23.9339 11.6715 23.9663C11.8365 24.0112 12.0105 24.0112 12.1755 23.9663C12.2955 23.9339 15.0447 23.1659 17.8155 20.9027C20.3775 18.8004 23.4398 14.9664 23.4398 8.63998V1.92C23.4398 1.41078 23.2376 0.922422 22.8775 0.562353C22.5174 0.202285 22.0291 0 21.5198 0ZM21.5198 8.63998C21.5198 13.0884 19.8806 16.6992 16.6479 19.3703C15.2406 20.5292 13.6401 21.431 11.9199 22.0343C10.2221 21.4415 8.64142 20.5557 7.24948 19.4172C3.97829 16.7412 2.3199 13.116 2.3199 8.63998V1.92H21.5198V8.63998ZM6.44069 12.1992C6.26055 12.019 6.15935 11.7747 6.15935 11.52C6.15935 11.2652 6.26055 11.0209 6.44069 10.8408C6.62082 10.6606 6.86514 10.5594 7.11988 10.5594C7.37463 10.5594 7.61895 10.6606 7.79908 10.8408L9.99988 13.0428L16.0407 7.00078C16.1299 6.91159 16.2357 6.84084 16.3523 6.79256C16.4688 6.74429 16.5937 6.71945 16.7199 6.71945C16.846 6.71945 16.9709 6.74429 17.0874 6.79256C17.204 6.84084 17.3099 6.91159 17.3991 7.00078C17.4883 7.08998 17.559 7.19586 17.6073 7.3124C17.6555 7.42894 17.6804 7.55384 17.6804 7.67998C17.6804 7.80612 17.6555 7.93102 17.6073 8.04756C17.559 8.1641 17.4883 8.26999 17.3991 8.35918L10.6791 15.0792C10.5899 15.1684 10.484 15.2392 10.3675 15.2875C10.251 15.3358 10.126 15.3607 9.99988 15.3607C9.87372 15.3607 9.7488 15.3358 9.63226 15.2875C9.51571 15.2392 9.40984 15.1684 9.32068 15.0792L6.44069 12.1992Z" fill="#151B23"/>
</svg>
