<svg width="115" height="118" viewBox="0 0 115 118" fill="none" xmlns="http://www.w3.org/2000/svg">
<g filter="url(#filter0_d_1356_5862)">
<path fill-rule="evenodd" clip-rule="evenodd" d="M50.4159 8.67283C47.5445 8.58061 45.1419 10.8374 45.0496 13.7134L44.074 44.0909C43.9816 46.967 46.2344 49.3733 49.1058 49.4655L57.8235 49.7454L62.4996 55.4732C62.6202 55.6116 62.7697 55.724 62.9383 55.803C63.1069 55.8821 63.2909 55.9261 63.4782 55.9321C63.6654 55.9382 63.8518 55.906 64.0252 55.838C64.1985 55.7699 64.3549 55.6673 64.4842 55.5369L69.5182 50.121L79.4337 50.4395C82.305 50.5317 84.7076 48.2749 84.8 45.3988L85.7756 15.0213C85.8679 12.1453 83.6151 9.73902 80.7437 9.6468L50.4159 8.67283Z" fill="white"/>
</g>
<rect x="47.7329" y="11.1895" width="35.5452" height="35.5452" rx="3.46783" transform="rotate(1.83942 47.7329 11.1895)" fill="#FFD0E8"/>
<rect width="20.807" height="20.807" transform="translate(54.8618 18.791) rotate(1.83942)" fill="#FFD0E8"/>
<path d="M72.4202 21.5334C72.2499 21.4082 72.0516 21.3266 71.8425 21.2956C71.6334 21.2647 71.42 21.2854 71.2207 21.3558C70.0667 21.7628 67.7414 22.433 65.1565 22.35C62.5716 22.267 60.2933 21.4489 59.1662 20.9687C58.9717 20.8859 58.76 20.8518 58.5494 20.8693C58.3388 20.8868 58.1356 20.9553 57.9574 21.069C57.7792 21.1827 57.6314 21.3381 57.5269 21.5218C57.4223 21.7054 57.364 21.9118 57.3572 22.1231L57.2117 26.6536C57.1182 29.565 57.8139 32.3368 59.1714 34.4565C60.5776 36.6533 62.525 37.8982 64.655 37.9667C66.785 38.0351 68.8084 36.9152 70.3526 34.8155C71.8432 32.789 72.7153 30.0676 72.8088 27.1561L72.9544 22.624C72.9608 22.4124 72.9155 22.2026 72.8224 22.0125C72.7293 21.8225 72.5912 21.658 72.4202 21.5334ZM71.509 27.1152C71.4239 29.7667 70.6406 32.2291 69.3046 34.0484C68.0215 35.7938 66.3855 36.7252 64.6966 36.6709C63.0077 36.6167 61.4349 35.5822 60.2664 33.7573C59.05 31.8544 58.4262 29.3485 58.5114 26.6969L58.6569 22.1648C59.8691 22.6811 62.3187 23.5599 65.1148 23.6497C67.9109 23.7395 70.4126 23.0197 71.6546 22.5822L71.509 27.116L71.509 27.1152ZM69.9976 28.6011C70.1082 28.7341 70.1616 28.9056 70.1458 29.0778C70.1301 29.2501 70.0465 29.4091 69.9136 29.5198C69.7806 29.6305 69.6091 29.6838 69.4369 29.668C69.2646 29.6523 69.1056 29.5687 68.9949 29.4358C68.785 29.1851 68.2899 28.9797 67.8715 28.9663C67.4532 28.9528 66.9426 29.1267 66.7203 29.3627C66.6012 29.4883 66.4371 29.5614 66.2641 29.566C66.0911 29.5706 65.9234 29.5063 65.7978 29.3872C65.6722 29.2681 65.5991 29.104 65.5945 28.931C65.5899 28.758 65.6543 28.5902 65.7734 28.4646C66.2539 27.9613 67.1123 27.6408 67.9133 27.6665C68.7143 27.6922 69.5471 28.067 69.9976 28.6003L69.9976 28.6011ZM62.0226 28.7784C61.601 28.7649 61.0937 28.9389 60.8714 29.1749C60.7523 29.3005 60.5882 29.3736 60.4152 29.3782C60.2422 29.3828 60.0744 29.3184 59.9489 29.1993C59.8233 29.0803 59.7502 28.9161 59.7456 28.7431C59.741 28.5701 59.8053 28.4024 59.9244 28.2768C60.4082 27.7735 61.2666 27.4531 62.0643 27.4787C62.8621 27.5043 63.6982 27.8792 64.1486 28.4125C64.2594 28.5454 64.3129 28.717 64.2972 28.8893C64.2815 29.0617 64.198 29.2207 64.0651 29.3315C63.9992 29.3864 63.9232 29.4277 63.8414 29.4532C63.7596 29.4787 63.6735 29.4878 63.5882 29.4801C63.4158 29.4644 63.2568 29.3809 63.146 29.2479C62.9393 28.9982 62.4442 28.792 62.0226 28.7784ZM68.1151 32.6489C67.6964 33.1146 67.181 33.4832 66.6049 33.7288C66.0288 33.9745 65.406 34.0914 64.7801 34.0713C64.1542 34.0512 63.5402 33.8946 62.9811 33.6125C62.4219 33.3303 61.9312 32.9294 61.5432 32.4379C61.4899 32.3712 61.4502 32.2946 61.4264 32.2126C61.4027 32.1306 61.3953 32.0447 61.4048 31.9598C61.4142 31.8749 61.4403 31.7927 61.4815 31.7179C61.5227 31.6431 61.5782 31.5772 61.6449 31.5238C61.7116 31.4705 61.7882 31.4308 61.8702 31.4071C61.9522 31.3833 62.0381 31.376 62.123 31.3854C62.2079 31.3948 62.2901 31.4209 62.3649 31.4621C62.4397 31.5033 62.5056 31.5589 62.5589 31.6256C62.8294 31.9704 63.1722 32.2517 63.5632 32.4498C63.9542 32.6478 64.3838 32.7578 64.8218 32.7718C65.2599 32.7859 65.6957 32.7038 66.0985 32.5312C66.5014 32.3587 66.8616 32.0999 67.1536 31.7731C67.2111 31.71 67.2805 31.6588 67.3578 31.6225C67.4351 31.5862 67.5188 31.5654 67.6041 31.5614C67.6894 31.5574 67.7746 31.5703 67.855 31.5993C67.9353 31.6282 68.0091 31.6727 68.0723 31.7303C68.1354 31.7878 68.1866 31.8571 68.2229 31.9344C68.2592 32.0117 68.28 32.0954 68.284 32.1807C68.2879 32.266 68.2751 32.3513 68.2461 32.4316C68.2172 32.5119 68.1726 32.5858 68.1151 32.6489Z" fill="#151B23"/>
<g filter="url(#filter1_d_1356_5862)">
<path fill-rule="evenodd" clip-rule="evenodd" d="M15.0778 43.8364C12.2198 44.1274 10.1391 46.684 10.4306 49.5467L13.5091 79.7836C13.8006 82.6463 16.3538 84.7312 19.2118 84.4402L27.8891 83.5567L33.2864 88.6107C33.4244 88.7318 33.5875 88.8233 33.7651 88.8792C33.9428 88.9351 34.131 88.9542 34.3174 88.9353C34.5038 88.9163 34.6842 88.8596 34.8469 88.7691C35.0097 88.6785 35.151 88.556 35.2618 88.4096L39.5297 82.3715L49.3993 81.3667C52.2574 81.0757 54.338 78.5191 54.0465 75.6563L50.968 45.4195C50.6765 42.5567 48.1233 40.4719 45.2653 40.7629L15.0778 43.8364Z" fill="white"/>
</g>
<rect x="12.7539" y="46.6875" width="35.5452" height="35.5452" rx="3.46783" transform="rotate(-5.81346 12.7539 46.6875)" fill="#FFD0E8"/>
<g clip-path="url(#clip0_1356_5862)">
<rect width="20.807" height="20.807" transform="translate(20.8315 53.2725) rotate(-5.81346)" fill="#FFD0E8"/>
<path d="M41.95 68.1152L41.3031 68.1811L40.3152 58.478C40.2977 58.3064 40.2128 58.1488 40.0792 58.0398C39.9455 57.9309 39.774 57.8795 39.6025 57.897L34.4275 58.4238C34.2559 58.4413 34.0983 58.5262 33.9893 58.6599C33.8804 58.7935 33.829 58.965 33.8465 59.1366L34.1758 62.3709L30.2945 62.7661L29.57 55.6505C29.5526 55.4789 29.4677 55.3213 29.334 55.2124C29.2003 55.1034 29.0289 55.052 28.8573 55.0695L23.6823 55.5964C23.5108 55.6138 23.3532 55.6987 23.2442 55.8324C23.1352 55.9661 23.0838 56.1375 23.1013 56.3091L24.4844 69.8934L23.8375 69.9593C23.6659 69.9768 23.5083 70.0617 23.3994 70.1953C23.2904 70.329 23.239 70.5005 23.2565 70.672C23.274 70.8436 23.3589 71.0012 23.4925 71.1102C23.6262 71.2191 23.7977 71.2705 23.9692 71.2531L42.0817 69.409C42.2533 69.3915 42.4109 69.3066 42.5198 69.1729C42.6288 69.0393 42.6802 68.8678 42.6627 68.6962C42.6452 68.5247 42.5603 68.3671 42.4267 68.2581C42.293 68.1491 42.1215 68.0977 41.95 68.1152ZM35.2061 59.6517L39.0873 59.2566L40.0094 68.3128L36.1281 68.708L35.2061 59.6517ZM34.3075 63.6647L34.8344 68.8397L30.9531 69.2348L30.4262 64.0599L34.3075 63.6647ZM24.4609 56.8243L28.3422 56.4291L29.6594 69.3666L25.7781 69.7617L24.4609 56.8243ZM27.246 58.5014L27.3777 59.7952C27.3952 59.9667 27.3438 60.1382 27.2348 60.2719C27.1259 60.4055 26.9683 60.4904 26.7967 60.5079C26.6251 60.5254 26.4537 60.474 26.32 60.365C26.1863 60.2561 26.1014 60.0985 26.084 59.9269L25.9522 58.6332C25.9348 58.4616 25.9862 58.2901 26.0951 58.1565C26.2041 58.0228 26.3617 57.9379 26.5333 57.9204C26.7048 57.9029 26.8763 57.9544 27.01 58.0633C27.1436 58.1723 27.2285 58.3299 27.246 58.5014ZM27.6412 62.3827L27.7729 63.6764C27.7903 63.848 27.7389 64.0195 27.63 64.1531C27.521 64.2868 27.3634 64.3717 27.1919 64.3892C27.0203 64.4066 26.8488 64.3552 26.7152 64.2463C26.5815 64.1373 26.4966 63.9797 26.4791 63.8081L26.3474 62.5144C26.3299 62.3428 26.3813 62.1714 26.4903 62.0377C26.5993 61.904 26.7569 61.8191 26.9284 61.8017C27.1 61.7842 27.2715 61.8356 27.4051 61.9446C27.5388 62.0535 27.6237 62.2111 27.6412 62.3827ZM28.0363 66.2639L28.168 67.5577C28.1855 67.7292 28.1341 67.9007 28.0251 68.0344C27.9162 68.168 27.7586 68.2529 27.587 68.2704C27.4155 68.2879 27.244 68.2365 27.1103 68.1275C26.9767 68.0185 26.8918 67.8609 26.8743 67.6894L26.7426 66.3956C26.7251 66.2241 26.7765 66.0526 26.8855 65.9189C26.9944 65.7853 27.152 65.7004 27.3236 65.6829C27.4951 65.6654 27.6666 65.7168 27.8003 65.8258C27.9339 65.9348 28.0189 66.0924 28.0363 66.2639ZM32.0493 67.1625L31.9176 65.8688C31.9001 65.6972 31.9515 65.5257 32.0605 65.3921C32.1694 65.2584 32.327 65.1735 32.4986 65.156C32.6701 65.1386 32.8416 65.19 32.9753 65.2989C33.1089 65.4079 33.1938 65.5655 33.2113 65.737L33.343 67.0308C33.3605 67.2023 33.3091 67.3738 33.2001 67.5075C33.0912 67.6411 32.9336 67.726 32.762 67.7435C32.5905 67.761 32.419 67.7096 32.2853 67.6006C32.1517 67.4917 32.0668 67.3341 32.0493 67.1625ZM37.2243 66.6356L37.0926 65.3419C37.0751 65.1703 37.1265 64.9988 37.2354 64.8652C37.3444 64.7315 37.502 64.6466 37.6736 64.6291C37.8451 64.6117 38.0166 64.6631 38.1503 64.772C38.2839 64.881 38.3688 65.0386 38.3863 65.2101L38.518 66.5039C38.5355 66.6755 38.4841 66.8469 38.3751 66.9806C38.2662 67.1143 38.1086 67.1992 37.937 67.2166C37.7654 67.2341 37.594 67.1827 37.4603 67.0737C37.3266 66.9648 37.2417 66.8072 37.2243 66.6356ZM36.8291 62.7544L36.6974 61.4606C36.6799 61.2891 36.7313 61.1176 36.8403 60.9839C36.9492 60.8503 37.1068 60.7654 37.2784 60.7479C37.45 60.7304 37.6214 60.7818 37.7551 60.8908C37.8888 60.9997 37.9737 61.1573 37.9911 61.3289L38.1229 62.6227C38.1403 62.7942 38.0889 62.9657 37.98 63.0994C37.871 63.233 37.7134 63.3179 37.5418 63.3354C37.3703 63.3529 37.1988 63.3015 37.0651 63.1925C36.9315 63.0835 36.8466 62.9259 36.8291 62.7544Z" fill="#151B23"/>
</g>
<g filter="url(#filter2_d_1356_5862)">
<path fill-rule="evenodd" clip-rule="evenodd" d="M69.2317 57.3966C66.3841 57.0163 63.7669 59.0202 63.386 61.8724L59.3627 91.9981C58.9818 94.8503 60.9815 97.4708 63.829 97.8511L72.4744 99.0057L76.5513 105.174C76.6574 105.324 76.7949 105.451 76.9547 105.547C77.1145 105.642 77.2931 105.704 77.4788 105.729C77.6645 105.754 77.8532 105.741 78.0325 105.691C78.2118 105.64 78.3777 105.554 78.5194 105.437L84.0722 100.555L93.9055 101.868C96.7531 102.248 99.3703 100.244 99.7512 97.3919L103.774 67.2662C104.155 64.414 102.156 61.7935 99.3081 61.4132L69.2317 57.3966Z" fill="white"/>
</g>
<rect x="66.3091" y="59.6309" width="35.5452" height="35.5452" rx="3.46783" transform="rotate(7.60675 66.3091 59.6309)" fill="#FFD0E8"/>
<rect width="20.807" height="20.807" transform="translate(72.6377 67.9102) rotate(7.60675)" fill="#FFD0E8"/>
<path d="M80.7776 78.1809C80.8031 77.9897 80.8847 77.8103 81.0122 77.6655C81.1397 77.5207 81.3072 77.417 81.4936 77.3674C81.68 77.3178 81.877 77.3247 82.0595 77.387C82.2421 77.4493 82.402 77.5644 82.5192 77.7177C82.6363 77.8709 82.7054 78.0555 82.7177 78.248C82.7299 78.4405 82.6848 78.6323 82.588 78.7992C82.4913 78.9661 82.3472 79.1005 82.174 79.1855C82.0009 79.2705 81.8064 79.3023 81.6152 79.2767C81.3588 79.2425 81.1265 79.1078 80.9694 78.9023C80.8123 78.6968 80.7433 78.4373 80.7776 78.1809ZM78.0705 78.8033C78.2617 78.8289 78.4561 78.7971 78.6293 78.7121C78.8025 78.6271 78.9466 78.4927 79.0433 78.3258C79.1401 78.1589 79.1852 77.9671 79.1729 77.7746C79.1607 77.5821 79.0916 77.3975 78.9745 77.2443C78.8573 77.091 78.6973 76.976 78.5148 76.9136C78.3322 76.8513 78.1353 76.8444 77.9489 76.894C77.7625 76.9436 77.5949 77.0474 77.4675 77.1921C77.34 77.3369 77.2584 77.5163 77.2328 77.7075C77.1986 77.9639 77.2676 78.2234 77.4247 78.4289C77.5818 78.6344 77.8141 78.7691 78.0705 78.8033ZM85.1599 79.7501C85.3511 79.7757 85.5456 79.7439 85.7188 79.6589C85.8919 79.5739 86.036 79.4395 86.1328 79.2726C86.2295 79.1057 86.2746 78.9139 86.2624 78.7214C86.2501 78.5289 86.1811 78.3443 86.0639 78.1911C85.9468 78.0378 85.7868 77.9227 85.6043 77.8604C85.4217 77.798 85.2248 77.7912 85.0383 77.8408C84.8519 77.8904 84.6844 77.9941 84.5569 78.1389C84.4295 78.2837 84.3478 78.4631 84.3223 78.6543C84.288 78.9107 84.3571 79.1702 84.5141 79.3757C84.6712 79.5812 84.9035 79.7159 85.1599 79.7501ZM90.8113 74.2729L89.4342 84.5849C89.3885 84.9267 89.2089 85.2365 88.9349 85.4459C88.6609 85.6554 88.3149 85.7474 87.973 85.7017L83.1047 85.0516L81.745 86.833C81.6059 87.0152 81.4211 87.1574 81.2094 87.2451C80.9977 87.3329 80.7665 87.3631 80.5393 87.3328C80.3121 87.3025 80.097 87.2126 79.9157 87.0724C79.7344 86.9321 79.5934 86.7464 79.507 86.5342L78.6625 84.4583L73.7941 83.8082C73.4523 83.7625 73.1425 83.5829 72.9331 83.3089C72.7236 83.0349 72.6316 82.6889 72.6773 82.347L74.0544 72.0351C74.1001 71.6932 74.2797 71.3835 74.5537 71.1741C74.8277 70.9646 75.1737 70.8726 75.5156 70.9182L89.6945 72.8118C90.0363 72.8575 90.3461 73.0371 90.5555 73.3111C90.765 73.5851 90.857 73.9311 90.8113 74.2729ZM89.5223 74.1008L75.3434 72.2072L73.9663 82.5192L79.2084 83.2192C79.3227 83.2335 79.4311 83.2778 79.5226 83.3476C79.6142 83.4175 79.6855 83.5104 79.7293 83.6168L80.7171 86.0447L82.3073 83.9611C82.3776 83.8699 82.4708 83.799 82.5774 83.7556C82.6841 83.7122 82.8003 83.6979 82.9143 83.7142L88.1452 84.4127L89.5223 74.1008Z" fill="#151B23"/>
<defs>
<filter id="filter0_d_1356_5862" x="33.6678" y="0.000349164" width="62.514" height="68.0697" filterUnits="userSpaceOnUse" color-interpolation-filters="sRGB">
<feFlood flood-opacity="0" result="BackgroundImageFix"/>
<feColorMatrix in="SourceAlpha" type="matrix" values="0 0 0 0 0 0 0 0 0 0 0 0 0 0 0 0 0 0 127 0" result="hardAlpha"/>
<feOffset dy="1.73391"/>
<feGaussianBlur stdDeviation="5.20174"/>
<feComposite in2="hardAlpha" operator="out"/>
<feColorMatrix type="matrix" values="0 0 0 0 0 0 0 0 0 0 0 0 0 0 0 0 0 0 0.12 0"/>
<feBlend mode="normal" in2="BackgroundImageFix" result="effect1_dropShadow_1356_5862"/>
<feBlend mode="normal" in="SourceGraphic" in2="effect1_dropShadow_1356_5862" result="shape"/>
</filter>
<filter id="filter1_d_1356_5862" x="-0.000166893" y="32.0658" width="64.4774" height="69.014" filterUnits="userSpaceOnUse" color-interpolation-filters="sRGB">
<feFlood flood-opacity="0" result="BackgroundImageFix"/>
<feColorMatrix in="SourceAlpha" type="matrix" values="0 0 0 0 0 0 0 0 0 0 0 0 0 0 0 0 0 0 127 0" result="hardAlpha"/>
<feOffset dy="1.73391"/>
<feGaussianBlur stdDeviation="5.20174"/>
<feComposite in2="hardAlpha" operator="out"/>
<feColorMatrix type="matrix" values="0 0 0 0 0 0 0 0 0 0 0 0 0 0 0 0 0 0 0.12 0"/>
<feBlend mode="normal" in2="BackgroundImageFix" result="effect1_dropShadow_1356_5862"/>
<feBlend mode="normal" in="SourceGraphic" in2="effect1_dropShadow_1356_5862" result="shape"/>
</filter>
<filter id="filter2_d_1356_5862" x="48.9129" y="48.681" width="65.3114" height="69.1976" filterUnits="userSpaceOnUse" color-interpolation-filters="sRGB">
<feFlood flood-opacity="0" result="BackgroundImageFix"/>
<feColorMatrix in="SourceAlpha" type="matrix" values="0 0 0 0 0 0 0 0 0 0 0 0 0 0 0 0 0 0 127 0" result="hardAlpha"/>
<feOffset dy="1.73391"/>
<feGaussianBlur stdDeviation="5.20174"/>
<feComposite in2="hardAlpha" operator="out"/>
<feColorMatrix type="matrix" values="0 0 0 0 0 0 0 0 0 0 0 0 0 0 0 0 0 0 0.12 0"/>
<feBlend mode="normal" in2="BackgroundImageFix" result="effect1_dropShadow_1356_5862"/>
<feBlend mode="normal" in="SourceGraphic" in2="effect1_dropShadow_1356_5862" result="shape"/>
</filter>
<clipPath id="clip0_1356_5862">
<rect width="20.807" height="20.807" fill="white" transform="translate(20.8315 53.2725) rotate(-5.81346)"/>
</clipPath>
</defs>
</svg>
