<svg width="26" height="26" viewBox="0 0 26 26" fill="none" xmlns="http://www.w3.org/2000/svg">
<rect width="25.8873" height="25.8873" rx="12.9437" fill="#151B23"/>
<g clip-path="url(#clip0_697_8179)">
<path d="M15.8578 13.4003L11.56 17.6982C11.4389 17.8193 11.2746 17.8873 11.1033 17.8873C10.932 17.8873 10.7678 17.8193 10.6467 17.6982C10.5256 17.5771 10.4575 17.4128 10.4575 17.2415C10.4575 17.0702 10.5256 16.906 10.6467 16.7849L14.4884 12.9442L10.6477 9.10245C10.5878 9.04248 10.5402 8.97129 10.5078 8.89293C10.4753 8.81458 10.4586 8.73061 10.4586 8.6458C10.4586 8.56099 10.4753 8.47701 10.5078 8.39866C10.5402 8.32031 10.5878 8.24912 10.6477 8.18915C10.7077 8.12918 10.7789 8.08161 10.8573 8.04916C10.9356 8.0167 11.0196 8 11.1044 8C11.1892 8 11.2732 8.0167 11.3515 8.04916C11.4299 8.08161 11.5011 8.12918 11.561 8.18915L15.8589 12.487C15.9189 12.547 15.9665 12.6182 15.999 12.6966C16.0314 12.775 16.0481 12.859 16.048 12.9439C16.0479 13.0287 16.031 13.1127 15.9984 13.1911C15.9658 13.2694 15.918 13.3405 15.8578 13.4003Z" fill="white"/>
</g>
<defs>
<clipPath id="clip0_697_8179">
<rect width="9.88732" height="9.88732" fill="white" transform="translate(8 8)"/>
</clipPath>
</defs>
</svg>
