<svg width="26" height="26" viewBox="0 0 26 26" fill="none" xmlns="http://www.w3.org/2000/svg">
<rect width="25.8873" height="25.8873" rx="12.9437" fill="#DDDDDD"/>
<g clip-path="url(#clip0_1205_10898)">
<path d="M15.8578 13.4001L11.56 17.6979C11.4389 17.819 11.2746 17.8871 11.1033 17.8871C10.932 17.8871 10.7678 17.819 10.6467 17.6979C10.5256 17.5768 10.4575 17.4126 10.4575 17.2413C10.4575 17.07 10.5256 16.9057 10.6467 16.7846L14.4884 12.944L10.6477 9.1022C10.5878 9.04223 10.5402 8.97104 10.5078 8.89269C10.4753 8.81434 10.4586 8.73036 10.4586 8.64555C10.4586 8.56075 10.4753 8.47677 10.5078 8.39842C10.5402 8.32007 10.5878 8.24887 10.6477 8.18891C10.7077 8.12894 10.7789 8.08137 10.8573 8.04891C10.9356 8.01646 11.0196 7.99976 11.1044 7.99976C11.1892 7.99976 11.2732 8.01646 11.3515 8.04891C11.4299 8.08137 11.5011 8.12894 11.561 8.18891L15.8589 12.4868C15.9189 12.5467 15.9665 12.618 15.999 12.6964C16.0314 12.7748 16.0481 12.8588 16.048 12.9436C16.0479 13.0285 16.031 13.1125 15.9984 13.1908C15.9658 13.2691 15.918 13.3402 15.8578 13.4001Z" fill="#171E26"/>
</g>
<defs>
<clipPath id="clip0_1205_10898">
<rect width="9.88732" height="9.88732" fill="white" transform="translate(8 8)"/>
</clipPath>
</defs>
</svg>
