<svg width="24" height="24" viewBox="0 0 24 24" fill="none" xmlns="http://www.w3.org/2000/svg">
<g clip-path="url(#clip0_3010_681)">
<path d="M23.7195 22.4153L17.9485 16.6454C19.6212 14.6372 20.4552 12.0615 20.2772 9.45402C20.0992 6.84655 18.9228 4.40809 16.9927 2.6459C15.0626 0.883717 12.5274 -0.0665228 9.91454 -0.00714114C7.30167 0.0522405 4.81229 1.11667 2.96423 2.96472C1.11618 4.81277 0.0517522 7.30216 -0.00762942 9.91502C-0.0670111 12.5279 0.883228 15.0631 2.64541 16.9932C4.4076 18.9233 6.84606 20.0997 9.45353 20.2777C12.061 20.4557 14.6367 19.6216 16.6449 17.949L22.4148 23.72C22.5005 23.8057 22.6022 23.8736 22.7141 23.92C22.826 23.9664 22.946 23.9902 23.0672 23.9902C23.1883 23.9902 23.3083 23.9664 23.4202 23.92C23.5321 23.8736 23.6339 23.8057 23.7195 23.72C23.8052 23.6343 23.8732 23.5326 23.9195 23.4207C23.9659 23.3088 23.9897 23.1888 23.9897 23.0676C23.9897 22.9465 23.9659 22.8265 23.9195 22.7146C23.8732 22.6026 23.8052 22.5009 23.7195 22.4153ZM1.85938 10.1586C1.85938 8.51723 2.34609 6.91277 3.25796 5.54805C4.16983 4.18334 5.46591 3.11967 6.9823 2.49157C8.49869 1.86346 10.1673 1.69912 11.7771 2.01932C13.3869 2.33953 14.8655 3.1299 16.0261 4.2905C17.1867 5.45109 17.9771 6.92978 18.2973 8.53957C18.6175 10.1494 18.4532 11.8179 17.8251 13.3343C17.197 14.8507 16.1333 16.1468 14.7686 17.0587C13.4039 17.9705 11.7994 18.4573 10.1581 18.4573C7.95787 18.4548 5.84848 17.5797 4.2927 16.0239C2.73693 14.4682 1.86182 12.3588 1.85938 10.1586Z" fill="#6C6E7A"/>
</g>
<defs>
<clipPath id="clip0_3010_681">
<rect width="24" height="24" fill="white"/>
</clipPath>
</defs>
</svg>
