<svg width="24" height="24" viewBox="0 0 24 24" fill="none" xmlns="http://www.w3.org/2000/svg">
<path d="M12.001 6.80159C10.9839 6.80159 9.98968 7.10319 9.144 7.66825C8.29832 8.23332 7.6392 9.03646 7.24998 9.97613C6.86075 10.9158 6.75892 11.9498 6.95734 12.9473C7.15576 13.9449 7.64554 14.8612 8.36473 15.5804C9.08392 16.2996 10.0002 16.7893 10.9978 16.9878C11.9953 17.1862 13.0293 17.0843 13.969 16.6951C14.9086 16.3059 15.7118 15.6468 16.2768 14.8011C16.8419 13.9554 17.1435 12.9612 17.1435 11.9441C17.1421 10.5806 16.5998 9.27345 15.6357 8.30935C14.6716 7.34526 13.3645 6.803 12.001 6.80159ZM12.001 15.3724C11.323 15.3724 10.6601 15.1713 10.0963 14.7946C9.53256 14.4179 9.09314 13.8825 8.83366 13.256C8.57417 12.6296 8.50628 11.9403 8.63857 11.2752C8.77085 10.6102 9.09736 9.99934 9.57682 9.51988C10.0563 9.04042 10.6672 8.71391 11.3322 8.58162C11.9972 8.44934 12.6865 8.51723 13.313 8.77671C13.9394 9.0362 14.4749 9.47561 14.8516 10.0394C15.2283 10.6032 15.4293 11.266 15.4293 11.9441C15.4293 12.8533 15.0681 13.7253 14.4252 14.3683C13.7823 15.0112 12.9103 15.3724 12.001 15.3724ZM23.7795 9.71673C23.7556 9.59604 23.706 9.4819 23.6341 9.38207C23.5622 9.28225 23.4696 9.19907 23.3627 9.1382L20.1669 7.31691L20.154 3.71502C20.1536 3.59097 20.1263 3.46849 20.074 3.35603C20.0216 3.24356 19.9455 3.14381 19.8508 3.06364C18.6915 2.08303 17.3565 1.33155 15.9168 0.849156C15.8034 0.81078 15.6833 0.796578 15.5641 0.807465C15.4449 0.818351 15.3293 0.854086 15.2247 0.912365L12.001 2.71438L8.77411 0.909151C8.66949 0.850543 8.55374 0.814539 8.43434 0.803467C8.31494 0.792394 8.19455 0.806499 8.08094 0.84487C6.64227 1.33079 5.30881 2.08514 4.15122 3.06792C4.0567 3.14797 3.98064 3.24756 3.9283 3.35983C3.87596 3.47209 3.84857 3.59437 3.84803 3.71824L3.83196 7.32333L0.636118 9.14463C0.529199 9.2055 0.436637 9.28868 0.364725 9.3885C0.292813 9.48833 0.243235 9.60247 0.219362 9.72316C-0.0731208 11.1929 -0.0731208 12.7059 0.219362 14.1757C0.243235 14.2964 0.292813 14.4105 0.364725 14.5104C0.436637 14.6102 0.529199 14.6934 0.636118 14.7542L3.83196 16.5755L3.84482 20.1774C3.8452 20.3015 3.87252 20.4239 3.92486 20.5364C3.97721 20.6489 4.05334 20.7486 4.14801 20.8288C5.30729 21.8094 6.64228 22.5609 8.08201 23.0433C8.19539 23.0817 8.31555 23.0959 8.43475 23.085C8.55395 23.0741 8.66955 23.0383 8.77411 22.9801L12.001 21.1738L15.2279 22.979C15.3556 23.0501 15.4996 23.0871 15.6458 23.0861C15.7394 23.0861 15.8323 23.0709 15.9211 23.0411C17.3596 22.5559 18.6931 21.8022 19.8508 20.8202C19.9453 20.7402 20.0214 20.6406 20.0737 20.5283C20.1261 20.4161 20.1535 20.2938 20.154 20.1699L20.1701 16.5648L23.3659 14.7435C23.4728 14.6826 23.5654 14.5995 23.6373 14.4996C23.7092 14.3998 23.7588 14.2857 23.7827 14.165C24.0735 12.6964 24.0724 11.1849 23.7795 9.71673ZM22.1724 13.4568L19.1116 15.1978C18.9775 15.274 18.8664 15.3851 18.7902 15.5192C18.728 15.6263 18.6627 15.7399 18.5963 15.847C18.5112 15.9821 18.4659 16.1384 18.4656 16.298L18.4495 19.7532C17.6268 20.3992 16.7102 20.9159 15.7315 21.2852L12.6438 19.5646C12.5156 19.4937 12.3714 19.4568 12.2249 19.4575H12.2046C12.0749 19.4575 11.9442 19.4575 11.8146 19.4575C11.6613 19.4536 11.5097 19.4906 11.3753 19.5646L8.28557 21.2895C7.30476 20.923 6.38566 20.4089 5.56005 19.7649L5.54827 16.3152C5.54774 16.1552 5.50246 15.9986 5.41756 15.8631C5.35114 15.7559 5.28578 15.6488 5.22472 15.5352C5.149 15.3991 5.03797 15.2858 4.90331 15.2074L1.83925 13.4622C1.68069 12.4592 1.68069 11.4375 1.83925 10.4345L4.89474 8.69038C5.02885 8.61412 5.13989 8.50308 5.21615 8.36897C5.27829 8.26184 5.34364 8.14827 5.41006 8.04114C5.49509 7.90604 5.54038 7.74973 5.54077 7.5901L5.55684 4.13499C6.37956 3.48891 7.29613 2.97227 8.27486 2.60296L11.3582 4.32355C11.4924 4.39793 11.6441 4.43493 11.7975 4.43068C11.9271 4.43068 12.0578 4.43068 12.1874 4.43068C12.3408 4.43452 12.4923 4.39754 12.6267 4.32355L15.7165 2.59867C16.6973 2.96516 17.6164 3.47926 18.442 4.12321L18.4538 7.57296C18.4543 7.73291 18.4996 7.88951 18.5845 8.02507C18.6509 8.1322 18.7162 8.23934 18.7773 8.3529C18.853 8.48909 18.9641 8.60234 19.0987 8.68074L22.1628 10.426C22.3235 11.4297 22.3253 12.4525 22.1681 13.4568H22.1724Z" fill="#151B23"/>
</svg>
