<svg width="16" height="16" viewBox="0 0 16 16" fill="none" xmlns="http://www.w3.org/2000/svg">
<g clip-path="url(#clip0_8346_2648)">
<path d="M14.8714 7.38488V14.7693C14.8714 15.0957 14.7417 15.4087 14.5109 15.6395C14.2801 15.8703 13.967 16 13.6406 16H2.56404C2.23763 16 1.92459 15.8703 1.69379 15.6395C1.46298 15.4087 1.33331 15.0957 1.33331 14.7693V7.38488C1.33331 7.05847 1.46298 6.74542 1.69379 6.51462C1.92459 6.28381 2.23763 6.15414 2.56404 6.15414H4.41014C4.57335 6.15414 4.72987 6.21898 4.84527 6.33438C4.96068 6.44978 5.02551 6.6063 5.02551 6.76951C5.02551 6.93271 4.96068 7.08924 4.84527 7.20464C4.72987 7.32004 4.57335 7.38488 4.41014 7.38488H2.56404V14.7693H13.6406V7.38488H11.7945C11.6313 7.38488 11.4748 7.32004 11.3594 7.20464C11.244 7.08924 11.1792 6.93271 11.1792 6.76951C11.1792 6.6063 11.244 6.44978 11.3594 6.33438C11.4748 6.21898 11.6313 6.15414 11.7945 6.15414H13.6406C13.967 6.15414 14.2801 6.28381 14.5109 6.51462C14.7417 6.74542 14.8714 7.05847 14.8714 7.38488ZM5.46088 4.12805L7.48697 2.10119V9.23097C7.48697 9.39418 7.55181 9.5507 7.66721 9.6661C7.78261 9.78151 7.93913 9.84634 8.10234 9.84634C8.26554 9.84634 8.42207 9.78151 8.53747 9.6661C8.65287 9.5507 8.7177 9.39418 8.7177 9.23097V2.10119L10.7438 4.12805C10.8593 4.24352 11.0159 4.30839 11.1792 4.30839C11.3425 4.30839 11.4991 4.24352 11.6145 4.12805C11.73 4.01258 11.7949 3.85598 11.7949 3.69268C11.7949 3.52938 11.73 3.37278 11.6145 3.25731L8.53771 0.180479C8.48056 0.123264 8.41269 0.0778753 8.33799 0.0469074C8.26328 0.0159395 8.18321 0 8.10234 0C8.02147 0 7.94139 0.0159395 7.86669 0.0469074C7.79199 0.0778753 7.72412 0.123264 7.66697 0.180479L4.59014 3.25731C4.47467 3.37278 4.4098 3.52938 4.4098 3.69268C4.4098 3.85598 4.47467 4.01258 4.59014 4.12805C4.70561 4.24352 4.86221 4.30839 5.02551 4.30839C5.1888 4.30839 5.34541 4.24352 5.46088 4.12805Z" fill="white"/>
</g>
<defs>
<clipPath id="clip0_8346_2648">
<rect width="16" height="16" fill="white"/>
</clipPath>
</defs>
</svg>
