<svg width="200" height="200" viewBox="0 0 200 200" fill="none" xmlns="http://www.w3.org/2000/svg">
<g filter="url(#filter0_ddii_1020_6132)">
<path d="M111.248 35.7368C115.081 40.4965 121.367 42.5344 127.263 40.9432C136.755 38.3888 146.177 45.2423 146.678 55.0688C146.999 61.1685 150.874 66.5145 156.574 68.7059C165.746 72.2233 169.355 83.32 163.989 91.5693C160.658 96.6919 160.658 103.308 163.989 108.431C169.342 116.68 165.746 127.777 156.574 131.294C150.874 133.486 146.999 138.831 146.678 144.931C146.177 154.758 136.755 161.611 127.263 159.057C121.367 157.466 115.095 159.517 111.248 164.263C105.074 171.912 93.4216 171.912 87.2471 164.263C83.4142 159.503 77.1282 157.466 71.2324 159.057C61.7407 161.611 52.3187 154.758 51.8169 144.931C51.4963 138.831 47.6216 133.486 41.921 131.294C32.7498 127.777 29.1399 116.68 34.506 108.431C37.8372 103.308 37.8372 96.6919 34.506 91.5693C29.1538 83.32 32.7498 72.2233 41.921 68.7059C47.6216 66.5145 51.4963 61.1685 51.8169 55.0688C52.3187 45.2423 61.7407 38.3888 71.2324 40.9432C77.1282 42.5344 83.4003 40.4826 87.2471 35.7368C93.4216 28.0877 105.074 28.0877 111.248 35.7368Z" fill="url(#paint0_linear_1020_6132)"/>
<path d="M87.6357 36.0508C93.6098 28.65 104.884 28.6497 110.858 36.0498V36.0508C114.816 40.9652 121.307 43.0686 127.394 41.4258L127.393 41.4248C136.433 38.992 145.409 45.3802 146.15 54.6504L146.179 55.0947C146.51 61.391 150.509 66.9104 156.395 69.1729H156.396C165.269 72.5764 168.763 83.3144 163.57 91.2969C160.239 96.42 160.135 102.99 163.258 108.203L163.57 108.703C168.75 116.686 165.269 127.424 156.396 130.827H156.395C150.693 133.019 146.762 138.267 146.221 144.317L146.179 144.905C145.693 154.414 136.577 161.045 127.394 158.574C121.306 156.931 114.83 159.05 110.859 163.948V163.949C104.885 171.35 93.6101 171.35 87.6357 163.949H87.6367C83.6792 159.035 77.1892 156.932 71.1025 158.574C62.0625 161.007 53.0873 154.62 52.3457 145.35L52.3164 144.905C51.9855 138.609 47.9858 133.09 42.1006 130.827H42.0996C33.2259 127.423 29.7323 116.686 34.9248 108.703C38.3637 103.415 38.3637 96.5852 34.9248 91.2969H34.9258C29.7462 83.3136 33.2266 72.5762 42.0996 69.1729H42.1006C47.802 66.9811 51.7335 61.7329 52.2744 55.6826L52.3164 55.0947C52.802 45.5858 61.9189 38.9544 71.1025 41.4258C77.1905 43.0687 83.6654 40.9499 87.6357 36.0518V36.0508Z" stroke="white" stroke-opacity="0.5"/>
<path d="M85.4042 127.668C82.2542 127.668 79.4463 127.127 76.9804 126.045C74.5304 124.964 72.5815 123.46 71.1338 121.535C69.702 119.594 68.9224 117.343 68.7951 114.782H74.8088C74.936 116.357 75.477 117.717 76.4315 118.863C77.386 119.992 78.6349 120.867 80.1781 121.488C81.7213 122.108 83.4315 122.418 85.3088 122.418C87.4088 122.418 89.2701 122.052 90.8929 121.32C92.5156 120.589 93.7883 119.57 94.711 118.266C95.6338 116.961 96.0951 115.45 96.0951 113.732C96.0951 111.934 95.6497 110.351 94.7588 108.983C93.8679 107.599 92.5633 106.517 90.8451 105.738C89.127 104.958 87.027 104.568 84.5451 104.568H80.6315V99.3182H84.5451C86.486 99.3182 88.1883 98.9682 89.652 98.2682C91.1315 97.5682 92.2849 96.5818 93.1122 95.3091C93.9554 94.0364 94.377 92.5409 94.377 90.8227C94.377 89.1682 94.011 87.7284 93.2792 86.5034C92.5474 85.2784 91.5133 84.3239 90.177 83.6398C88.8565 82.9557 87.2974 82.6136 85.4997 82.6136C83.8133 82.6136 82.2224 82.9239 80.727 83.5443C79.2474 84.1489 78.0383 85.0318 77.0997 86.1932C76.161 87.3386 75.652 88.7227 75.5724 90.3455H69.8451C69.9406 87.7841 70.7122 85.5409 72.1599 83.6159C73.6076 81.675 75.5008 80.1636 77.8395 79.0818C80.194 78 82.7792 77.4591 85.5951 77.4591C88.6179 77.4591 91.211 78.0716 93.3747 79.2966C95.5383 80.5057 97.2008 82.1045 98.3622 84.0932C99.5235 86.0818 100.104 88.2295 100.104 90.5364C100.104 93.2886 99.3804 95.6352 97.9326 97.5761C96.5008 99.517 94.552 100.861 92.086 101.609V101.991C95.1724 102.5 97.5826 103.813 99.3167 105.928C101.051 108.028 101.918 110.63 101.918 113.732C101.918 116.389 101.194 118.775 99.7463 120.891C98.3145 122.991 96.3576 124.645 93.8758 125.855C91.394 127.064 88.5701 127.668 85.4042 127.668ZM126.172 78.1273V127H120.254V84.3318H119.967L108.036 92.2545V86.2409L120.254 78.1273H126.172Z" fill="white"/>
</g>
<defs>
<filter id="filter0_ddii_1020_6132" x="-25.6673" y="-24.2413" width="251.335" height="251.335" filterUnits="userSpaceOnUse" color-interpolation-filters="sRGB">
<feFlood flood-opacity="0" result="BackgroundImageFix"/>
<feColorMatrix in="SourceAlpha" type="matrix" values="0 0 0 0 0 0 0 0 0 0 0 0 0 0 0 0 0 0 127 0" result="hardAlpha"/>
<feOffset dy="1.42596"/>
<feGaussianBlur stdDeviation="12.8336"/>
<feComposite in2="hardAlpha" operator="out"/>
<feColorMatrix type="matrix" values="0 0 0 0 0.0316793 0 0 0 0 0.274353 0 0 0 0 0.518952 0 0 0 0.05 0"/>
<feBlend mode="normal" in2="BackgroundImageFix" result="effect1_dropShadow_1020_6132"/>
<feColorMatrix in="SourceAlpha" type="matrix" values="0 0 0 0 0 0 0 0 0 0 0 0 0 0 0 0 0 0 127 0" result="hardAlpha"/>
<feOffset dy="2.85192"/>
<feGaussianBlur stdDeviation="1.42596"/>
<feComposite in2="hardAlpha" operator="out"/>
<feColorMatrix type="matrix" values="0 0 0 0 0.0142424 0 0 0 0 0.157471 0 0 0 0 0.300699 0 0 0 0.25 0"/>
<feBlend mode="normal" in2="effect1_dropShadow_1020_6132" result="effect2_dropShadow_1020_6132"/>
<feBlend mode="normal" in="SourceGraphic" in2="effect2_dropShadow_1020_6132" result="shape"/>
<feColorMatrix in="SourceAlpha" type="matrix" values="0 0 0 0 0 0 0 0 0 0 0 0 0 0 0 0 0 0 127 0" result="hardAlpha"/>
<feOffset dx="-1.52781" dy="-3.05563"/>
<feGaussianBlur stdDeviation="3.05563"/>
<feComposite in2="hardAlpha" operator="arithmetic" k2="-1" k3="1"/>
<feColorMatrix type="matrix" values="0 0 0 0 1 0 0 0 0 1 0 0 0 0 1 0 0 0 0.5 0"/>
<feBlend mode="normal" in2="shape" result="effect3_innerShadow_1020_6132"/>
<feColorMatrix in="SourceAlpha" type="matrix" values="0 0 0 0 0 0 0 0 0 0 0 0 0 0 0 0 0 0 127 0" result="hardAlpha"/>
<feOffset dx="1.52781" dy="3.05563"/>
<feGaussianBlur stdDeviation="3.05563"/>
<feComposite in2="hardAlpha" operator="arithmetic" k2="-1" k3="1"/>
<feColorMatrix type="matrix" values="0 0 0 0 1 0 0 0 0 1 0 0 0 0 1 0 0 0 0.6 0"/>
<feBlend mode="normal" in2="effect3_innerShadow_1020_6132" result="effect4_innerShadow_1020_6132"/>
</filter>
<linearGradient id="paint0_linear_1020_6132" x1="99.2477" y1="30" x2="99.2477" y2="170" gradientUnits="userSpaceOnUse">
<stop stop-color="#FFD0E8" stop-opacity="0.2"/>
<stop offset="1" stop-color="#FFD0E8"/>
</linearGradient>
</defs>
</svg>
