<svg width="47" height="48" viewBox="0 0 47 48" fill="none" xmlns="http://www.w3.org/2000/svg">
<path d="M23.9603 24.3983L18.3353 30.0233C18.2297 30.1288 18.0866 30.1881 17.9373 30.1881C17.7881 30.1881 17.6449 30.1288 17.5394 30.0233C17.4338 29.9177 17.3745 29.7746 17.3745 29.6253C17.3745 29.476 17.4338 29.3329 17.5394 29.2273L22.7671 24.0003L17.5394 18.7733C17.4338 18.6677 17.3745 18.5246 17.3745 18.3753C17.3745 18.226 17.4338 18.0829 17.5394 17.9773C17.6449 17.8718 17.7881 17.8125 17.9373 17.8125C18.0866 17.8125 18.2297 17.8718 18.3353 17.9773L23.9603 23.6023C24.0126 23.6546 24.0541 23.7166 24.0824 23.7849C24.1107 23.8532 24.1253 23.9264 24.1253 24.0003C24.1253 24.0742 24.1107 24.1474 24.0824 24.2157C24.0541 24.284 24.0126 24.346 23.9603 24.3983ZM29.5853 23.6023L23.9603 17.9773C23.8547 17.8718 23.7116 17.8125 23.5623 17.8125C23.4131 17.8125 23.2699 17.8718 23.1644 17.9773C23.0588 18.0829 22.9995 18.226 22.9995 18.3753C22.9995 18.5246 23.0588 18.6677 23.1644 18.7733L28.3921 24.0003L23.1644 29.2273C23.0588 29.3329 22.9995 29.476 22.9995 29.6253C22.9995 29.7746 23.0588 29.9177 23.1644 30.0233C23.2699 30.1288 23.4131 30.1881 23.5623 30.1881C23.7116 30.1881 23.8547 30.1288 23.9603 30.0233L29.5853 24.3983C29.6376 24.346 29.6791 24.284 29.7074 24.2157C29.7357 24.1474 29.7503 24.0742 29.7503 24.0003C29.7503 23.9264 29.7357 23.8532 29.7074 23.7849C29.6791 23.7166 29.6376 23.6546 29.5853 23.6023Z" fill="#000000"/>
</svg>
