<svg width="15" height="15" viewBox="0 0 15 15" fill="none" xmlns="http://www.w3.org/2000/svg">
<g clip-path="url(#clip0_697_5419)">
<path d="M14.3002 6.00554C14.5534 7.51078 14.3217 9.05755 13.6386 10.4225C12.9554 11.7875 11.8561 12.9 10.4994 13.5995C9.14276 14.299 7.59889 14.5492 6.09072 14.314C4.58256 14.0789 3.18816 13.3705 2.10884 12.2912C1.02952 11.2118 0.321138 9.81744 0.0859724 8.30928C-0.149193 6.80112 0.101027 5.25724 0.800504 3.90056C1.49998 2.54387 2.61252 1.44459 3.97749 0.761421C5.34246 0.0782535 6.88922 -0.153446 8.39446 0.0997769C8.53834 0.125221 8.66635 0.206448 8.75065 0.325789C8.83495 0.445129 8.86872 0.592929 8.84461 0.737039C8.8205 0.881148 8.74046 1.00991 8.62191 1.09531C8.50336 1.18071 8.35587 1.21585 8.21155 1.19308C7.33727 1.04601 6.44145 1.09121 5.58643 1.32555C4.73141 1.55989 3.93772 1.97774 3.2606 2.55C2.58348 3.12227 2.03919 3.83522 1.66562 4.63923C1.29205 5.44323 1.09817 6.31899 1.09747 7.20554C1.09615 8.69805 1.6447 10.1387 2.63834 11.2524C3.25652 10.3566 4.12574 9.66361 5.13672 9.26051C4.59366 8.83278 4.19739 8.24645 4.00301 7.58307C3.80863 6.91968 3.8258 6.21221 4.05214 5.55904C4.27848 4.90587 4.70274 4.33946 5.26591 3.93859C5.82908 3.53771 6.50318 3.3223 7.19446 3.3223C7.88574 3.3223 8.55983 3.53771 9.123 3.93859C9.68618 4.33946 10.1104 4.90587 10.3368 5.55904C10.5631 6.21221 10.5803 6.91968 10.3859 7.58307C10.1915 8.24645 9.79525 8.83278 9.25219 9.26051C10.2632 9.66361 11.1324 10.3566 11.7506 11.2524C12.7442 10.1387 13.2928 8.69805 13.2914 7.20554C13.2915 6.86476 13.2632 6.52456 13.2069 6.18845C13.1942 6.11635 13.1958 6.04244 13.2118 5.97098C13.2278 5.89953 13.2578 5.83195 13.3 5.77214C13.3423 5.71234 13.3959 5.66149 13.4579 5.62255C13.5199 5.58361 13.5891 5.55734 13.6613 5.54526C13.7335 5.53318 13.8074 5.53552 13.8787 5.55216C13.95 5.5688 14.0173 5.5994 14.0767 5.6422C14.1361 5.685 14.1865 5.73914 14.2248 5.80151C14.2632 5.86387 14.2888 5.93322 14.3002 6.00554ZM7.19446 8.86836C7.63296 8.86836 8.06161 8.73833 8.42621 8.49471C8.7908 8.2511 9.07497 7.90483 9.24278 7.49971C9.41059 7.09459 9.45449 6.64881 9.36894 6.21874C9.2834 5.78867 9.07224 5.39362 8.76218 5.08355C8.45211 4.77349 8.05706 4.56233 7.62699 4.47678C7.19692 4.39124 6.75113 4.43514 6.34601 4.60295C5.9409 4.77076 5.59463 5.05493 5.35102 5.41952C5.1074 5.78412 4.97737 6.21277 4.97737 6.65127C4.97737 7.23928 5.21096 7.80321 5.62674 8.21899C6.04252 8.63477 6.60645 8.86836 7.19446 8.86836ZM7.19446 13.3025C8.54783 13.3039 9.86279 12.8527 10.9303 12.0208C10.5293 11.3937 9.9769 10.8776 9.32403 10.5201C8.67115 10.1627 7.93879 9.97528 7.19446 9.97528C6.45012 9.97528 5.71777 10.1627 5.06489 10.5201C4.41202 10.8776 3.85963 11.3937 3.45866 12.0208C4.52612 12.8527 5.84109 13.3039 7.19446 13.3025Z" fill="#151B23"/>
<path d="M11.9791 3.84629L14.1139 1.71142C14.1635 1.66184 14.2028 1.60297 14.2297 1.53818C14.2565 1.47339 14.2703 1.40395 14.2703 1.33382C14.2703 1.26369 14.2565 1.19425 14.2297 1.12946C14.2028 1.06467 14.1635 1.0058 14.1139 0.956214C14.0643 0.906626 14.0055 0.867291 13.9407 0.840454C13.8759 0.813617 13.8064 0.799805 13.7363 0.799805C13.6662 0.799805 13.5967 0.813617 13.532 0.840454C13.4672 0.867291 13.4083 0.906626 13.3587 0.956214L11.6014 2.71415L10.9116 2.02365C10.862 1.97406 10.8032 1.93473 10.7384 1.90789C10.6736 1.88105 10.6041 1.86724 10.534 1.86724C10.3924 1.86724 10.2566 1.9235 10.1564 2.02365C10.1068 2.07324 10.0675 2.13211 10.0407 2.1969C10.0138 2.26168 10 2.33113 10 2.40125C10 2.47138 10.0138 2.54082 10.0407 2.60561C10.0675 2.6704 10.1068 2.72927 10.1564 2.77886L11.2238 3.84629C11.2734 3.89592 11.3323 3.93528 11.3971 3.96214C11.4619 3.989 11.5313 4.00283 11.6014 4.00283C11.6716 4.00283 11.741 3.989 11.8058 3.96214C11.8706 3.93528 11.9295 3.89592 11.9791 3.84629Z" fill="#151B23"/>
</g>
<defs>
<clipPath id="clip0_697_5419">
<rect width="14.4" height="14.4" fill="white"/>
</clipPath>
</defs>
</svg>
