<svg width="15" height="17" viewBox="0 0 15 17" fill="none" xmlns="http://www.w3.org/2000/svg">
<mask id="mask0_250_28395" style="mask-type:luminance" maskUnits="userSpaceOnUse" x="0" y="0" width="15" height="17">
<path d="M0 0H14.7352V16.6478H0V0Z" fill="white"/>
</mask>
<g mask="url(#mask0_250_28395)">
<path d="M0.863273 0C0.400866 0 0.0302734 0.354101 0.0302734 0.793386V15.8093C0.0302734 16.2502 0.400866 16.6043 0.863273 16.6043H13.7789C14.2413 16.6043 14.6136 16.2502 14.6136 15.8093V3.36897L11.0779 0H0.863273ZM10.487 0.564557L14.021 3.93353H11.3183C10.8576 3.93353 10.4853 3.57775 10.4853 3.13847L10.487 0.564557ZM2.73961 6.31536H11.9059V7.11041H2.73961V6.31536ZM2.73961 9.49224H11.9059V10.2873H2.73961V9.49224ZM2.73961 12.6691H11.9059V13.4625H2.73961V12.6691Z" fill="#00223F"/>
</g>
</svg>
