<svg width="24" height="24" viewBox="0 0 24 24" fill="none" xmlns="http://www.w3.org/2000/svg">
    <path d="M12 24C15.1826 24 18.2348 22.7357 20.4853 20.4853C22.7357 18.2348 24 15.1826 24 12C24 8.8174 22.7357 5.76516 20.4853 3.51472C18.2348 1.26428 15.1826 0 12 0C10.4241 0 8.86371 0.31039 7.4078 0.913446C5.95189 1.5165 4.62902 2.40042 3.51472 3.51472C2.40042 4.62902 1.5165 5.95189 0.913446 7.4078C0.31039 8.86371 0 10.4241 0 12C0 13.5759 0.31039 15.1363 0.913446 16.5922C1.5165 18.0481 2.40042 19.371 3.51472 20.4853C4.62902 21.5996 5.95189 22.4835 7.4078 23.0866C8.86371 23.6896 10.4241 24 12 24ZM6.10105 10.9465L10.6484 6.39916C10.7811 6.26645 10.9387 6.16119 11.1121 6.08937C11.2854 6.01755 11.4713 5.98059 11.6589 5.98059C11.8466 5.98059 12.0325 6.01755 12.2058 6.08937C12.3792 6.16119 12.5368 6.26645 12.6695 6.39916C12.8022 6.53186 12.9074 6.68941 12.9793 6.86279C13.0511 7.03618 13.088 7.22201 13.088 7.40969C13.088 7.59736 13.0511 7.78319 12.9793 7.95658C12.9074 8.12996 12.8022 8.28751 12.6695 8.42021L10.4842 10.5853H16.8909C17.0781 10.5853 17.2633 10.6221 17.4362 10.6937C17.6091 10.7653 17.7662 10.8703 17.8985 11.0026C18.0308 11.1349 18.1357 11.292 18.2073 11.4648C18.2789 11.6377 18.3158 11.823 18.3158 12.0101C18.3158 12.1972 18.2789 12.3825 18.2073 12.5554C18.1357 12.7282 18.0308 12.8853 17.8985 13.0176C17.7662 13.1499 17.6091 13.2549 17.4362 13.3265C17.2633 13.3981 17.0781 13.4349 16.8909 13.4349H10.5145L12.6644 15.5874C12.9324 15.8554 13.083 16.2189 13.083 16.5979C13.083 16.9769 12.9324 17.3404 12.6644 17.6084C12.3964 17.8764 12.0329 18.027 11.6539 18.027C11.2749 18.027 10.9114 17.8764 10.6434 17.6084L6.096 13.0611C5.95763 12.9223 5.84958 12.7564 5.7787 12.5738C5.70781 12.3911 5.67564 12.1957 5.68421 12V11.9545C5.68381 11.7673 5.72043 11.5819 5.79197 11.4089C5.86351 11.2359 5.96855 11.0788 6.10105 10.9465Z" fill="white"/>
</svg>
