<svg width="12" height="14" viewBox="0 0 12 14" fill="none" xmlns="http://www.w3.org/2000/svg">
    <mask id="mask0_10_13064" style="mask-type:luminance" maskUnits="userSpaceOnUse" x="0" y="0" width="12" height="14">
        <path d="M0 0H11.5318V13.1335H0V0Z" fill="white"/>
    </mask>
    <g mask="url(#mask0_10_13064)">
        <path d="M8.78072 6.53249L8.09295 5.84433L4.92622 9.01287L3.55068 7.63655L2.86291 8.32471L4.92622 10.3892L8.78072 6.53249ZM10.3833 1.29948H9.73391V0H8.43683V1.29948H3.24519V0H1.94812V1.29948H1.29874C0.58093 1.29948 0.00667735 1.88074 0.00667735 2.5973L0 11.687C0 12.4052 0.58093 12.9865 1.29874 12.9865H10.3833C11.1011 12.9865 11.682 12.4052 11.682 11.687V2.5973C11.682 1.88074 11.1011 1.29948 10.3833 1.29948ZM10.3833 11.687H1.29874V4.54485H10.3833V11.687Z" fill="white"/>
    </g>
</svg>
