<svg width="17" height="16" viewBox="0 0 17 16" fill="none" xmlns="http://www.w3.org/2000/svg">
    <mask id="mask0_1865_4125" style="mask-type:luminance" maskUnits="userSpaceOnUse" x="0" y="0" width="17" height="16">
        <path d="M0 0H16.8002V15.1612H0V0Z" fill="white"/>
    </mask>
    <g mask="url(#mask0_1865_4125)">
        <path d="M15.9209 3.24742H14.9543L13.6956 0.451362C13.5688 0.165743 13.2816 -0.0146484 12.9695 -0.0146484H3.99511C3.68294 -0.0146484 3.39582 0.165743 3.26728 0.451362L2.01027 3.24742H1.04372C-0.0029535 3.26747 -0.00796163 4.82417 1.04372 4.84589H1.29245C1.20732 5.07973 0.69316 6.03513 0.719869 6.28567V10.9291C0.719869 11.37 1.07544 11.7258 1.51614 11.7258H1.56956V12.7397C1.65971 15.4706 5.61437 15.4706 5.70451 12.7397V11.7258H11.2584V12.7397C11.3435 15.4656 15.3049 15.4706 15.39 12.7397V11.7258H15.4484C15.8891 11.7258 16.2447 11.37 16.2447 10.9291V6.28567C16.2397 6.17377 16.218 6.06186 16.1763 5.95663L15.6721 4.84589C16.1963 4.90936 16.7171 4.61706 16.7171 4.04415C16.7171 3.6082 16.3616 3.24742 15.9209 3.24742ZM4.60108 9.4041H3.88994C2.84327 9.3874 2.84327 7.82568 3.88994 7.81065H4.60108C5.64608 7.82568 5.64608 9.3874 4.60108 9.4041ZM13.0746 9.4041H12.3635C11.3168 9.3874 11.3168 7.82568 12.3635 7.81065H13.0746C14.1213 7.82568 14.1213 9.3874 13.0746 9.4041ZM2.74811 5.48895L4.51093 1.57881H12.4536L14.2115 5.48895H2.74811Z" fill="white"/>
    </g>
</svg>
