<svg width="24" height="24" viewBox="0 0 24 24" fill="none" xmlns="http://www.w3.org/2000/svg">
    <path d="M12 0C8.8174 0 5.76516 1.26428 3.51472 3.51472C1.26428 5.76516 0 8.8174 0 12C0 15.1826 1.26428 18.2348 3.51472 20.4853C5.76516 22.7357 8.8174 24 12 24C13.5759 24 15.1363 23.6896 16.5922 23.0866C18.0481 22.4835 19.371 21.5996 20.4853 20.4853C21.5996 19.371 22.4835 18.0481 23.0866 16.5922C23.6896 15.1363 24 13.5759 24 12C24 10.4241 23.6896 8.86371 23.0866 7.4078C22.4835 5.95189 21.5996 4.62902 20.4853 3.51472C19.371 2.40042 18.0481 1.5165 16.5922 0.913446C15.1363 0.310389 13.5759 0 12 0ZM17.8989 13.0535L13.3516 17.6008C13.2189 17.7335 13.0613 17.8388 12.8879 17.9106C12.7146 17.9825 12.5287 18.0194 12.3411 18.0194C12.1534 18.0194 11.9675 17.9825 11.7942 17.9106C11.6208 17.8388 11.4632 17.7335 11.3305 17.6008C11.1978 17.4681 11.0926 17.3106 11.0207 17.1372C10.9489 16.9638 10.912 16.778 10.912 16.5903C10.912 16.4026 10.9489 16.2168 11.0207 16.0434C11.0926 15.87 11.1978 15.7125 11.3305 15.5798L13.5158 13.4147H7.10905C6.92194 13.4147 6.73666 13.3779 6.56379 13.3063C6.39092 13.2347 6.23385 13.1297 6.10154 12.9974C5.96923 12.8651 5.86427 12.708 5.79267 12.5352C5.72107 12.3623 5.68421 12.177 5.68421 11.9899C5.68421 11.8028 5.72107 11.6175 5.79267 11.4446C5.86427 11.2718 5.96923 11.1147 6.10154 10.9824C6.23385 10.8501 6.39092 10.7451 6.56379 10.6735C6.73666 10.6019 6.92194 10.5651 7.10905 10.5651H13.4855L11.3356 8.41263C11.0676 8.14462 10.917 7.78113 10.917 7.4021C10.917 7.02308 11.0676 6.65959 11.3356 6.39158C11.6036 6.12357 11.9671 5.97301 12.3461 5.97301C12.7251 5.97301 13.0886 6.12357 13.3566 6.39158L17.904 10.9389C18.0424 11.0777 18.1504 11.2436 18.2213 11.4262C18.2922 11.6089 18.3244 11.8043 18.3158 12V12.0455C18.3162 12.2327 18.2796 12.4181 18.208 12.5911C18.1365 12.7641 18.0315 12.9212 17.8989 13.0535Z" fill="white"/>
</svg>
