<svg width="15" height="13" viewBox="0 0 15 13" fill="none" xmlns="http://www.w3.org/2000/svg">
    <mask id="mask0_0_1" style="mask-type:luminance" maskUnits="userSpaceOnUse" x="0" y="0" width="15" height="7">
        <path d="M0 0H14.1026V6.29197H0V0Z" fill="white"/>
    </mask>
    <g mask="url(#mask0_0_1)">
        <path d="M13.6869 4.56862L11.4868 2.94845V1.01592C11.4868 0.713602 11.2397 0.46807 10.9375 0.46807H10.0461C9.74397 0.46807 9.49858 0.713602 9.49858 1.01592V1.48528L7.81923 0.249263C7.45531 -0.0179834 6.85936 -0.0179834 6.49544 0.249263L0.627719 4.56862C0.263804 4.83754 0.185345 5.35533 0.452439 5.71945L0.614365 5.93993C0.883128 6.30572 1.40062 6.38423 1.76454 6.11531L6.49544 2.63276C6.85936 2.36385 7.45531 2.36385 7.81923 2.63276L12.5501 6.11531C12.914 6.38423 13.4315 6.30405 13.7003 5.93993L13.8622 5.71945C14.1293 5.35533 14.0509 4.83754 13.6869 4.56862Z" fill="white"/>
    </g>
    <path d="M11.9325 6.41836L7.81928 3.37677C7.45537 3.10618 6.86108 3.10618 6.49717 3.37677L2.38225 6.41836C2.01833 6.68728 1.72119 7.08146 1.72119 7.29359V11.7048C1.72119 12.4197 2.33551 13.001 3.09172 13.001H5.60407V9.09917C5.60407 8.79852 5.85113 8.55299 6.15161 8.55299H8.1615C8.46365 8.55299 8.71071 8.79852 8.71071 9.09917V13.001H11.2231C11.9793 13.001 12.5919 12.4197 12.5919 11.7048V7.29359C12.5936 7.08146 12.2964 6.68728 11.9325 6.41836Z" fill="white"/>
</svg>
