<svg width="17" height="17" viewBox="0 0 17 17" fill="none" xmlns="http://www.w3.org/2000/svg">
<mask id="mask0_250_28246" style="mask-type:luminance" maskUnits="userSpaceOnUse" x="0" y="0" width="17" height="17">
<path d="M0 0H16.6567V16.0247H0V0Z" fill="white"/>
</mask>
<g mask="url(#mask0_250_28246)">
<path fill-rule="evenodd" clip-rule="evenodd" d="M8.71541 1.5066L6.84241 2.83949H3.51876C1.78098 2.78604 1.77931 4.17238 1.82772 5.30817H16.5663V8.63705H10.3664C8.50841 8.68382 8.41827 12.918 10.3664 12.9664H16.4728C16.5413 13.8417 16.6364 15.8343 15.4145 15.8627H1.64409C0.559024 15.8945 0.0398597 15.689 0.00146484 14.7002V3.94188C0.0214969 2.58393 1.01809 1.55003 2.5639 1.5066H8.71541ZM11.7586 9.75949C12.3128 9.75949 12.7602 10.2071 12.7602 10.7617C12.7602 11.3145 12.3128 11.7638 11.7586 11.7638C11.2061 11.7638 10.757 11.3145 10.757 10.7617C10.757 10.2071 11.2061 9.75949 11.7586 9.75949ZM14.937 4.04711H6.3149L12.2761 0L14.937 4.04711Z" fill="#00223F"/>
</g>
</svg>
