<svg width="24" height="24" viewBox="0 0 24 24" fill="none" xmlns="http://www.w3.org/2000/svg">
<path d="M18.272 12.3483L15.9811 10.3847L14.2493 12.1165L16.2129 14.4074C16.4797 14.7108 16.8589 14.8906 17.2629 14.9034C17.666 14.917 18.0572 14.7628 18.3419 14.4773C18.6274 14.1918 18.7825 13.8006 18.7689 13.3975C18.7552 12.9943 18.5754 12.6142 18.272 12.3483ZM15.5379 19.0234H6.08806C5.60653 19.0242 5.21618 19.4146 5.21533 19.8961V21.4779H16.4107V19.8961C16.4098 19.4146 16.0195 19.0242 15.5379 19.0234ZM13.888 15.8597H7.73784C7.49749 15.8597 7.26652 15.9552 7.09693 16.1248C6.92648 16.2952 6.83101 16.5253 6.83101 16.7665L6.76375 17.929H14.8365L14.8014 16.7665C14.7989 16.2637 14.3908 15.8589 13.888 15.8597ZM17.8833 8.05296C17.4674 8.46205 16.8001 8.46205 16.3833 8.05296L11.9106 12.5189C12.3154 12.9348 12.3111 13.5988 11.9012 14.0087C11.4904 14.4186 10.8265 14.4237 10.4106 14.0189L6.77654 10.3849C6.3734 9.96898 6.37768 9.30591 6.78762 8.89597C7.19756 8.48602 7.86064 8.48092 8.27654 8.88489L12.7493 4.41892C12.3453 4.00303 12.3496 3.3391 12.7595 2.92916C13.1703 2.51836 13.8334 2.51411 14.2493 2.91893C14.2561 2.91893 17.8833 6.55297 17.8833 6.55297C18.0836 6.75155 18.1952 7.02086 18.1952 7.30297C18.1952 7.58422 18.0836 7.85437 17.8833 8.05296Z" fill="white"/>
</svg>
