<svg width="26" height="26" viewBox="0 0 26 26" fill="none" xmlns="http://www.w3.org/2000/svg">
    <mask id="mask0_0_1" style="mask-type:luminance" maskUnits="userSpaceOnUse" x="9" y="9" width="17" height="17">
        <path d="M9.05957 9.2168H25.6261V25.6424H9.05957V9.2168Z" fill="white"/>
    </mask>
    <g mask="url(#mask0_0_1)">
        <path d="M22.8517 9.38096C20.3377 9.38096 14.7671 9.38096 12.3049 9.38096C10.7223 9.3676 9.35682 10.7038 9.37518 12.314V16.4179V22.8669C9.37518 24.482 10.6906 25.7982 12.3049 25.7982H22.8517C24.4677 25.7982 25.7814 24.482 25.7814 22.8669V12.314C25.7814 10.6971 24.4677 9.38096 22.8517 9.38096ZM21.0939 15.8316H20.4679C20.3377 17.2864 19.7267 18.6394 18.7519 19.6933L20.3361 21.2784C20.71 21.6258 20.4245 22.2973 19.9221 22.2806C19.7718 22.2806 19.6232 22.2221 19.5081 22.1085L17.8905 20.49C17.4014 20.9026 15.5033 21.8613 14.9341 22.2054C14.657 22.3624 14.2947 22.2639 14.1378 21.9783C13.9792 21.696 14.081 21.3385 14.3648 21.1815L16.565 19.9589C16.7353 19.8637 16.8922 19.7568 17.0475 19.6465L14.8206 17.4184C14.283 16.8739 15.1043 16.0487 15.6486 16.5882L17.9255 18.8648C18.6851 18.0297 19.1725 16.9724 19.2977 15.8299H14.0627C13.7388 15.8299 13.4767 15.5677 13.4767 15.2437C13.4767 14.9196 13.7388 14.6574 14.0627 14.6574H16.9924V13.4849C16.9957 12.7215 18.1626 12.7165 18.1642 13.4849V14.6574H21.0939C21.8585 14.6624 21.8635 15.8266 21.0939 15.8316Z" fill="white"/>
    </g>
    <mask id="mask1_0_1" style="mask-type:luminance" maskUnits="userSpaceOnUse" x="0" y="0" width="17" height="17">
        <path d="M0 0H16.7518V16.4857H0V0Z" fill="white"/>
    </mask>
    <g mask="url(#mask1_0_1)">
        <path d="M2.92969 16.4173H8.20312V12.3134C8.20312 11.6853 8.34335 11.0874 8.6021 10.5529H6.07639L5.2267 12.5405C4.92455 13.2487 3.84782 12.7827 4.1483 12.0845L7.66393 3.87674C7.75741 3.6596 7.96942 3.51762 8.20312 3.51762C8.4385 3.51762 8.64884 3.6596 8.74232 3.87674L10.7355 8.52515C11.7705 7.97729 15.0407 8.28128 16.4062 8.20779V2.93135C16.4062 1.31619 15.0925 0 13.4766 0H2.92969C1.31377 0 0 1.31619 0 2.93135V13.4859C0 15.1011 1.31377 16.4173 2.92969 16.4173Z" fill="white"/>
    </g>
</svg>
