<svg width="23" height="25" viewBox="0 0 23 25" fill="none" xmlns="http://www.w3.org/2000/svg">
    <mask id="mask0_0_1" style="mask-type:luminance" maskUnits="userSpaceOnUse" x="0" y="0" width="23" height="25">
        <path d="M0 0H22.6496V24.9541H0V0Z" fill="white"/>
    </mask>
    <g mask="url(#mask0_0_1)">
        <path d="M22.152 3.63148C22.1053 3.20389 21.748 2.88486 21.319 2.88486C17.9937 2.89154 14.6133 1.94282 11.5884 0.115526C11.3247 -0.0398107 10.9992 -0.0398107 10.7337 0.115526C7.71058 1.94282 4.34519 2.89989 0.9965 2.88486C0.575827 2.88486 0.218589 3.20389 0.171847 3.63148C-0.697878 11.5637 1.78777 21.6722 11.1611 24.8842C20.5344 21.6722 23.0217 11.5637 22.152 3.63148ZM15.7785 16.5862C15.7785 17.0456 15.4129 17.418 14.9538 17.418H7.36836C6.91764 17.418 6.54538 17.0456 6.54538 16.5862V9.2687C6.54538 8.81104 6.91764 8.4369 7.36836 8.4369C7.37671 8.4369 7.71058 8.44525 7.69555 8.42854C7.84245 3.84862 14.4731 3.84862 14.62 8.42854V8.4369H14.9538C15.4129 8.4369 15.7785 8.81104 15.7785 9.2687V16.5862Z" fill="white"/>
    </g>
    <path d="M8.2002 15.7627H14.123V10.0938H8.2002V15.7627ZM10.3303 12.2785C10.3303 11.8192 10.7042 11.4467 11.1616 11.4467C11.6207 11.4467 11.9946 11.8192 11.9946 12.2785V14.2377C11.9946 14.6887 11.6207 15.0629 11.1616 15.0629C10.7042 15.0629 10.3303 14.6887 10.3303 14.2377V12.2785Z" fill="white"/>
    <path d="M12.9574 8.4284C12.8957 6.04991 9.41344 6.04991 9.35167 8.4284C9.3283 8.46013 12.9574 8.41337 12.9574 8.4284Z" fill="white"/>
</svg>
