<svg width="13" height="13" viewBox="0 0 13 13" fill="none" xmlns="http://www.w3.org/2000/svg">
    <path d="M3.13835 8.05371L0.270433 10.9233C-0.0901442 11.284 -0.0901442 11.8686 0.270433 12.2294C0.63101 12.5885 1.21361 12.5885 1.57419 12.2294L4.44211 9.35821L3.13835 8.05371Z" fill="white"/>
    <path d="M11.2061 1.28529C9.4934 -0.428429 6.70728 -0.428429 4.99454 1.28529C3.43371 2.84533 3.30016 5.2923 4.57887 7.01437L3.71582 7.87457L4.62227 8.77986L5.48365 7.918C7.2014 9.19744 9.64865 9.06214 11.2061 7.50209C12.9206 5.78838 12.9206 2.999 11.2061 1.28529ZM10.5534 6.84734C9.1996 8.20194 6.99941 8.20194 5.64725 6.84734C4.29508 5.49441 4.29508 3.29297 5.64725 1.94004C6.99941 0.587106 9.20127 0.587106 10.5534 1.94004C11.9056 3.29297 11.9056 5.49441 10.5534 6.84734Z" fill="white"/>
    <path d="M9.83908 1.75292C8.78573 1.05641 7.42188 1.05474 6.36686 1.74958C6.26002 1.8214 6.22997 1.96338 6.30008 2.07027C6.30843 2.08364 6.31845 2.09533 6.33013 2.10702C6.40525 2.18218 6.52711 2.19722 6.61893 2.13542C7.52037 1.54413 8.6839 1.54413 9.58534 2.13876C9.69218 2.20891 9.83574 2.17884 9.90418 2.07362C9.9743 1.96672 9.94592 1.82307 9.83908 1.75292Z" fill="white"/>
</svg>
