<svg width="23" height="22" viewBox="0 0 23 22" fill="none" xmlns="http://www.w3.org/2000/svg">
    <path d="M11.3193 14.6568L18.1236 21.4632C18.1236 21.4632 18.9515 22.2933 20.4289 20.8151C21.9063 19.3386 21.0766 18.5068 21.0766 18.5068L14.8917 12.3184C13.82 12.609 12.977 12.9297 12.6765 13.2337L11.3193 14.6568Z" fill="white"/>
    <mask id="mask0_0_1" style="mask-type:luminance" maskUnits="userSpaceOnUse" x="0" y="0" width="10" height="11">
        <path d="M0 0.253906H9.82906V10.4894H0V0.253906Z" fill="white"/>
    </mask>
    <g mask="url(#mask0_0_1)">
        <path d="M9.76252 8.6801L5.45229 4.36742L4.63098 2.45327L1.47092 0.383789L0.0102539 1.84529L2.07856 5.00714L3.99162 5.82892L8.27181 10.1115L9.21832 9.34989C9.41363 9.14946 9.59392 8.9223 9.76252 8.6801Z" fill="white"/>
    </g>
    <path d="M22.1825 3.48998L18.0893 5.26383L17.2963 3.33966L17.3831 2.3759L20.8019 0.884336C20.8019 0.884336 18.8738 -0.343325 16.8573 0.0942902C14.8407 0.533576 14.4017 0.620431 13.9643 1.93829C13.527 3.2528 12.9126 7.37507 10.8093 9.47963L1.70137 16.8089C1.70137 16.8089 0.122176 18.5877 1.70304 20.1695C3.2839 21.7529 5.06175 20.1711 5.06175 20.1711L12.9126 11.935C14.2281 10.6188 20.0123 9.91725 20.0123 9.91725L19.0491 7.58386C21.2894 6.48481 22.1825 3.48998 22.1825 3.48998ZM4.36062 19.3811C3.8448 19.8972 3.00679 19.8972 2.49097 19.3811C1.97514 18.8633 1.97514 18.0265 2.49097 17.5104C3.00846 16.9926 3.8448 16.9926 4.36062 17.5104C4.87645 18.0265 4.87645 18.8633 4.36062 19.3811Z" fill="white"/>
</svg>
