<svg width="24" height="29" viewBox="0 0 24 29" fill="none" xmlns="http://www.w3.org/2000/svg">
<path d="M19.8996 14.3564L17.1724 13.0138V7.15172C17.1707 6.73216 16.9985 6.33106 16.6942 6.03737C16.3908 5.74283 15.98 5.58005 15.5547 5.58507H4.64564C3.76866 5.59011 3.05957 6.28825 3.05444 7.15172V21.4721C3.05956 22.3356 3.76864 23.0337 4.64564 23.0388H15.5547C15.7661 23.0363 15.9741 22.9868 16.1633 22.8953C16.263 22.9045 16.3635 22.9045 16.4633 22.8953C16.7096 22.8961 16.9525 22.8416 17.1724 22.7342C18.2641 22.2072 19.1829 21.3891 19.8254 20.3738C20.4689 19.3576 20.809 18.1853 20.809 16.9879V15.7619C20.8073 15.1603 20.4536 14.6123 19.8996 14.3564ZM4.64567 21.6962C4.51953 21.6962 4.4181 21.5963 4.4181 21.4721V7.15172C4.4181 7.02753 4.51952 6.92767 4.64567 6.92767H15.5548C15.6144 6.92767 15.6724 6.95116 15.715 6.99312C15.7576 7.03507 15.7815 7.09214 15.7815 7.15171V13.0054L13.0542 14.348C12.9613 14.4 12.8735 14.4596 12.7908 14.5267H6.46357C6.08686 14.5267 5.78175 14.8271 5.78175 15.198C5.78175 15.5689 6.08686 15.8693 6.46357 15.8693H12.1457V16.9971C12.1389 18.7685 12.8837 20.4619 14.1997 21.6693L4.64567 21.6962ZM19.4181 16.9971C19.4215 17.942 19.1556 18.8683 18.6511 19.6722C18.1465 20.4761 17.4229 21.1239 16.5638 21.5443C16.4999 21.5711 16.4275 21.5711 16.3636 21.5443C15.5036 21.1239 14.7809 20.4761 14.2763 19.6722C13.7718 18.8683 13.5059 17.9419 13.5093 16.9971V15.7619C13.5068 15.6747 13.557 15.5941 13.6363 15.5563L16.3636 14.2137C16.4275 14.1869 16.4999 14.1869 16.5639 14.2137L19.2911 15.5563C19.3704 15.5941 19.4198 15.6747 19.4181 15.7619L19.4181 16.9971ZM18.282 16.523C18.5479 16.7848 18.5479 17.2094 18.282 17.4712L16.4633 19.2619C16.1974 19.5237 15.7661 19.5237 15.5002 19.2619L14.5908 18.3666C14.4553 18.2424 14.3769 18.0695 14.3744 17.8874C14.3709 17.7053 14.4425 17.5299 14.5738 17.4007C14.7042 17.2723 14.8823 17.201 15.0672 17.2044C15.253 17.2077 15.4286 17.2849 15.5547 17.4175L15.9817 17.8379L17.3726 16.523C17.6317 16.2948 18.0229 16.2948 18.282 16.523ZM5.78174 12.5221C5.78685 12.1529 5.6032 9.37547 5.97734 9.37128H14.2273C14.604 9.37128 14.4178 12.1512 14.4178 12.5221C14.4178 12.8922 14.1127 13.1934 13.736 13.1934H6.46356C6.08942 13.1884 5.78684 12.8905 5.78174 12.5221ZM5.78174 9.8369C5.78685 9.46768 6.08942 9.1698 6.46356 9.16561H13.736C14.1127 9.16561 14.4178 9.466 14.4178 9.8369C14.4178 10.207 14.1127 10.5082 13.736 10.5082H6.46356C6.08942 10.5032 5.78684 10.2053 5.78174 9.8369ZM9.87265 18.787C9.86753 19.1562 9.56497 19.4541 9.19083 19.4583H6.46356C6.08684 19.4583 5.78174 19.1579 5.78174 18.787C5.78174 18.4169 6.08684 18.1157 6.46356 18.1157H9.19083C9.56497 18.1207 9.86754 18.4186 9.87265 18.787Z" fill="white"/>
</svg>
