<svg width="164" height="240" viewBox="0 0 164 240" fill="none" xmlns="http://www.w3.org/2000/svg">
<rect width="164" height="240" fill="#B3B3B3"/>
<path d="M66.5193 100.772C62.4835 100.773 59.2121 104.044 59.212 108.079C59.212 112.115 62.4829 115.388 66.5186 115.388C70.5542 115.387 73.8264 112.115 73.8262 108.079C73.8262 104.044 70.5563 100.772 66.5208 100.772H66.5193ZM76.2456 96.7523V96.7534L77.6976 99.0408L75.5996 103.017C75.361 103.469 75.3931 104.017 75.6831 104.438L79.6473 110.199L78.8362 118.818C78.776 119.457 79.1655 120.053 79.7747 120.253C79.9167 120.3 80.0618 120.323 80.2052 120.323C80.6769 120.323 81.1286 120.079 81.3829 119.658L88.1721 108.409C88.4079 108.019 88.4346 107.536 88.2431 107.122L86.6285 103.628L89.4177 98.6894C89.6524 98.274 89.655 97.7664 89.4245 97.3488L89.0936 96.7524L102.825 96.7545C106.389 96.7532 109.277 99.6437 109.277 103.209C109.277 103.218 109.277 122.535 109.277 122.535C105.809 119.064 102.097 115.352 102.09 115.344C100.292 113.547 97.937 112.649 95.5815 112.649C95.5784 112.649 95.5773 112.649 95.5773 112.649C93.2207 112.647 90.8674 113.548 89.0692 115.346C89.0641 115.351 86.0491 118.368 82.1838 122.233C81.7811 122.628 81.2281 122.872 80.6188 122.872C80.6171 122.872 80.6165 122.872 80.6165 122.872C80.0407 122.871 79.514 122.657 79.118 122.299L79.1166 122.298C77.3661 120.705 75.1527 119.911 72.9392 119.911C70.5825 119.91 68.2256 120.811 66.4271 122.609C66.42 122.616 54.7507 134.285 54.7507 134.285L54.7506 103.208C54.7507 99.642 57.6413 96.751 61.2076 96.7511L76.2456 96.7523ZM86.8022 94.0015L86.7671 94.0014C86.0075 94.0002 85.3917 94.6158 85.3918 95.3755V95.3769C85.3918 95.6507 85.4719 95.906 85.6101 96.1207L86.6451 98.005L83.8868 102.889C83.6694 103.274 83.6504 103.74 83.836 104.142L85.4399 107.613L82.1388 113.082L82.4328 109.96C82.4629 109.639 82.3793 109.317 82.1964 109.051L78.421 103.565L80.5025 99.6192C80.7327 99.183 80.7118 98.6574 80.4476 98.241L78.2234 94.7406C77.9575 94.3218 77.5339 94.0002 77.0037 94.0002C76.9936 94.0002 61.2034 94.0014 61.2034 94.0014C56.1188 94.0014 52.0001 98.1237 52 103.208C52 103.228 52 136.296 52 136.316C52 141.402 56.1226 145.524 61.2082 145.524L102.819 145.525C107.905 145.524 112.027 141.401 112.027 136.316C112.027 136.296 112.027 103.228 112.027 103.208C112.027 98.1231 107.906 94.0001 102.82 94L86.8022 94.0015Z" fill="black"/>
</svg>
