<svg width="20" height="20" viewBox="0 0 20 20" fill="none" xmlns="http://www.w3.org/2000/svg">
<path d="M14.4132 10.6628L8.16325 16.9128C7.98713 17.0889 7.74826 17.1878 7.49918 17.1878C7.25011 17.1878 7.01124 17.0889 6.83512 16.9128C6.659 16.7366 6.56006 16.4978 6.56006 16.2487C6.56006 15.9996 6.659 15.7608 6.83512 15.5846L12.4218 9.99948L6.83668 4.41276C6.74948 4.32555 6.6803 4.22202 6.63311 4.10808C6.58591 3.99414 6.56162 3.87202 6.56162 3.7487C6.56162 3.62537 6.58591 3.50325 6.63311 3.38931C6.6803 3.27537 6.74948 3.17184 6.83668 3.08463C6.92389 2.99743 7.02742 2.92825 7.14136 2.88106C7.2553 2.83386 7.37742 2.80957 7.50075 2.80957C7.62408 2.80957 7.7462 2.83386 7.86014 2.88106C7.97408 2.92825 8.0776 2.99743 8.16481 3.08463L14.4148 9.33463C14.5021 9.42183 14.5713 9.52541 14.6185 9.63942C14.6657 9.75343 14.6899 9.87563 14.6898 9.99902C14.6896 10.1224 14.6651 10.2446 14.6177 10.3585C14.5702 10.4724 14.5008 10.5758 14.4132 10.6628Z" fill="white"/>
</svg>
