<svg width="16" height="16" viewBox="0 0 15.75 15.75" fill="none" xmlns="http://www.w3.org/2000/svg">
<path d="M13.8958 1.2115H12.0785V0.605769C12.0785 0.445096 12.0146 0.291022 11.901 0.177424C11.7874 0.0638258 11.6334 0 11.4727 0C11.312 0 11.158 0.0638258 11.0444 0.177424C10.9307 0.291022 10.8669 0.445096 10.8669 0.605769V1.2115H4.80919V0.605769C4.80919 0.445096 4.74537 0.291022 4.63177 0.177424C4.51817 0.0638258 4.36409 0 4.20342 0C4.04275 0 3.88868 0.0638258 3.77508 0.177424C3.66148 0.291022 3.59765 0.445096 3.59765 0.605769V1.2115H1.78035C1.45907 1.2115 1.15085 1.33921 0.923659 1.56639C0.696472 1.79358 0.568756 2.10181 0.568756 2.42308V14.5385C0.568756 14.8597 0.696472 15.168 0.923659 15.3952C1.15085 15.6223 1.45907 15.75 1.78035 15.75H13.8958C14.2171 15.75 14.5253 15.6223 14.7525 15.3952C14.9797 15.168 15.1073 14.8597 15.1073 14.5385V2.42308C15.1073 2.10181 14.9797 1.79358 14.7525 1.56639C14.5253 1.33921 14.2171 1.2115 13.8958 1.2115ZM3.59765 2.42308V3.02885C3.59765 3.18952 3.66148 3.34359 3.77508 3.45719C3.88868 3.57079 4.04275 3.63462 4.20342 3.63462C4.36409 3.63462 4.51817 3.57079 4.63177 3.45719C4.74537 3.34359 4.80919 3.18952 4.80919 3.02885V2.42308H10.8669V3.02885C10.8669 3.18952 10.9307 3.34359 11.0444 3.45719C11.158 3.57079 11.312 3.63462 11.4727 3.63462C11.6334 3.63462 11.7874 3.57079 11.901 3.45719C12.0146 3.34359 12.0785 3.18952 12.0785 3.02885V2.42308H13.8958V4.84615H1.78035V2.42308H3.59765ZM13.8958 14.5385H1.78035V6.05769H13.8958V14.5385ZM11.0 8.05192C11.0564 8.10817 11.1011 8.17502 11.1316 8.24855C11.162 8.32208 11.1778 8.40096 11.1778 8.48077C11.1778 8.56058 11.162 8.63946 11.1316 8.71299C11.1011 8.78652 11.0564 8.85337 11.0 8.90962L7.3654 12.5442C7.30915 12.6005 7.24231 12.6452 7.16878 12.6757C7.09524 12.7062 7.01636 12.7219 6.93655 12.7219C6.85675 12.7219 6.77787 12.7062 6.70433 12.6757C6.6308 12.6452 6.56396 12.6005 6.5077 12.5442L4.69041 10.7269C4.57674 10.6132 4.51285 10.4591 4.51285 10.2983C4.51285 10.1376 4.57674 9.98348 4.69041 9.86981C4.80408 9.75615 4.95822 9.69225 5.11899 9.69225C5.27975 9.69225 5.43389 9.75615 5.54756 9.86981L6.93655 11.2596L10.1427 8.05192C10.1989 7.99567 10.2658 7.95097 10.3393 7.92048C10.4128 7.88998 10.4917 7.87427 10.5715 7.87427C10.6513 7.87427 10.7302 7.88998 10.8037 7.92048C10.8773 7.95097 10.9441 7.99567 11.0 8.05192Z" fill="#151B23"/>
</svg>
