<svg width="72" height="73" viewBox="0 0 72 73" fill="none" xmlns="http://www.w3.org/2000/svg">
<g clip-path="url(#clip0_383_1650)">
<path d="M33.4142 8.57319C35.5336 10.1115 38.3621 10.2489 40.6219 8.92909C44.2608 6.80742 48.9267 8.5844 50.237 12.5921C51.0542 15.0788 53.2567 16.8549 55.8602 17.1215C60.048 17.5469 62.7864 21.7311 61.4929 25.7451C60.6901 28.2375 61.4326 30.9738 63.3853 32.7186C66.5246 35.5296 66.2828 40.5225 62.8846 43.0066C60.7729 44.5527 59.7703 47.1985 60.3223 49.7572C61.2176 53.8775 58.0901 57.7694 53.8778 57.7782C51.2609 57.7818 48.8972 59.3343 47.8388 61.7288C46.1436 65.5852 41.3246 66.893 37.9125 64.4225C35.7931 62.8841 32.9646 62.7468 30.7049 64.0666C27.066 66.1882 22.4001 64.4112 21.0897 60.4035C20.2726 57.9168 18.0701 56.1407 15.4665 55.8742C11.2787 55.4487 8.54038 51.2645 9.83386 47.2506C10.6366 44.7581 9.8941 42.0218 7.94149 40.2771C4.80214 37.466 5.04397 32.4731 8.44219 29.9891C10.5539 28.443 11.5564 25.7972 11.0044 23.2385C10.1091 19.1181 13.2367 15.2263 17.4489 15.2174C20.0659 15.2138 22.4296 13.6613 23.4879 11.2668C25.1831 7.4104 30.0021 6.10268 33.4142 8.57319Z" fill="#FFD0E8"/>
<path d="M35.1671 23.4916C32.5943 23.4916 30.0793 24.2546 27.9401 25.6839C25.8009 27.1133 24.1335 29.145 23.149 31.5219C22.1644 33.8989 21.9068 36.5144 22.4087 39.0378C22.9106 41.5612 24.1496 43.879 25.9688 45.6983C27.7881 47.5175 30.1059 48.7565 32.6293 49.2584C35.1527 49.7603 37.7682 49.5027 40.1452 48.5182C42.5222 47.5336 44.5538 45.8663 45.9832 43.7271C47.4125 41.5878 48.1755 39.0728 48.1755 36.5C48.1718 33.0511 46.8001 29.7445 44.3614 27.3057C41.9226 24.867 38.616 23.4953 35.1671 23.4916ZM35.1671 47.5071C32.9901 47.5071 30.862 46.8615 29.0519 45.652C27.2418 44.4426 25.831 42.7235 24.9979 40.7122C24.1648 38.7009 23.9468 36.4878 24.3715 34.3526C24.7963 32.2175 25.8446 30.2562 27.3839 28.7168C28.9233 27.1775 30.8846 26.1291 33.0197 25.7044C35.1549 25.2797 37.3681 25.4977 39.3793 26.3308C41.3906 27.1639 43.1097 28.5747 44.3192 30.3848C45.5286 32.1949 46.1742 34.323 46.1742 36.5C46.1709 39.4182 45.0101 42.216 42.9466 44.2795C40.8831 46.343 38.0854 47.5038 35.1671 47.5071ZM29.1633 33.9984C29.1633 33.7015 29.2513 33.4113 29.4162 33.1645C29.5811 32.9177 29.8156 32.7253 30.0898 32.6117C30.3641 32.4981 30.6659 32.4684 30.9571 32.5263C31.2482 32.5842 31.5157 32.7271 31.7256 32.9371C31.9355 33.147 32.0784 33.4144 32.1364 33.7056C32.1943 33.9967 32.1645 34.2985 32.0509 34.5728C31.9373 34.8471 31.7449 35.0815 31.4981 35.2464C31.2513 35.4113 30.9611 35.4994 30.6642 35.4994C30.2661 35.4994 29.8844 35.3412 29.6029 35.0597C29.3214 34.7783 29.1633 34.3965 29.1633 33.9984ZM42.1716 33.9984C42.1716 34.2638 42.0662 34.5183 41.8785 34.706C41.6909 34.8936 41.4364 34.999 41.171 34.999H38.169C37.9037 34.999 37.6491 34.8936 37.4615 34.706C37.2738 34.5183 37.1684 34.2638 37.1684 33.9984C37.1684 33.733 37.2738 33.4785 37.4615 33.2908C37.6491 33.1032 37.9037 32.9978 38.169 32.9978H41.171C41.4364 32.9978 41.6909 33.1032 41.8785 33.2908C42.0662 33.4785 42.1716 33.733 42.1716 33.9984ZM41.0359 40.0022C39.7488 42.2274 37.6099 43.5045 35.1671 43.5045C32.7243 43.5045 30.5854 42.2287 29.2971 40.0022C29.2314 39.8884 29.1888 39.7628 29.1716 39.6325C29.1545 39.5021 29.1632 39.3697 29.1972 39.2428C29.2312 39.1158 29.2899 38.9968 29.37 38.8926C29.45 38.7883 29.5498 38.7008 29.6636 38.6351C29.7774 38.5694 29.9031 38.5268 30.0334 38.5096C30.1637 38.4925 30.2961 38.5012 30.4231 38.5352C30.55 38.5693 30.669 38.628 30.7733 38.708C30.8775 38.788 30.965 38.8878 31.0307 39.0016C31.9638 40.6164 33.4323 41.5032 35.1671 41.5032C36.902 41.5032 38.3704 40.6151 39.3048 39.0016C39.3673 38.882 39.4534 38.7763 39.5579 38.6909C39.6624 38.6054 39.783 38.542 39.9126 38.5044C40.0422 38.4668 40.1781 38.4558 40.3121 38.4721C40.4461 38.4884 40.5754 38.5316 40.6922 38.5991C40.809 38.6666 40.911 38.7571 40.992 38.8651C41.0729 38.9731 41.1312 39.0963 41.1633 39.2274C41.1954 39.3584 41.2007 39.4947 41.1788 39.6278C41.1569 39.761 41.1083 39.8884 41.0359 40.0022Z" fill="#151B23"/>
</g>
<defs>
<clipPath id="clip0_383_1650">
<rect width="57.5954" height="59.9623" fill="white" transform="translate(0 15.0937) scale(1.00064) rotate(-15.1825)"/>
</clipPath>
</defs>
</svg>
