<svg width="32" height="32" viewBox="0 0 32 32" fill="none" xmlns="http://www.w3.org/2000/svg">
<rect width="32" height="32" rx="16" fill="#1B262D"/>
<g clip-path="url(#clip0_0_15)">
<path d="M23.7631 10.2498C23.6894 10.1923 23.6035 10.1524 23.5121 10.1331C23.4207 10.1138 23.326 10.1155 23.2354 10.1382L18.5331 11.3136L13.8138 8.95362C13.6824 8.88803 13.5317 8.87166 13.3892 8.90746L8.46615 10.1382C8.33302 10.1715 8.21483 10.2483 8.13037 10.3565C8.04591 10.4646 8.00002 10.5979 8 10.7352V21.8121C8.00001 21.9056 8.02134 21.9979 8.06235 22.0819C8.10336 22.1659 8.16299 22.2395 8.2367 22.2971C8.3104 22.3546 8.39626 22.3946 8.48773 22.414C8.57921 22.4334 8.6739 22.4317 8.76462 22.409L13.4669 21.2336L18.1862 23.5936C18.2718 23.6359 18.366 23.658 18.4615 23.6582C18.5118 23.6582 18.562 23.652 18.6108 23.6398L23.5338 22.409C23.667 22.3757 23.7852 22.2989 23.8696 22.1907C23.9541 22.0826 24 21.9493 24 21.8121V10.7352C24 10.6416 23.9787 10.5492 23.9376 10.4651C23.8966 10.381 23.8369 10.3073 23.7631 10.2498ZM14.1538 10.4998L17.8462 12.3459V22.0475L14.1538 20.2013V10.4998ZM9.23077 11.2159L12.9231 10.2928V20.1005L9.23077 21.0236V11.2159ZM22.7692 21.3313L19.0769 22.2544V12.4467L22.7692 11.5236V21.3313Z" fill="#F1F2F3"/>
</g>
<defs>
<clipPath id="clip0_0_15">
<rect width="16" height="16" fill="white" transform="translate(8 8)"/>
</clipPath>
</defs>
</svg>
