<svg width="22" height="22" viewBox="0 0 22 22" fill="none" xmlns="http://www.w3.org/2000/svg">
<path d="M8.5 6C8.36667 6 8.24167 6.05167 8.14667 6.14667C7.95167 6.34167 7.95167 6.65833 8.14667 6.85333L11.7933 10.5C11.9217 10.6283 11.995 10.81 11.995 11C11.995 11.19 11.9217 11.3717 11.7933 11.5L8.14667 15.1467C8.05 15.2433 8 15.3717 8 15.5C8 15.6283 8.04833 15.7567 8.14667 15.8533C8.245 15.95 8.36667 16 8.5 16C8.63333 16 8.75833 15.9483 8.85333 15.8533L12.5 12.2067C12.8217 11.885 13 11.455 13 11C13 10.545 12.8217 10.115 12.5 9.79333L8.85333 6.14667C8.75833 6.05167 8.63333 6 8.5 6Z" fill="black"/>
</svg>
