<svg width="40" height="40" viewBox="0 0 40 40" fill="none" xmlns="http://www.w3.org/2000/svg">
<path d="M7.75878 10.971C7.75878 12.9909 4.72754 12.9909 4.72754 10.971C4.72754 8.95108 7.75878 8.95108 7.75878 10.971Z" fill="white"/>
<path d="M33.5159 12.4864H10.7886C9.95051 12.4864 9.27295 11.8074 9.27295 10.9707C9.27295 10.1341 9.95051 9.45508 10.7886 9.45508H33.5159C34.3539 9.45508 35.0315 10.1341 35.0315 10.9707C35.0315 11.8074 34.3539 12.4864 33.5159 12.4864Z" fill="white"/>
<path d="M7.75878 20.0618C7.75878 22.0817 4.72754 22.0817 4.72754 20.0618C4.72754 18.0419 7.75878 18.0419 7.75878 20.0618Z" fill="white"/>
<path d="M33.5159 21.5772H10.7886C9.95051 21.5772 9.27295 20.8982 9.27295 20.0615C9.27295 19.2249 9.95051 18.5459 10.7886 18.5459H33.5159C34.3539 18.5459 35.0315 19.2249 35.0315 20.0615C35.0315 20.8982 34.3539 21.5772 33.5159 21.5772Z" fill="white"/>
<path d="M7.75878 29.1526C7.75878 31.1725 4.72754 31.1725 4.72754 29.1526C4.72754 27.1327 7.75878 27.1327 7.75878 29.1526Z" fill="white"/>
<path d="M33.5159 30.668H10.7886C9.95051 30.668 9.27295 29.989 9.27295 29.1524C9.27295 28.3157 9.95051 27.6367 10.7886 27.6367H33.5159C34.3539 27.6367 35.0315 28.3157 35.0315 29.1524C35.0315 29.989 34.3539 30.668 33.5159 30.668Z" fill="white"/>
</svg>
