<svg width="40" height="40" viewBox="0 0 40 40" fill="none" xmlns="http://www.w3.org/2000/svg">
<g clip-path="url(#clip0_41_731)">
<path d="M8.55607 30.5102C8.55607 27.7977 9.50606 25.3102 11.0936 23.3602C10.4561 23.1477 9.78106 23.0352 9.08107 23.0352C5.45606 23.0352 2.50606 25.9852 2.50606 29.6102C2.43481 30.3614 2.99981 31.0289 3.75606 31.0227H8.56856C8.54856 30.8702 8.55857 30.6639 8.55607 30.5102Z" fill="white"/>
<path d="M9.08105 22.2477C10.9436 22.2477 12.5311 21.0977 13.2061 19.4727C12.2186 18.0977 11.6436 16.4227 11.6436 14.6227C11.6436 14.4727 11.6436 14.3227 11.6686 14.1727C10.9311 13.6602 10.0436 13.3477 9.08105 13.3477C6.63105 13.3477 4.64355 15.3477 4.64355 17.7977C4.64355 20.2477 6.63105 22.2477 9.08105 22.2477Z" fill="white"/>
<path d="M30.9311 23.0352C30.2311 23.0352 29.5561 23.1477 28.9186 23.3602C30.5061 25.3102 31.4561 27.7977 31.4561 30.5102C31.4536 30.6652 31.4636 30.8702 31.4436 31.0227H36.2561C37.0123 31.0289 37.5773 30.3614 37.5061 29.6102C37.5061 25.9852 34.5561 23.0352 30.9311 23.0352Z" fill="white"/>
<path d="M30.931 22.2477C33.381 22.2477 35.3685 20.2477 35.3685 17.7977C35.3685 15.3477 33.381 13.3477 30.931 13.3477C29.9685 13.3477 29.081 13.6602 28.3435 14.1727C28.3685 14.3227 28.3685 14.4727 28.3685 14.6227C28.3685 16.4227 27.7935 18.0977 26.806 19.4727C27.481 21.0977 29.0685 22.2477 30.931 22.2477Z" fill="white"/>
<path d="M20.006 21.5635C15.0735 21.5635 11.0598 25.5772 11.0598 30.5097C10.9698 31.2747 11.5135 32.001 12.3098 31.9947H27.701C28.4985 32.001 29.041 31.276 28.951 30.5097C28.951 25.5772 24.9385 21.5635 20.006 21.5635Z" fill="white"/>
<path d="M20.006 20.4838C23.241 20.4838 25.8723 17.8525 25.8723 14.6175C25.8723 11.3825 23.241 8.75 20.006 8.75C16.771 8.75 14.1398 11.3812 14.1398 14.6175C14.1398 17.8525 16.771 20.4838 20.006 20.4838Z" fill="white"/>
</g>
<defs>
<clipPath id="clip0_41_731">
<rect width="40" height="40" fill="white"/>
</clipPath>
</defs>
</svg>
