<svg width="16" height="16" viewBox="0 0 16 16" fill="none" xmlns="http://www.w3.org/2000/svg">
<path d="M16 10.9976V12.9976C15.9991 13.793 15.6828 14.5556 15.1204 15.118C14.5579 15.6804 13.7954 15.9968 13 15.9976H3C2.20462 15.9968 1.44206 15.6804 0.879639 15.118C0.317218 14.5556 0.000868196 13.793 0 12.9976V10.9976C0 10.7324 0.105357 10.478 0.292893 10.2905C0.48043 10.103 0.734784 9.99762 1 9.99762C1.26522 9.99762 1.51957 10.103 1.70711 10.2905C1.89464 10.478 2 10.7324 2 10.9976V12.9976C2.00026 13.2628 2.10571 13.517 2.29319 13.7044C2.48066 13.8919 2.73486 13.9974 3 13.9976H13C13.2651 13.9974 13.5193 13.8919 13.7068 13.7044C13.8943 13.517 13.9997 13.2628 14 12.9976V10.9976C14 10.7324 14.1054 10.478 14.2929 10.2905C14.4804 10.103 14.7348 9.99762 15 9.99762C15.2652 9.99762 15.5196 10.103 15.7071 10.2905C15.8946 10.478 16 10.7324 16 10.9976ZM5.686 4.55328L7 3.31445V10.9976C7 11.2628 7.10536 11.5172 7.29289 11.7047C7.48043 11.8923 7.73478 11.9976 8 11.9976C8.26522 11.9976 8.51957 11.8923 8.70711 11.7047C8.89464 11.5172 9 11.2628 9 10.9976V3.31445L10.314 4.55328C10.5075 4.73216 10.7638 4.82744 11.0271 4.8184C11.2905 4.80937 11.5396 4.69675 11.7204 4.50502C11.9012 4.3133 11.999 4.05797 11.9925 3.79454C11.9861 3.53111 11.8759 3.28086 11.686 3.09821L8.686 0.270076C8.63969 0.234427 8.59021 0.203106 8.53817 0.176507C8.48735 0.136747 8.4327 0.102152 8.37502 0.0732365C8.13451 -0.0244122 7.86541 -0.0244122 7.6249 0.0732365C7.56722 0.102152 7.51257 0.136747 7.46175 0.176507C7.40971 0.203106 7.36023 0.234427 7.31392 0.270076L4.31392 3.09821C4.12296 3.28063 4.01191 3.53119 4.00501 3.79519C3.99812 4.0592 4.09594 4.31521 4.27712 4.50735C4.4583 4.69949 4.70814 4.81216 4.97209 4.82077C5.23605 4.82937 5.49269 4.73321 5.686 4.55328Z" fill="black"/>
</svg>
