<svg width="40" height="40" viewBox="0 0 40 40" fill="none" xmlns="http://www.w3.org/2000/svg">
<path d="M9.64464 15.5811C11.1134 12.6692 15.3988 7.0542 18.2868 2.73456C19.1022 1.51296 20.8976 1.51296 21.7144 2.73456C24.6022 7.05274 28.8878 12.6691 30.3566 15.5796C30.706 16.2728 30.1435 17.0768 29.3722 16.9859L24.77 16.4376C24.6194 16.4206 24.4873 16.537 24.4873 16.6876V27.1167C24.4873 27.7545 23.9703 28.273 23.3311 28.273H16.6576C16.0199 28.273 15.5014 27.7559 15.5014 27.1167V16.6905C15.5014 16.54 15.3693 16.4221 15.2187 16.4405L10.6278 16.986C9.8565 17.0769 9.29257 16.2743 9.64344 15.5797L9.64464 15.5811Z" fill="white"/>
<path d="M32.2414 38.1261C25.7414 38.2 14.2556 38.2 7.75704 38.1261C7.28544 38.1205 6.85079 37.7313 6.80533 37.2597C6.6505 35.6346 6.6505 34.0097 6.80533 32.3848C6.85079 31.9117 7.28544 31.524 7.75704 31.5183C14.257 31.4444 25.7429 31.4444 32.2414 31.5183C32.713 31.524 33.1477 31.9132 33.1931 32.3848C33.3479 34.0098 33.3479 35.6348 33.1931 37.2597C33.1477 37.7327 32.713 38.1205 32.2414 38.1261Z" fill="white"/>
</svg>
